<svg id="图层_1" data-name="图层 1" xmlns="http://www.w3.org/2000/svg" viewBox="0 0 141.87 125.95"><defs><style>.cls-1{fill:#2e73ba;}.cls-2{fill:#6da230;}</style></defs><path class="cls-1" d="M70.65,434.58a8.46,8.46,0,0,0-4.52-1.12L47.67,401.58a2.81,2.81,0,0,1,0-2.79l1.24-2.14h0l23.65-41h-3a10.79,10.79,0,0,0-9.32,5.36L40.76,394.8a10.78,10.78,0,0,0,0,10.75l18.49,31.93-.11.16a8.43,8.43,0,1,0,11.5-3.06Z" transform="translate(-29 -355.69)"/><path class="cls-1" d="M136.4,427.43a8.42,8.42,0,0,0-7.11,12.9l-18.38,31.94a2.78,2.78,0,0,1-2.41,1.39H58.74l1.49,2.58a10.74,10.74,0,0,0,9.3,5.39h39a10.75,10.75,0,0,0,9.3-5.39l18.4-32h.2a8.43,8.43,0,0,0,0-16.86Z" transform="translate(-29 -355.69)"/><path class="cls-2" d="M158.76,431.78l-18.49-31.93.11-.16a8.44,8.44,0,1,0-7,4.18l18.47,31.88a2.83,2.83,0,0,1,0,2.79l-1.24,2.14h0L127,481.63h3a10.77,10.77,0,0,0,9.31-5.36l19.49-33.75A10.78,10.78,0,0,0,158.76,431.78Z" transform="translate(-29 -355.69)"/><path class="cls-1" d="M169.44,413.23,150,379.48a10.73,10.73,0,0,0-9.32-5.36l-36.89.05-.09-.18a8.45,8.45,0,1,0,.13,8.13l36.84-.05a2.82,2.82,0,0,1,2.42,1.39l1.23,2.14h0l23.64,41,1.5-2.59A10.73,10.73,0,0,0,169.44,413.23Z" transform="translate(-29 -355.69)"/><path class="cls-2" d="M139.34,361.09a10.75,10.75,0,0,0-9.29-5.38h-39a10.78,10.78,0,0,0-9.3,5.38l-18.4,32h-.2A8.43,8.43,0,1,0,70.28,397l18.38-31.93a2.8,2.8,0,0,1,2.41-1.4h49.76Z" transform="translate(-29 -355.69)"/><path class="cls-2" d="M30.44,413.29a10.78,10.78,0,0,0,0,10.75l19.49,33.75a10.77,10.77,0,0,0,9.31,5.36l36.89,0c0,.06.06.12.1.18a8.45,8.45,0,1,0-.13-8.14l-36.85.05a2.81,2.81,0,0,1-2.42-1.39l-1.23-2.14h0l-23.65-41Z" transform="translate(-29 -355.69)"/></svg>