<svg xmlns="http://www.w3.org/2000/svg" xmlns:xlink="http://www.w3.org/1999/xlink" width="200" height="200" viewBox="0 0 200 200" fill="none"><g opacity="1"  transform="translate(0 0)"><mask id="bg-mask-0" fill="white"><use transform="translate(0 0)" xlink:href="#path_0"></use></mask><g mask="url(#bg-mask-0)" ><path id="路径 1" fill-rule="evenodd" style="fill:#E9F4FF" opacity="0" d="M11.19 100.22C11.19 101.661 11.2254 103.101 11.2961 104.541C11.3668 105.98 11.4727 107.416 11.614 108.85C11.7552 110.284 11.9316 111.714 12.143 113.14C12.3544 114.565 12.6007 115.984 12.8819 117.398C13.163 118.811 13.4786 120.216 13.8288 121.615C14.1789 123.012 14.5631 124.401 14.9814 125.78C15.3997 127.158 15.8516 128.526 16.337 129.883C16.8225 131.24 17.341 132.584 17.8924 133.915C18.4438 135.247 19.0276 136.564 19.6438 137.866C20.2599 139.169 20.9076 140.456 21.5869 141.727C22.2661 142.997 22.9761 144.251 23.717 145.487C24.4579 146.723 25.2286 147.94 26.0291 149.138C26.8296 150.336 27.6591 151.514 28.5176 152.671C29.376 153.829 30.2623 154.964 31.1763 156.078C32.0906 157.192 33.0316 158.283 33.9992 159.351C34.967 160.418 35.9603 161.462 36.9793 162.481C37.9982 163.5 39.0416 164.493 40.1091 165.461C41.1769 166.428 42.2677 167.369 43.3816 168.284C44.4957 169.198 45.6312 170.084 46.7886 170.942C47.9461 171.801 49.124 172.63 50.322 173.431C51.5203 174.232 52.7373 175.002 53.9732 175.743C55.2091 176.484 56.4627 177.194 57.7336 177.873C59.0045 178.552 60.2912 179.2 61.5937 179.816C62.8964 180.432 64.2134 181.016 65.5447 181.568C66.8759 182.119 68.2201 182.637 69.5767 183.123C70.9336 183.608 72.3015 184.06 73.6804 184.479C75.0593 184.897 76.4478 185.281 77.8455 185.631C79.2435 185.981 80.649 186.297 82.0623 186.578C83.4755 186.859 84.8949 187.106 86.3203 187.317C87.7457 187.528 89.1756 187.705 90.6095 187.846C92.0437 187.987 93.4804 188.093 94.9195 188.164C96.3589 188.235 97.799 188.27 99.24 188.27C100.681 188.27 102.121 188.235 103.56 188.164C105 188.093 106.436 187.987 107.87 187.846C109.304 187.705 110.734 187.528 112.16 187.317C113.585 187.106 115.004 186.859 116.418 186.578C117.831 186.297 119.237 185.981 120.634 185.631C122.032 185.281 123.421 184.897 124.8 184.479C126.178 184.06 127.546 183.608 128.903 183.123C130.26 182.637 131.604 182.119 132.935 181.568C134.267 181.016 135.584 180.432 136.886 179.816C138.189 179.2 139.476 178.552 140.746 177.873C142.017 177.194 143.271 176.484 144.507 175.743C145.743 175.002 146.96 174.232 148.158 173.431C149.356 172.63 150.534 171.801 151.691 170.942C152.849 170.084 153.985 169.198 155.098 168.284C156.212 167.369 157.303 166.428 158.371 165.461C159.438 164.493 160.482 163.5 161.501 162.481C162.52 161.462 163.513 160.418 164.481 159.351C165.448 158.283 166.389 157.192 167.303 156.078C168.218 154.964 169.104 153.829 169.962 152.671C170.821 151.514 171.65 150.336 172.451 149.138C173.252 147.94 174.022 146.723 174.763 145.487C175.504 144.251 176.214 142.997 176.893 141.727C177.572 140.456 178.22 139.169 178.836 137.866C179.452 136.564 180.036 135.247 180.587 133.915C181.139 132.584 181.658 131.24 182.143 129.883C182.628 128.526 183.08 127.158 183.499 125.78C183.917 124.401 184.301 123.012 184.651 121.615C185.001 120.216 185.317 118.811 185.598 117.398C185.879 115.984 186.126 114.565 186.337 113.14C186.548 111.714 186.725 110.284 186.866 108.85C187.007 107.416 187.113 105.98 187.184 104.541C187.255 103.101 187.29 101.661 187.29 100.22C187.29 98.779 187.255 97.3387 187.184 95.8997C187.113 94.4602 187.007 93.0237 186.866 91.5897C186.725 90.1555 186.548 88.7259 186.337 87.3005C186.126 85.8751 185.879 84.4557 185.598 83.0425C185.317 81.629 185.001 80.2233 184.651 78.8257C184.301 77.4278 183.917 76.0393 183.499 74.6604C183.08 73.2815 182.628 71.9136 182.143 70.5569C181.658 69.2001 181.139 67.8561 180.587 66.5249C180.036 65.1934 179.452 63.8764 178.836 62.5739C178.22 61.2712 177.572 59.9843 176.893 58.7136C176.214 57.4427 175.504 56.1893 174.763 54.9534C174.022 53.7173 173.252 52.5001 172.451 51.302C171.65 50.104 170.821 48.9262 169.962 47.7688C169.104 46.6114 168.218 45.4757 167.303 44.3618C166.389 43.2477 165.448 42.1569 164.481 41.0893C163.513 40.0216 162.52 38.9782 161.501 37.9593C160.482 36.9403 159.438 35.947 158.371 34.9794C157.303 34.0116 156.212 33.0706 155.098 32.1565C153.985 31.2422 152.849 30.356 151.691 29.4977C150.534 28.6392 149.356 27.8097 148.158 27.0092C146.96 26.2085 145.743 25.4378 144.507 24.6971C143.271 23.9562 142.017 23.2461 140.746 22.5668C139.476 21.8875 138.189 21.2398 136.886 20.6238C135.584 20.0077 134.267 19.4239 132.935 18.8724C131.604 18.321 130.26 17.8025 128.903 17.317C127.546 16.8316 126.178 16.3797 124.8 15.9614C123.421 15.5431 122.032 15.1589 120.634 14.8087C119.237 14.4586 117.831 14.143 116.418 13.8619C115.004 13.5807 113.585 13.3345 112.16 13.123C110.734 12.9116 109.304 12.7352 107.87 12.594C106.436 12.4527 105 12.3468 103.56 12.2761C102.121 12.2054 100.681 12.17 99.24 12.17C97.799 12.17 96.3589 12.2054 94.9195 12.2761C93.4804 12.3468 92.0437 12.4527 90.6095 12.594C89.1756 12.7352 87.7457 12.9116 86.3203 13.123C84.8949 13.3345 83.4755 13.5807 82.0623 13.8619C80.649 14.143 79.2435 14.4586 77.8455 14.8087C76.4478 15.1589 75.0593 15.5431 73.6804 15.9614C72.3015 16.3797 70.9336 16.8316 69.5767 17.317C68.2201 17.8025 66.8759 18.321 65.5447 18.8724C64.2134 19.4239 62.8964 20.0077 61.5937 20.6238C60.2912 21.2398 59.0045 21.8875 57.7336 22.5668C56.4627 23.2461 55.2091 23.9562 53.9732 24.6971C52.7373 25.4378 51.5203 26.2085 50.322 27.0092C49.124 27.8097 47.9461 28.6392 46.7886 29.4977C45.6312 30.356 44.4957 31.2422 43.3816 32.1565C42.2677 33.0706 41.1769 34.0116 40.1091 34.9794C39.0416 35.947 37.9982 36.9403 36.9793 37.9593C35.9603 38.9782 34.967 40.0216 33.9992 41.0893C33.0316 42.1569 32.0906 43.2477 31.1763 44.3618C30.2623 45.4757 29.376 46.6114 28.5176 47.7688C27.6591 48.9262 26.8296 50.104 26.0291 51.302C25.2286 52.5001 24.4579 53.7173 23.717 54.9534C22.9761 56.1893 22.2661 57.4427 21.5869 58.7136C20.9076 59.9843 20.2599 61.2712 19.6438 62.5739C19.0276 63.8764 18.4438 65.1934 17.8924 66.5249C17.341 67.8561 16.8225 69.2001 16.337 70.5569C15.8516 71.9136 15.3997 73.2815 14.9814 74.6604C14.5631 76.0393 14.1789 77.4278 13.8288 78.8257C13.4786 80.2233 13.163 81.629 12.8819 83.0425C12.6007 84.4557 12.3544 85.8751 12.143 87.3005C11.9316 88.7259 11.7552 90.1555 11.614 91.5897C11.4727 93.0237 11.3668 94.4602 11.2961 95.8997C11.2254 97.3387 11.19 98.779 11.19 100.22Z"></path><path id="路径 2" fill-rule="evenodd" style="fill:#389E0D" opacity="1" d="M100.87 106.77L113.48 93.6301C113.54 93.5675 113.602 93.5063 113.665 93.4467C113.728 93.3871 113.792 93.329 113.858 93.2725C113.924 93.2161 113.991 93.1613 114.06 93.108C114.129 93.0549 114.199 93.0035 114.27 92.9537C114.341 92.904 114.413 92.8561 114.487 92.81C114.56 92.7638 114.635 92.7194 114.71 92.6768C114.786 92.6343 114.863 92.5937 114.94 92.5549C115.018 92.5162 115.097 92.4794 115.176 92.4444C115.256 92.4095 115.336 92.3766 115.417 92.3457C115.498 92.3147 115.58 92.2858 115.662 92.2588C115.745 92.2319 115.828 92.2069 115.912 92.184C115.996 92.1612 116.08 92.1405 116.165 92.1217C116.249 92.103 116.334 92.0863 116.42 92.0717C116.506 92.0571 116.591 92.0447 116.678 92.0344C116.764 92.024 116.85 92.0158 116.937 92.0098C117.023 92.0037 117.11 91.9996 117.197 91.9977C117.284 91.9959 117.37 91.9962 117.457 91.9987C117.544 92.001 117.631 92.0055 117.717 92.0121C117.804 92.0188 117.89 92.0276 117.976 92.0385C118.062 92.0494 118.148 92.0625 118.234 92.0776C118.319 92.0927 118.404 92.1099 118.489 92.1291C118.573 92.1484 118.657 92.1698 118.741 92.1932C118.825 92.2165 118.908 92.2419 118.99 92.2694C119.072 92.2968 119.154 92.3263 119.235 92.3578C119.316 92.3894 119.396 92.4228 119.475 92.4582C119.554 92.4937 119.633 92.531 119.71 92.5702C119.787 92.6095 119.864 92.6506 119.939 92.6936C120.015 92.7366 120.089 92.7813 120.162 92.828C120.235 92.8747 120.307 92.9231 120.378 92.9733C120.449 93.0235 120.519 93.0754 120.587 93.1289C120.655 93.1826 120.722 93.2379 120.787 93.2948C120.853 93.3515 120.917 93.4099 120.98 93.47C121.043 93.5301 121.103 93.5918 121.163 93.6549C121.222 93.7181 121.28 93.7826 121.337 93.8487C121.393 93.9147 121.448 93.982 121.501 94.0506C121.554 94.1194 121.605 94.1893 121.655 94.2604C121.704 94.3316 121.752 94.4039 121.798 94.4774C121.844 94.5509 121.888 94.6255 121.931 94.7012C121.973 94.777 122.014 94.8537 122.053 94.9313C122.091 95.009 122.128 95.0876 122.163 95.167C122.198 95.2465 122.231 95.3267 122.261 95.4078C122.292 95.489 122.321 95.5707 122.348 95.6532C122.375 95.7357 122.4 95.8189 122.423 95.9026C122.445 95.9862 122.466 96.0703 122.485 96.1551C122.503 96.2399 122.52 96.325 122.535 96.4106C122.549 96.4961 122.562 96.5819 122.572 96.668C122.582 96.7542 122.591 96.8405 122.597 96.927C122.603 97.0136 122.607 97.1002 122.609 97.1869C122.61 97.2737 122.61 97.3605 122.608 97.4473C122.605 97.534 122.601 97.6206 122.594 97.7071C122.587 97.7935 122.579 97.8798 122.568 97.9658C122.557 98.0521 122.544 98.1379 122.529 98.2233C122.514 98.3087 122.497 98.3937 122.478 98.4784C122.458 98.5629 122.437 98.6469 122.414 98.7305C122.39 98.8141 122.365 98.897 122.338 98.9793C122.31 99.0616 122.281 99.1433 122.249 99.2243C122.218 99.3051 122.185 99.3851 122.149 99.4643C122.114 99.5436 122.077 99.622 122.038 99.6994C121.998 99.7768 121.957 99.8531 121.915 99.9285C121.872 100.004 121.827 100.078 121.78 100.152C121.734 100.225 121.686 100.297 121.636 100.368C121.586 100.439 121.534 100.508 121.48 100.577C121.427 100.645 121.372 100.712 121.315 100.777C121.258 100.843 121.2 100.907 121.14 100.97L115.86 106.47L148.86 106.47C151.79 106.47 154.17 108.85 154.17 111.78C154.17 114.71 151.79 117.09 148.86 117.09L115.46 117.09L119.93 121.98C119.989 122.044 120.046 122.11 120.101 122.177C120.157 122.243 120.21 122.312 120.262 122.381C120.315 122.451 120.365 122.521 120.413 122.593C120.462 122.665 120.509 122.739 120.554 122.813C120.599 122.887 120.642 122.963 120.683 123.039C120.725 123.115 120.764 123.193 120.802 123.271C120.839 123.349 120.875 123.429 120.909 123.509C120.942 123.589 120.974 123.67 121.003 123.751C121.033 123.833 121.061 123.915 121.086 123.998C121.112 124.081 121.136 124.165 121.157 124.249C121.179 124.333 121.198 124.418 121.215 124.503C121.233 124.588 121.248 124.673 121.261 124.759C121.274 124.845 121.286 124.931 121.295 125.018C121.303 125.104 121.31 125.191 121.315 125.277C121.32 125.364 121.322 125.451 121.323 125.538C121.323 125.625 121.321 125.712 121.318 125.798C121.314 125.885 121.308 125.972 121.3 126.058C121.292 126.145 121.282 126.231 121.269 126.317C121.257 126.403 121.243 126.489 121.226 126.574C121.21 126.659 121.191 126.744 121.17 126.828C121.15 126.913 121.127 126.997 121.102 127.08C121.077 127.163 121.051 127.246 121.022 127.328C120.993 127.41 120.962 127.491 120.929 127.571C120.896 127.652 120.861 127.731 120.825 127.81C120.788 127.889 120.749 127.966 120.709 128.043C120.669 128.12 120.626 128.196 120.582 128.271C120.537 128.346 120.491 128.419 120.444 128.491C120.395 128.564 120.346 128.635 120.295 128.705C120.243 128.775 120.19 128.844 120.136 128.912C120.081 128.979 120.024 129.045 119.966 129.11C119.908 129.174 119.849 129.238 119.788 129.299C119.727 129.361 119.664 129.421 119.6 129.48C118.58 130.41 117.3 130.87 116.02 130.87C114.58 130.87 113.15 130.29 112.1 129.14L100.76 116.74C98.1701 113.9 98.2201 109.53 100.87 106.77L100.87 106.77Z"></path><path id="路径 3" fill-rule="evenodd" style="fill:#389E0D" opacity="1" d="M149.28 124.56C149.14 124.56 149 124.58 148.86 124.58L128.79 124.58C128.83 125.09 128.83 125.6 128.81 126.12C128.66 129.54 127.18 132.69 124.66 135C124.514 135.134 124.366 135.264 124.214 135.391C124.062 135.517 123.908 135.64 123.75 135.76C123.593 135.879 123.432 135.995 123.27 136.107C123.107 136.219 122.941 136.328 122.774 136.432C122.606 136.537 122.436 136.637 122.263 136.733C122.091 136.83 121.916 136.922 121.739 137.011C121.562 137.099 121.384 137.183 121.203 137.264C121.022 137.344 120.84 137.42 120.655 137.491C120.471 137.563 120.285 137.63 120.098 137.693C119.911 137.757 119.722 137.815 119.532 137.869C119.342 137.924 119.151 137.973 118.958 138.019C118.766 138.064 118.572 138.105 118.378 138.141C118.184 138.178 117.989 138.21 117.793 138.237C117.597 138.265 117.401 138.287 117.204 138.306C117.007 138.324 116.81 138.337 116.613 138.347C116.415 138.356 116.218 138.36 116.02 138.36C112.43 138.36 108.98 136.84 106.57 134.19L95.23 121.79C89.99 116.06 90.1 107.18 95.4699 101.58L108.08 88.4401C111.82 84.5401 117.46 83.5302 122.19 85.47C122.403 85.1538 122.609 84.8339 122.81 84.51C123.011 84.186 123.206 83.8587 123.394 83.5276C123.583 83.1966 123.765 82.862 123.942 82.5241C124.118 82.1864 124.288 81.8454 124.451 81.5013C124.615 81.1571 124.772 80.81 124.923 80.46C125.073 80.11 125.218 79.7575 125.355 79.4022C125.493 79.047 125.624 78.6891 125.749 78.329C125.873 77.9688 125.991 77.6065 126.102 77.2419C126.213 76.8774 126.317 76.511 126.414 76.1427C126.512 75.7741 126.602 75.404 126.686 75.0323C126.77 74.6606 126.847 74.2876 126.917 73.913C126.986 73.5384 127.049 73.1626 127.105 72.7856C127.161 72.4089 127.21 72.0309 127.252 71.6522C127.294 71.2735 127.329 70.894 127.357 70.5141C127.385 70.1341 127.406 69.7536 127.42 69.3729C127.434 68.9921 127.44 68.6112 127.44 68.2302C127.44 51.11 113.51 37.17 96.38 37.17C79.25 37.17 65.3099 51.1001 65.3099 68.2302C65.3099 77.7302 69.6 86.2401 76.34 91.9401C75.49 92.2608 74.6482 92.6018 73.8146 92.9632C72.981 93.3247 72.1566 93.7059 71.3414 94.1069C70.5263 94.5079 69.7213 94.9284 68.9263 95.3682C68.1312 95.8081 67.3474 96.2669 66.5746 96.7444C65.8017 97.222 65.041 97.718 64.292 98.2323C63.5429 98.7466 62.8068 99.2786 62.0836 99.8284C61.3603 100.378 60.6506 100.945 59.9545 101.529C59.2585 102.113 58.577 102.713 57.9099 103.33C47.4699 112.97 41.0699 126.05 39.8801 140.16C39.85 140.5 39.84 140.84 39.85 141.18C39.8801 143.48 40.7599 145.72 42.34 147.42C42.4504 147.539 42.5639 147.656 42.6803 147.769C42.7967 147.883 42.9159 147.994 43.0381 148.101C43.1602 148.208 43.285 148.313 43.4125 148.414C43.54 148.515 43.67 148.612 43.8025 148.706C43.9351 148.801 44.0699 148.891 44.207 148.979C44.3443 149.066 44.4836 149.15 44.6252 149.23C44.7667 149.31 44.9102 149.387 45.0556 149.459C45.2011 149.532 45.3483 149.601 45.4972 149.666C45.6463 149.732 45.7969 149.793 45.949 149.85C46.1012 149.908 46.2548 149.961 46.4097 150.011C46.5646 150.06 46.7206 150.106 46.8779 150.147C47.0352 150.189 47.1934 150.226 47.3525 150.259C47.5118 150.293 47.6717 150.322 47.8324 150.347C47.9931 150.372 48.1543 150.393 48.3162 150.41C48.4779 150.426 48.64 150.439 48.8023 150.447C48.9648 150.456 49.1274 150.46 49.29 150.46L49.3 150.46C62.1699 150.44 74.5699 150.35 86.55 150.25C89.88 150.22 93.14 150.2 96.34 150.18C99.55 150.2 102.82 150.23 106.18 150.25C118.17 150.34 130.56 150.44 143.44 150.46L143.45 150.46C146.08 150.46 148.62 149.35 150.4 147.41C150.497 147.305 150.591 147.197 150.683 147.087C150.775 146.977 150.864 146.866 150.951 146.752C151.037 146.638 151.121 146.522 151.203 146.405C151.284 146.287 151.363 146.168 151.439 146.046C151.515 145.925 151.589 145.802 151.659 145.678C151.73 145.553 151.797 145.427 151.862 145.3C151.927 145.172 151.989 145.043 152.048 144.913C152.107 144.783 152.163 144.651 152.216 144.518C152.269 144.385 152.319 144.251 152.366 144.116C152.413 143.981 152.457 143.845 152.498 143.707C152.539 143.57 152.576 143.432 152.611 143.293C152.645 143.154 152.677 143.015 152.705 142.875C152.733 142.734 152.758 142.593 152.78 142.452C152.802 142.311 152.821 142.169 152.836 142.026C152.852 141.884 152.864 141.742 152.873 141.599C152.882 141.456 152.887 141.313 152.89 141.17C152.9 140.83 152.89 140.48 152.86 140.14C152.748 138.807 152.589 137.481 152.383 136.159C152.177 134.838 151.924 133.526 151.624 132.223C151.325 130.919 150.979 129.628 150.588 128.35C150.197 127.071 149.761 125.808 149.28 124.56Z"></path><path id="路径 4" fill-rule="evenodd" style="fill:#52C41A" opacity="1" d="M128.78 124.58C128.82 125.09 128.82 125.6 128.8 126.12C128.65 129.54 127.17 132.69 124.65 135C124.504 135.134 124.356 135.264 124.204 135.391C124.052 135.517 123.897 135.64 123.74 135.76C123.583 135.879 123.422 135.995 123.26 136.107C123.097 136.219 122.931 136.328 122.764 136.432C122.596 136.537 122.426 136.637 122.253 136.733C122.081 136.83 121.906 136.922 121.729 137.011C121.552 137.099 121.374 137.183 121.193 137.264C121.012 137.344 120.83 137.42 120.645 137.491C120.461 137.563 120.275 137.63 120.088 137.693C119.901 137.757 119.712 137.815 119.522 137.869C119.332 137.924 119.141 137.973 118.948 138.019C118.756 138.064 118.562 138.105 118.368 138.141C118.174 138.178 117.979 138.21 117.783 138.237C117.587 138.265 117.391 138.287 117.194 138.306C116.997 138.324 116.8 138.337 116.603 138.347C116.405 138.356 116.208 138.36 116.01 138.36C112.42 138.36 108.97 136.84 106.56 134.19L95.2199 121.79C89.98 116.06 90.09 107.18 95.4599 101.58L108.07 88.4401C111.81 84.5401 117.45 83.5302 122.18 85.47C122.393 85.1538 122.599 84.8339 122.8 84.51C123.001 84.186 123.195 83.8587 123.384 83.5276C123.573 83.1966 123.755 82.862 123.931 82.5241C124.108 82.1864 124.278 81.8454 124.441 81.5013C124.605 81.1571 124.762 80.81 124.913 80.46C125.063 80.11 125.208 79.7575 125.345 79.4022C125.483 79.047 125.614 78.6891 125.739 78.329C125.863 77.9688 125.981 77.6065 126.092 77.2419C126.203 76.8774 126.307 76.511 126.404 76.1427C126.502 75.7741 126.592 75.404 126.676 75.0323C126.76 74.6606 126.837 74.2876 126.907 73.913C126.976 73.5384 127.039 73.1626 127.095 72.7856C127.151 72.4089 127.2 72.0309 127.242 71.6522C127.284 71.2735 127.319 70.894 127.347 70.5141C127.375 70.1341 127.396 69.7536 127.41 69.3729C127.424 68.9921 127.43 68.6112 127.43 68.2302C127.43 51.11 113.5 37.17 96.3699 37.17C79.24 37.17 65.3099 51.1001 65.3099 68.2302C65.3099 77.7302 69.6 86.2401 76.34 91.9401C75.49 92.2608 74.6482 92.6018 73.8146 92.9632C72.981 93.3247 72.1566 93.7059 71.3414 94.1069C70.5263 94.5079 69.7213 94.9284 68.9263 95.3682C68.1312 95.8081 67.3474 96.2669 66.5746 96.7444C65.8017 97.222 65.041 97.718 64.292 98.2323C63.5429 98.7466 62.8068 99.2786 62.0836 99.8284C61.3603 100.378 60.6506 100.945 59.9545 101.529C59.2585 102.113 58.577 102.713 57.9099 103.33C47.4699 112.97 41.0699 126.05 39.8801 140.16C39.85 140.5 39.84 140.84 39.85 141.18C39.8801 143.48 40.7599 145.72 42.34 147.42C42.4504 147.539 42.5639 147.656 42.6803 147.769C42.7967 147.883 42.9159 147.994 43.0381 148.101C43.1602 148.208 43.285 148.313 43.4125 148.414C43.54 148.515 43.67 148.612 43.8025 148.706C43.9351 148.801 44.0699 148.891 44.207 148.979C44.3443 149.066 44.4836 149.15 44.6252 149.23C44.7667 149.31 44.9102 149.387 45.0556 149.459C45.2011 149.532 45.3483 149.601 45.4972 149.666C45.6463 149.732 45.7969 149.793 45.949 149.85C46.1012 149.908 46.2548 149.961 46.4097 150.011C46.5646 150.06 46.7206 150.106 46.8779 150.147C47.0352 150.189 47.1934 150.226 47.3525 150.259C47.5118 150.293 47.6717 150.322 47.8324 150.347C47.9931 150.372 48.1543 150.393 48.3162 150.41C48.4779 150.426 48.64 150.439 48.8023 150.447C48.9648 150.456 49.1274 150.46 49.29 150.46L49.3 150.46C62.1699 150.44 74.5699 150.35 86.55 150.25C89.88 150.22 93.14 150.2 96.34 150.18C99.55 150.2 102.82 150.23 106.18 150.25C106.45 150.25 106.72 150.25 106.99 150.26C117.67 143.77 126.78 134.97 133.67 124.57L128.78 124.57L128.78 124.58Z"></path><path id="路径 5" fill-rule="evenodd" style="fill:#52C41A" opacity="1" d="M142.77 106.47L115.86 106.47L121.14 100.97C121.2 100.907 121.259 100.843 121.316 100.778C121.373 100.712 121.428 100.645 121.482 100.577C121.536 100.509 121.588 100.439 121.638 100.369C121.688 100.298 121.737 100.226 121.783 100.153C121.83 100.08 121.875 100.005 121.918 99.9299C121.961 99.8545 122.003 99.7781 122.042 99.7006C122.081 99.6233 122.119 99.5449 122.154 99.4656C122.19 99.3865 122.223 99.3064 122.255 99.2254C122.286 99.1445 122.316 99.0629 122.344 98.9805C122.371 98.8982 122.397 98.8152 122.42 98.7317C122.444 98.6481 122.465 98.5639 122.484 98.4791C122.504 98.3945 122.521 98.3094 122.536 98.224C122.551 98.1385 122.564 98.0526 122.575 97.9664C122.586 97.8803 122.595 97.794 122.602 97.7074C122.608 97.6208 122.613 97.5341 122.615 97.4473C122.618 97.3604 122.618 97.2736 122.616 97.1867C122.614 97.1 122.61 97.0133 122.604 96.9266C122.598 96.84 122.59 96.7536 122.579 96.6674C122.569 96.5812 122.556 96.4953 122.542 96.4096C122.527 96.324 122.511 96.2389 122.492 96.1541C122.473 96.0692 122.452 95.9849 122.429 95.9012C122.406 95.8175 122.381 95.7343 122.354 95.6518C122.327 95.5692 122.298 95.4874 122.267 95.4063C122.236 95.3251 122.203 95.2449 122.168 95.1654C122.133 95.086 122.096 95.0074 122.057 94.9297C122.019 94.8521 121.978 94.7755 121.935 94.6998C121.893 94.624 121.848 94.5494 121.802 94.476C121.756 94.4026 121.708 94.3303 121.658 94.2592C121.608 94.188 121.556 94.1181 121.503 94.0496C121.45 93.981 121.395 93.9137 121.338 93.8479C121.282 93.782 121.224 93.7175 121.164 93.6545C121.104 93.5915 121.043 93.53 120.98 93.4699C120.918 93.4098 120.853 93.3512 120.788 93.2943C120.722 93.2373 120.655 93.1819 120.587 93.1281C120.519 93.0745 120.449 93.0225 120.379 92.9721C120.308 92.9218 120.236 92.8733 120.163 92.8266C120.09 92.7798 120.015 92.7349 119.94 92.6918C119.864 92.6486 119.788 92.6073 119.711 92.568C119.633 92.5287 119.555 92.4912 119.476 92.4557C119.396 92.4203 119.316 92.3867 119.235 92.3551C119.154 92.3236 119.073 92.294 118.991 92.2664C118.908 92.2389 118.825 92.2134 118.742 92.1898C118.658 92.1664 118.574 92.1451 118.489 92.1258C118.404 92.1064 118.319 92.0891 118.234 92.074C118.148 92.0589 118.063 92.0459 117.976 92.035C117.89 92.024 117.804 92.0152 117.717 92.0084C117.631 92.0018 117.544 91.9973 117.457 91.9949C117.37 91.9925 117.284 91.9921 117.197 91.9939C117.11 91.9958 117.023 91.9997 116.937 92.0059C116.85 92.012 116.764 92.0203 116.677 92.0307C116.591 92.0411 116.505 92.0536 116.42 92.0682C116.334 92.0827 116.249 92.0994 116.164 92.1182C116.079 92.1369 115.995 92.1578 115.911 92.1807C115.827 92.2036 115.744 92.2286 115.662 92.2557C115.579 92.2826 115.497 92.3117 115.416 92.3428C115.335 92.3738 115.255 92.4068 115.175 92.4418C115.096 92.4767 115.017 92.5136 114.94 92.5525C114.862 92.5913 114.785 92.632 114.71 92.6746C114.634 92.7173 114.56 92.7618 114.486 92.808C114.413 92.8544 114.34 92.9025 114.269 92.9523C114.198 93.0021 114.128 93.0536 114.06 93.1068C113.991 93.1602 113.924 93.2152 113.858 93.2717C113.792 93.3283 113.728 93.3865 113.664 93.4463C113.601 93.5061 113.54 93.5673 113.48 93.6301L100.87 106.77C98.22 109.53 98.17 113.91 100.75 116.73L112.09 129.13C112.152 129.198 112.215 129.264 112.281 129.329C112.346 129.394 112.413 129.457 112.481 129.518C112.55 129.579 112.62 129.638 112.692 129.696C112.764 129.754 112.837 129.809 112.911 129.863C112.986 129.917 113.062 129.969 113.139 130.018C113.217 130.068 113.295 130.116 113.375 130.162C113.455 130.207 113.536 130.251 113.618 130.292C113.7 130.334 113.783 130.373 113.867 130.41C113.951 130.447 114.036 130.482 114.122 130.515C114.208 130.547 114.295 130.578 114.382 130.606C114.47 130.634 114.558 130.66 114.647 130.684C114.736 130.707 114.825 130.728 114.915 130.747C115.005 130.766 115.095 130.783 115.186 130.797C115.277 130.811 115.368 130.823 115.459 130.832C115.551 130.842 115.643 130.849 115.734 130.853C115.826 130.858 115.918 130.86 116.01 130.86C117.29 130.86 118.57 130.4 119.59 129.47C119.654 129.411 119.717 129.351 119.778 129.289C119.839 129.228 119.898 129.164 119.956 129.1C120.014 129.035 120.071 128.969 120.125 128.902C120.18 128.834 120.233 128.765 120.285 128.695C120.336 128.625 120.386 128.554 120.434 128.481C120.481 128.409 120.528 128.335 120.572 128.261C120.616 128.186 120.658 128.11 120.699 128.033C120.74 127.956 120.778 127.879 120.815 127.8C120.852 127.721 120.886 127.642 120.919 127.561C120.952 127.481 120.983 127.4 121.012 127.318C121.041 127.236 121.067 127.153 121.092 127.07C121.117 126.987 121.14 126.903 121.16 126.818C121.181 126.734 121.2 126.649 121.216 126.564C121.233 126.479 121.247 126.393 121.259 126.307C121.272 126.221 121.282 126.135 121.29 126.048C121.298 125.962 121.304 125.875 121.308 125.788C121.311 125.702 121.313 125.615 121.313 125.528C121.312 125.441 121.31 125.354 121.305 125.267C121.3 125.181 121.294 125.094 121.285 125.008C121.276 124.921 121.265 124.835 121.251 124.749C121.238 124.663 121.223 124.578 121.205 124.493C121.188 124.408 121.169 124.323 121.147 124.239C121.126 124.155 121.102 124.071 121.076 123.988C121.051 123.905 121.023 123.823 120.993 123.741C120.964 123.66 120.932 123.579 120.898 123.499C120.865 123.419 120.829 123.339 120.792 123.261C120.754 123.183 120.715 123.105 120.673 123.029C120.632 122.953 120.589 122.877 120.544 122.803C120.499 122.729 120.452 122.655 120.403 122.583C120.355 122.511 120.304 122.441 120.252 122.371C120.2 122.302 120.147 122.233 120.091 122.166C120.036 122.1 119.979 122.034 119.92 121.97L115.45 117.08L138.1 117.08C139.89 113.68 141.46 110.14 142.77 106.47Z"></path><path id="路径 6" fill-rule="evenodd" style="fill:#73D13D" opacity="1" d="M91.67 114.81C90.72 110.19 91.9802 105.2 95.4501 101.58L108.06 88.44C110.3 86.0999 113.22 84.8199 116.22 84.5699C120.65 75.39 123.44 65.28 124.28 54.63C119.23 44.3099 108.62 37.18 96.37 37.18C79.2401 37.18 65.31 51.1099 65.31 68.24C65.31 77.74 69.6001 86.2499 76.3401 91.9499C75.4901 92.2708 74.6483 92.6118 73.8147 92.9732C72.9811 93.3345 72.1567 93.7158 71.3415 94.1167C70.5265 94.5177 69.7214 94.9382 68.9263 95.3781C68.1313 95.8179 67.3475 96.2767 66.5747 96.7544C65.8018 97.232 65.0411 97.7279 64.2921 98.2421C63.5431 98.7564 62.8069 99.2884 62.0837 99.8382C61.3604 100.388 60.6507 100.955 59.9546 101.539C59.2586 102.123 58.5771 102.723 57.91 103.34C49.4001 111.2 43.5802 121.34 41.07 132.47C60.12 132.2 77.6501 125.66 91.67 114.81Z"></path><path id="路径 7" fill-rule="evenodd" style="fill:#95DE64" opacity="1" d="M96.37 37.17C79.2401 37.17 65.31 51.1001 65.31 68.2302C65.31 74.4001 67.1301 80.1401 70.2401 84.9802C85.36 73.3302 96.4301 56.6901 100.98 37.52C99.4801 37.2901 97.9401 37.17 96.37 37.17Z"></path></g></g><defs><rect id="path_0" x="0" y="0" width="200" height="200" rx="0" ry="0"/></defs></svg>