<svg xmlns="http://www.w3.org/2000/svg" xmlns:xlink="http://www.w3.org/1999/xlink" width="200" height="200" viewBox="0 0 200 200" fill="none"><g opacity="1"  transform="translate(0 0)"><mask id="bg-mask-0" fill="white"><use transform="translate(0 0)" xlink:href="#path_0"></use></mask><g mask="url(#bg-mask-0)" ><path id="路径 1" fill-rule="evenodd" style="fill:#FFFFFF" opacity="0" d="M12.7 100.47C12.7 101.911 12.7353 103.351 12.8061 104.791C12.8768 106.23 12.9827 107.666 13.124 109.1C13.2652 110.534 13.4416 111.964 13.653 113.39C13.8645 114.815 14.1107 116.234 14.3919 117.648C14.673 119.061 14.9886 120.466 15.3387 121.865C15.6889 123.262 16.0731 124.651 16.4914 126.03C16.9097 127.408 17.3616 128.776 17.847 130.133C18.3325 131.49 18.851 132.834 19.4024 134.165C19.9538 135.497 20.5376 136.814 21.1537 138.116C21.7699 139.419 22.4176 140.706 23.0969 141.976C23.7762 143.247 24.4862 144.501 25.2269 145.737C25.9678 146.973 26.7385 148.19 27.5391 149.388C28.3397 150.586 29.1692 151.764 30.0275 152.921C30.886 154.079 31.7723 155.214 32.6865 156.328C33.6006 157.442 34.5414 158.533 35.5092 159.601C36.477 160.668 37.4703 161.712 38.4893 162.731C39.5082 163.75 40.5514 164.743 41.6191 165.711C42.6869 166.678 43.7777 167.619 44.8916 168.534C46.0055 169.448 47.1412 170.334 48.2986 171.192C49.4561 172.051 50.6338 172.88 51.832 173.681C53.0303 174.482 54.2473 175.252 55.4832 175.993C56.7193 176.734 57.9727 177.444 59.2436 178.123C60.5145 178.802 61.8012 179.45 63.1037 180.066C64.4064 180.682 65.7234 181.266 67.0547 181.818C68.3861 182.369 69.7301 182.887 71.0869 183.373C72.4437 183.858 73.8115 184.31 75.1904 184.729C76.5693 185.147 77.9578 185.531 79.3557 185.881C80.7535 186.231 82.159 186.547 83.5723 186.828C84.9855 187.109 86.4049 187.356 87.8305 187.567C89.2559 187.778 90.6855 187.955 92.1195 188.096C93.5537 188.237 94.9904 188.343 96.4297 188.414C97.8689 188.485 99.309 188.52 100.75 188.52C102.191 188.52 103.631 188.485 105.071 188.414C106.51 188.343 107.946 188.237 109.38 188.096C110.814 187.955 112.244 187.778 113.67 187.567C115.095 187.356 116.514 187.109 117.928 186.828C119.341 186.547 120.746 186.231 122.144 185.881C123.542 185.531 124.931 185.147 126.31 184.729C127.688 184.31 129.056 183.858 130.413 183.373C131.77 182.887 133.114 182.369 134.445 181.818C135.777 181.266 137.094 180.682 138.396 180.066C139.699 179.45 140.986 178.802 142.256 178.123C143.527 177.444 144.781 176.734 146.017 175.993C147.253 175.252 148.47 174.482 149.668 173.681C150.866 172.88 152.044 172.051 153.201 171.192C154.359 170.334 155.495 169.448 156.608 168.534C157.722 167.619 158.813 166.678 159.881 165.711C160.949 164.743 161.992 163.75 163.011 162.731C164.03 161.712 165.023 160.668 165.991 159.601C166.959 158.533 167.899 157.442 168.814 156.328C169.728 155.214 170.614 154.079 171.472 152.921C172.331 151.764 173.16 150.586 173.961 149.388C174.762 148.19 175.532 146.973 176.273 145.737C177.014 144.501 177.724 143.247 178.403 141.976C179.082 140.706 179.73 139.419 180.346 138.116C180.962 136.814 181.546 135.497 182.098 134.165C182.649 132.834 183.168 131.49 183.653 130.133C184.138 128.776 184.59 127.408 185.009 126.03C185.427 124.651 185.811 123.262 186.161 121.865C186.512 120.466 186.827 119.061 187.108 117.648C187.389 116.234 187.636 114.815 187.847 113.39C188.058 111.964 188.235 110.534 188.376 109.1C188.517 107.666 188.623 106.23 188.694 104.791C188.765 103.351 188.8 101.911 188.8 100.47C188.8 99.029 188.765 97.5887 188.694 96.1497C188.623 94.7102 188.517 93.2737 188.376 91.8397C188.235 90.4055 188.058 88.9759 187.847 87.5505C187.636 86.1251 187.389 84.7057 187.108 83.2925C186.827 81.879 186.512 80.4733 186.161 79.0757C185.811 77.6778 185.427 76.2893 185.009 74.9104C184.59 73.5315 184.138 72.1636 183.653 70.8069C183.168 69.4501 182.649 68.1061 182.098 66.7749C181.546 65.4434 180.962 64.1264 180.346 62.8239C179.73 61.5212 179.082 60.2343 178.403 58.9636C177.724 57.6927 177.014 56.4393 176.273 55.2034C175.532 53.9673 174.762 52.7501 173.961 51.552C173.16 50.354 172.331 49.1762 171.472 48.0188C170.614 46.8614 169.728 45.7257 168.814 44.6118C167.899 43.4977 166.959 42.4069 165.991 41.3393C165.023 40.2716 164.03 39.2282 163.011 38.2093C161.992 37.1903 160.949 36.197 159.881 35.2294C158.813 34.2616 157.722 33.3206 156.608 32.4065C155.495 31.4922 154.359 30.606 153.201 29.7477C152.044 28.8892 150.866 28.0597 149.668 27.2592C148.47 26.4585 147.253 25.6878 146.017 24.9471C144.781 24.2062 143.527 23.4961 142.256 22.8168C140.986 22.1375 139.699 21.4898 138.396 20.8738C137.094 20.2577 135.777 19.6739 134.445 19.1224C133.114 18.571 131.77 18.0525 130.413 17.567C129.056 17.0816 127.688 16.6297 126.31 16.2114C124.931 15.7931 123.542 15.4089 122.144 15.0587C120.746 14.7086 119.341 14.393 117.928 14.1119C116.514 13.8307 115.095 13.5844 113.67 13.373C112.244 13.1616 110.814 12.9852 109.38 12.844C107.946 12.7027 106.51 12.5968 105.071 12.5261C103.631 12.4553 102.191 12.42 100.75 12.42C99.309 12.42 97.8689 12.4553 96.4297 12.5261C94.9904 12.5968 93.5537 12.7027 92.1195 12.844C90.6855 12.9852 89.2559 13.1616 87.8305 13.373C86.4049 13.5844 84.9855 13.8307 83.5723 14.1119C82.159 14.393 80.7535 14.7086 79.3557 15.0587C77.9578 15.4089 76.5693 15.7931 75.1904 16.2114C73.8115 16.6297 72.4437 17.0816 71.0869 17.567C69.7301 18.0525 68.3861 18.571 67.0547 19.1224C65.7234 19.6739 64.4064 20.2577 63.1037 20.8738C61.8012 21.4898 60.5145 22.1375 59.2436 22.8168C57.9727 23.4961 56.7193 24.2062 55.4832 24.9471C54.2473 25.6878 53.0303 26.4585 51.832 27.2592C50.6338 28.0597 49.4561 28.8892 48.2986 29.7477C47.1412 30.606 46.0055 31.4922 44.8916 32.4065C43.7777 33.3206 42.6869 34.2616 41.6191 35.2294C40.5514 36.197 39.5082 37.1903 38.4893 38.2093C37.4703 39.2282 36.477 40.2716 35.5092 41.3393C34.5414 42.4069 33.6006 43.4977 32.6865 44.6118C31.7723 45.7257 30.886 46.8614 30.0275 48.0188C29.1692 49.1762 28.3397 50.354 27.5391 51.552C26.7385 52.7501 25.9678 53.9673 25.2269 55.2034C24.4862 56.4393 23.7762 57.6927 23.0969 58.9636C22.4176 60.2343 21.7699 61.5212 21.1537 62.8239C20.5376 64.1264 19.9538 65.4434 19.4024 66.7749C18.851 68.1061 18.3325 69.4501 17.847 70.8069C17.3616 72.1636 16.9097 73.5315 16.4914 74.9104C16.0731 76.2893 15.6889 77.6778 15.3387 79.0757C14.9886 80.4733 14.673 81.879 14.3919 83.2925C14.1107 84.7057 13.8645 86.1251 13.653 87.5505C13.4416 88.9759 13.2652 90.4055 13.124 91.8397C12.9827 93.2737 12.8768 94.7102 12.8061 96.1497C12.7353 97.5887 12.7 99.029 12.7 100.47Z"></path><path id="路径 2" fill-rule="evenodd" style="fill:#2F7DD6" opacity="1" d="M89.8301 97.4598C85.95 95.0801 82.95 92.3501 80.65 88.8901C72.35 76.3499 75.2801 56.6199 90.25 48.99C99.6 44.23 111.56 46.7 118.46 55.14C125.98 64.35 127.4 74.4801 122.6 85.46C120.68 89.8399 118.04 93.5901 114.08 96.3301C113.78 96.5401 113.51 96.7899 113.23 97.0401C113.16 97.1098 113.12 97.21 112.95 97.51C113.84 97.7299 114.68 97.8999 115.5 98.1301C125.78 101.07 134.38 106.38 140.32 115.52C143.63 120.62 145.71 126.21 146.66 132.16C147.35 136.45 147.69 140.8 147.93 145.14C148.14 148.87 146.24 151.04 142.28 152.21C137.39 153.66 132.35 153.84 127.32 153.96C107.95 154.43 88.5801 154.59 69.23 153.66C66.2199 153.51 63.18 152.94 60.25 152.2C55.95 151.12 54.4599 148.79 54.59 144.39C54.7599 138.66 55.3099 132.99 56.94 127.46C61.1199 113.27 70.23 103.83 84.1801 99.0299C85.0699 98.72 85.9699 98.42 86.8801 98.16C87.71 97.9301 88.5699 97.76 89.8301 97.4598Z"></path><path id="路径 3" fill-rule="evenodd" style="fill:#2595E8" opacity="1" d="M72.9599 53.8C64.8599 67.7301 65.2899 81.4801 73.8999 95.22C55.7198 104.13 47.6699 119.74 45.4199 139.22C42.05 139.3 38.7199 139.43 35.69 137.9C34.6599 137.38 33.45 136.09 33.34 135.05C32.98 131.53 32.65 127.92 33.08 124.43C34.29 114.58 38.68 106.27 46.29 99.7901C49.93 96.6901 54.08 94.4901 58.6599 93.11C59.1599 92.96 59.6499 92.8001 60.4198 92.56C55.08 89.61 51.63 85.3901 49.98 79.76C48.3199 74.0901 48.9099 68.6199 51.69 63.45C56.0499 55.3301 64.8899 51.36 72.9599 53.8Z"></path><path id="路径 4" fill-rule="evenodd" style="fill:#2F7DD6" opacity="1" d="M127.7 95.2099C136.55 81.3599 136.5 67.4901 128.61 53.36C132.71 52.12 136.7 52.41 140.5 54.31C147.61 57.87 151.52 63.77 152.11 71.62C152.72 79.7301 149.81 86.4199 143.07 91.2301C142.44 91.6801 141.71 92 140.88 92.4699C141.28 92.6699 141.55 92.8699 141.86 92.9699C156.83 98 165.22 108.71 168.15 123.9C168.79 127.24 168.62 130.77 168.54 134.21C168.48 136.51 166.9 138.01 164.7 138.43C161.95 138.96 159.14 139.17 156.18 139.53C154.14 119.7 145.96 104.18 127.7 95.2099Z"></path><path id="路径 5" fill-rule="evenodd" style="fill:#2595E8" opacity="1" d="M141.09 116.79C140.84 116.37 140.59 115.94 140.31 115.52C134.37 106.37 125.77 101.06 115.49 98.1299C114.67 97.8999 113.83 97.7198 112.94 97.51C113.11 97.2098 113.15 97.1001 113.22 97.0399C113.49 96.7999 113.76 96.5399 114.07 96.3299C118.03 93.5801 120.67 89.8399 122.59 85.4598C127.4 74.4901 125.97 64.35 118.45 55.14C111.56 46.7 99.5902 44.23 90.2402 48.99C75.2802 56.6199 72.3501 76.3499 80.6402 88.8899C82.9302 92.3598 85.9402 95.0799 89.8201 97.4598C88.5601 97.75 87.7001 97.92 86.8601 98.16C85.9501 98.4198 85.0601 98.72 84.1601 99.0299C70.21 103.83 61.0901 113.27 56.92 127.46C55.2901 133 54.7401 138.66 54.57 144.39C54.4401 148.8 55.9301 151.12 60.2301 152.2C61.5301 152.53 62.86 152.81 64.1901 153.05C66.0301 153.16 67.8801 153.23 69.7401 153.23C99.1001 153.25 125.09 138.88 141.09 116.79Z"></path><path id="路径 6" fill-rule="evenodd" style="fill:#2595E8" opacity="1" d="M141.86 92.9801C141.56 92.8801 141.28 92.6901 140.88 92.4801C141.71 92.02 142.44 91.6901 143.07 91.2401C149.81 86.4301 152.72 79.7301 152.11 71.6301C151.52 63.7801 147.6 57.8801 140.5 54.3199C136.7 52.4199 132.71 52.1301 128.61 53.3699C136.51 67.5 136.55 81.36 127.7 95.22C135.37 98.9901 141.25 103.91 145.65 109.82C147.93 105.94 149.93 101.88 151.61 97.65C148.74 95.77 145.5 94.2 141.86 92.9801Z"></path><path id="路径 7" fill-rule="evenodd" style="fill:#39A5E9" opacity="1" d="M72.96 53.8C64.8901 51.36 56.05 55.3301 51.6801 63.46C48.9 68.6301 48.31 74.0999 49.97 79.7699C51.62 85.3999 55.0801 89.6199 60.41 92.5699C59.6401 92.8099 59.15 92.9699 58.65 93.1199C54.07 94.4999 49.92 96.6999 46.2801 99.7999C39.5301 105.55 35.32 112.74 33.61 121.16C37.55 121.7 41.56 121.98 45.65 121.98C46.9301 121.98 48.2 121.95 49.47 121.89C53.82 110.49 61.5 101.3 73.8901 95.2199C65.2901 81.48 64.86 67.7301 72.96 53.8Z"></path><path id="路径 8" fill-rule="evenodd" style="fill:#39A5E9" opacity="1" d="M84.1698 99.0399C72.49 103.06 64.2198 110.33 59.38 120.91C88.63 116.33 113.1 97.35 125.32 71.4598C124.95 65.74 122.66 60.2999 118.45 55.14C111.56 46.6999 99.59 44.23 90.24 48.99C75.28 56.6199 72.3499 76.3498 80.64 88.8899C82.93 92.3598 85.94 95.0799 89.8198 97.4598C88.5599 97.75 87.6999 97.92 86.8599 98.16C85.9599 98.4198 85.0599 98.7299 84.1698 99.0399Z"></path><path id="路径 9" fill-rule="evenodd" style="fill:#55B5F3" opacity="1" d="M128.61 53.37C129.34 54.67 129.98 55.97 130.57 57.27C130.98 55.77 131.35 54.2501 131.69 52.72C130.67 52.8401 129.64 53.06 128.61 53.37Z"></path><path id="路径 10" fill-rule="evenodd" style="fill:#6BC2FC" opacity="1" d="M51.6801 63.46C48.9 68.6301 48.31 74.1 49.97 79.77C50.6301 82.01 51.5801 84.02 52.82 85.82C57.9801 84 62.92 81.72 67.5801 79.01C66.2901 70.65 68.0401 62.26 72.96 53.8C64.8901 51.36 56.05 55.3301 51.6801 63.46ZM90.25 48.9901C80.69 53.86 76.05 63.67 76.1 73.3901C76.7023 72.9409 77.2988 72.484 77.8895 72.0198C78.4801 71.5553 79.0648 71.0834 79.6435 70.6041C80.2221 70.1248 80.7945 69.6383 81.3607 69.1444C81.9271 68.6504 82.4869 68.1495 83.0404 67.6414C83.5939 67.1332 84.1408 66.6182 84.681 66.0961C85.2215 65.574 85.7551 65.0451 86.2818 64.5094C86.8088 63.9737 87.3289 63.4314 87.8418 62.8825C88.3549 62.3335 88.8609 61.7781 89.3598 61.2163C89.8586 60.6544 90.3502 60.0863 90.8346 59.512C91.3191 58.9376 91.7963 58.3572 92.2658 57.7707C92.7353 57.1841 93.1975 56.5917 93.6519 55.9934C94.1066 55.3952 94.5533 54.7913 94.9924 54.1815C95.4316 53.5719 95.8629 52.9567 96.2863 52.336C96.7098 51.7153 97.1252 51.0893 97.5326 50.458C97.9402 49.8268 98.3396 49.1905 98.7309 48.5491C99.1223 47.9075 99.5053 47.2612 99.8801 46.61C96.5699 46.6801 93.2699 47.45 90.25 48.9901Z"></path></g></g><defs><rect id="path_0" x="0" y="0" width="200" height="200" rx="0" ry="0"/></defs></svg>