<svg xmlns="http://www.w3.org/2000/svg" xmlns:xlink="http://www.w3.org/1999/xlink" width="200" height="200" viewBox="0 0 200 200" fill="none"><g opacity="1"  transform="translate(0 0)"><mask id="bg-mask-0" fill="white"><use transform="translate(0 0)" xlink:href="#path_0"></use></mask><g mask="url(#bg-mask-0)" ><path id="路径 1" fill-rule="evenodd" style="fill:#FFE3DB" opacity="0" d="M10.46 100.22C10.46 101.661 10.4953 103.101 10.566 104.541C10.6368 105.98 10.7427 107.416 10.884 108.85C11.0252 110.284 11.2016 111.714 11.413 113.14C11.6244 114.565 11.8707 115.984 12.1518 117.398C12.433 118.811 12.7486 120.216 13.0987 121.615C13.4489 123.012 13.8331 124.401 14.2514 125.78C14.6697 127.158 15.1216 128.526 15.607 129.883C16.0925 131.24 16.6109 132.584 17.1624 133.915C17.7138 135.247 18.2976 136.564 18.9137 137.866C19.5298 139.169 20.1775 140.456 20.8568 141.727C21.5361 142.997 22.2461 144.251 22.9869 145.487C23.7278 146.723 24.4985 147.94 25.299 149.138C26.0997 150.336 26.9292 151.514 27.7875 152.671C28.6459 153.829 29.5323 154.964 30.4465 156.078C31.3606 157.192 32.3014 158.283 33.2694 159.351C34.2369 160.418 35.2303 161.462 36.2492 162.481C37.2682 163.5 38.3116 164.493 39.3793 165.461C40.4469 166.428 41.5377 167.369 42.6518 168.284C43.7655 169.198 44.9012 170.084 46.0586 170.942C47.216 171.801 48.3938 172.63 49.592 173.431C50.7901 174.232 52.0073 175.002 53.2432 175.743C54.4791 176.484 55.7326 177.194 57.0035 177.873C58.2743 178.552 59.561 179.2 60.8637 179.816C62.1664 180.432 63.4834 181.016 64.8147 181.568C66.1459 182.119 67.4901 182.637 68.8469 183.123C70.2035 183.608 71.5715 184.06 72.9504 184.479C74.3293 184.897 75.7178 185.281 77.1157 185.631C78.5133 185.981 79.919 186.297 81.3323 186.578C82.7455 186.859 84.1651 187.106 85.5905 187.317C87.0159 187.528 88.4455 187.705 89.8797 187.846C91.3137 187.987 92.7502 188.093 94.1897 188.164C95.6287 188.235 97.069 188.27 98.51 188.27C99.951 188.27 101.391 188.235 102.83 188.164C104.27 188.093 105.706 187.987 107.14 187.846C108.574 187.705 110.004 187.528 111.43 187.317C112.855 187.106 114.274 186.859 115.688 186.578C117.101 186.297 118.506 185.981 119.904 185.631C121.302 185.281 122.691 184.897 124.07 184.479C125.448 184.06 126.816 183.608 128.173 183.123C129.53 182.637 130.874 182.119 132.205 181.568C133.537 181.016 134.854 180.432 136.156 179.816C137.459 179.2 138.746 178.552 140.016 177.873C141.287 177.194 142.541 176.484 143.777 175.743C145.013 175.002 146.23 174.232 147.428 173.431C148.626 172.63 149.804 171.801 150.961 170.942C152.119 170.084 153.254 169.198 154.368 168.284C155.482 167.369 156.573 166.428 157.641 165.461C158.708 164.493 159.752 163.5 160.771 162.481C161.79 161.462 162.783 160.418 163.751 159.351C164.718 158.283 165.659 157.192 166.574 156.078C167.488 154.964 168.374 153.829 169.232 152.671C170.091 151.514 170.92 150.336 171.721 149.138C172.522 147.94 173.292 146.723 174.033 145.487C174.774 144.251 175.484 142.997 176.163 141.727C176.842 140.456 177.49 139.169 178.106 137.866C178.722 136.564 179.306 135.247 179.858 133.915C180.409 132.584 180.928 131.24 181.413 129.883C181.898 128.526 182.35 127.158 182.769 125.78C183.187 124.401 183.571 123.012 183.921 121.615C184.271 120.216 184.587 118.811 184.868 117.398C185.149 115.984 185.396 114.565 185.607 113.14C185.819 111.714 185.995 110.284 186.136 108.85C186.277 107.416 186.383 105.98 186.454 104.541C186.525 103.101 186.56 101.661 186.56 100.22C186.56 98.779 186.525 97.3387 186.454 95.8997C186.383 94.4602 186.277 93.0237 186.136 91.5897C185.995 90.1555 185.819 88.7259 185.607 87.3005C185.396 85.8751 185.149 84.4557 184.868 83.0425C184.587 81.629 184.271 80.2233 183.921 78.8257C183.571 77.4278 183.187 76.0393 182.769 74.6604C182.35 73.2815 181.898 71.9136 181.413 70.5569C180.928 69.2001 180.409 67.8561 179.858 66.5249C179.306 65.1934 178.722 63.8764 178.106 62.5739C177.49 61.2712 176.842 59.9843 176.163 58.7136C175.484 57.4427 174.774 56.1893 174.033 54.9534C173.292 53.7173 172.522 52.5001 171.721 51.302C170.92 50.104 170.091 48.9262 169.232 47.7688C168.374 46.6114 167.488 45.4757 166.574 44.3618C165.659 43.2477 164.718 42.1569 163.751 41.0893C162.783 40.0216 161.79 38.9782 160.771 37.9593C159.752 36.9403 158.708 35.947 157.641 34.9794C156.573 34.0116 155.482 33.0706 154.368 32.1565C153.254 31.2422 152.119 30.356 150.961 29.4977C149.804 28.6392 148.626 27.8097 147.428 27.0092C146.23 26.2085 145.013 25.4378 143.777 24.6971C142.541 23.9562 141.287 23.2461 140.016 22.5668C138.746 21.8875 137.459 21.2398 136.156 20.6238C134.854 20.0077 133.537 19.4239 132.205 18.8724C130.874 18.321 129.53 17.8025 128.173 17.317C126.816 16.8316 125.448 16.3797 124.07 15.9614C122.691 15.5431 121.302 15.1589 119.904 14.8087C118.506 14.4586 117.101 14.143 115.688 13.8619C114.274 13.5807 112.855 13.3345 111.43 13.123C110.004 12.9116 108.574 12.7352 107.14 12.594C105.706 12.4527 104.27 12.3468 102.83 12.2761C101.391 12.2054 99.951 12.17 98.51 12.17C97.069 12.17 95.6287 12.2054 94.1897 12.2761C92.7502 12.3468 91.3137 12.4527 89.8797 12.594C88.4455 12.7352 87.0159 12.9116 85.5905 13.123C84.1651 13.3345 82.7455 13.5807 81.3323 13.8619C79.919 14.143 78.5133 14.4586 77.1157 14.8087C75.7178 15.1589 74.3293 15.5431 72.9504 15.9614C71.5715 16.3797 70.2035 16.8316 68.8469 17.317C67.4901 17.8025 66.1459 18.321 64.8147 18.8724C63.4834 19.4239 62.1664 20.0077 60.8637 20.6238C59.561 21.2398 58.2743 21.8875 57.0035 22.5668C55.7326 23.2461 54.4791 23.9562 53.2432 24.6971C52.0073 25.4378 50.7901 26.2085 49.592 27.0092C48.3938 27.8097 47.216 28.6392 46.0586 29.4977C44.9012 30.356 43.7655 31.2422 42.6518 32.1565C41.5377 33.0706 40.4469 34.0116 39.3793 34.9794C38.3116 35.947 37.2682 36.9403 36.2492 37.9593C35.2303 38.9782 34.2369 40.0216 33.2694 41.0893C32.3014 42.1569 31.3606 43.2477 30.4465 44.3618C29.5323 45.4757 28.6459 46.6114 27.7875 47.7688C26.9292 48.9262 26.0997 50.104 25.299 51.302C24.4985 52.5001 23.7278 53.7173 22.9869 54.9534C22.2461 56.1893 21.5361 57.4427 20.8568 58.7136C20.1775 59.9843 19.5298 61.2712 18.9137 62.5739C18.2976 63.8764 17.7138 65.1934 17.1624 66.5249C16.6109 67.8561 16.0925 69.2001 15.607 70.5569C15.1216 71.9136 14.6697 73.2815 14.2514 74.6604C13.8331 76.0393 13.4489 77.4278 13.0987 78.8257C12.7486 80.2233 12.433 81.629 12.1518 83.0425C11.8707 84.4557 11.6244 85.8751 11.413 87.3005C11.2016 88.7259 11.0252 90.1555 10.884 91.5897C10.7427 93.0237 10.6368 94.4602 10.566 95.8997C10.4953 97.3387 10.46 98.779 10.46 100.22Z"></path><path id="路径 2" fill-rule="evenodd" style="fill:#FA8C16" opacity="1" d="M152.04 105.77L139.43 92.6301C139.37 92.5675 139.308 92.5063 139.245 92.4467C139.182 92.3871 139.118 92.329 139.052 92.2725C138.986 92.2161 138.918 92.1613 138.85 92.108C138.781 92.0549 138.711 92.0035 138.64 91.9537C138.569 91.904 138.497 91.8561 138.423 91.81C138.35 91.7638 138.275 91.7194 138.2 91.6768C138.124 91.6343 138.047 91.5937 137.969 91.5549C137.892 91.5162 137.813 91.4794 137.734 91.4444C137.654 91.4095 137.574 91.3766 137.493 91.3457C137.412 91.3147 137.33 91.2858 137.247 91.2588C137.165 91.2319 137.082 91.2069 136.998 91.184C136.914 91.1612 136.83 91.1405 136.745 91.1217C136.661 91.103 136.576 91.0863 136.49 91.0717C136.404 91.0571 136.319 91.0447 136.232 91.0344C136.146 91.024 136.06 91.0158 135.973 91.0098C135.887 91.0037 135.8 90.9996 135.713 90.9977C135.626 90.9959 135.54 90.9962 135.453 90.9987C135.366 91.001 135.279 91.0055 135.193 91.0121C135.106 91.0188 135.02 91.0276 134.934 91.0385C134.848 91.0494 134.762 91.0625 134.676 91.0776C134.591 91.0927 134.506 91.1099 134.421 91.1291C134.337 91.1484 134.252 91.1698 134.169 91.1932C134.085 91.2165 134.002 91.2419 133.92 91.2694C133.838 91.2968 133.756 91.3263 133.675 91.3578C133.594 91.3894 133.514 91.4228 133.435 91.4582C133.356 91.4937 133.277 91.531 133.2 91.5701C133.122 91.6095 133.046 91.6506 132.971 91.6936C132.895 91.7366 132.821 91.7813 132.748 91.828C132.675 91.8747 132.603 91.9231 132.532 91.9733C132.461 92.0235 132.391 92.0754 132.323 92.1289C132.255 92.1826 132.188 92.2379 132.122 92.2948C132.057 92.3515 131.993 92.4099 131.93 92.47C131.867 92.5301 131.806 92.5918 131.747 92.6549C131.687 92.7181 131.63 92.7826 131.573 92.8487C131.517 92.9147 131.462 92.982 131.409 93.0506C131.356 93.1194 131.305 93.1893 131.255 93.2604C131.206 93.3316 131.158 93.4039 131.112 93.4774C131.066 93.5509 131.021 93.6255 130.979 93.7012C130.936 93.777 130.896 93.8537 130.857 93.9313C130.819 94.009 130.782 94.0876 130.747 94.167C130.712 94.2465 130.679 94.3267 130.649 94.4078C130.618 94.489 130.589 94.5707 130.562 94.6532C130.535 94.7357 130.51 94.8188 130.487 94.9024C130.464 94.9861 130.444 95.0703 130.425 95.1551C130.406 95.2399 130.39 95.325 130.375 95.4106C130.361 95.4961 130.348 95.5819 130.338 95.668C130.327 95.7542 130.319 95.8405 130.313 95.927C130.307 96.0136 130.303 96.1002 130.301 96.1869C130.3 96.2737 130.3 96.3605 130.302 96.4473C130.305 96.534 130.309 96.6206 130.316 96.7071C130.322 96.7935 130.331 96.8798 130.342 96.9658C130.353 97.0519 130.366 97.1377 130.381 97.2233C130.396 97.3087 130.413 97.3937 130.432 97.4783C130.452 97.5629 130.473 97.6469 130.496 97.7305C130.519 97.8141 130.545 97.897 130.572 97.9793C130.6 98.0616 130.629 98.1432 130.66 98.224C130.692 98.305 130.725 98.3851 130.76 98.4643C130.796 98.5436 130.833 98.622 130.872 98.6994C130.911 98.7768 130.952 98.8531 130.995 98.9285C131.038 99.0041 131.083 99.0784 131.129 99.1516C131.176 99.2248 131.224 99.2968 131.274 99.3678C131.324 99.4386 131.376 99.5082 131.43 99.5764C131.483 99.6448 131.538 99.7117 131.595 99.7774C131.652 99.843 131.71 99.9072 131.77 99.9699L137.05 105.47L104.05 105.47C101.12 105.47 98.74 107.85 98.74 110.78C98.74 113.71 101.12 116.09 104.05 116.09L137.45 116.09L132.98 120.98C132.921 121.044 132.864 121.11 132.809 121.176C132.753 121.243 132.7 121.312 132.648 121.381C132.595 121.451 132.545 121.521 132.496 121.593C132.448 121.665 132.401 121.739 132.356 121.813C132.311 121.887 132.268 121.963 132.227 122.039C132.185 122.115 132.146 122.193 132.108 122.271C132.071 122.349 132.035 122.429 132.002 122.509C131.968 122.589 131.936 122.67 131.906 122.751C131.877 122.833 131.849 122.915 131.824 122.998C131.798 123.081 131.774 123.165 131.753 123.249C131.731 123.333 131.712 123.418 131.694 123.503C131.677 123.588 131.662 123.673 131.649 123.759C131.635 123.845 131.624 123.931 131.615 124.018C131.606 124.104 131.6 124.191 131.595 124.277C131.59 124.364 131.588 124.451 131.587 124.538C131.587 124.625 131.589 124.712 131.592 124.798C131.596 124.885 131.602 124.972 131.61 125.058C131.618 125.145 131.628 125.231 131.641 125.317C131.653 125.403 131.667 125.489 131.684 125.574C131.701 125.659 131.719 125.744 131.74 125.828C131.76 125.913 131.783 125.997 131.808 126.08C131.833 126.163 131.86 126.246 131.888 126.328C131.917 126.41 131.948 126.491 131.981 126.571C132.014 126.652 132.048 126.731 132.085 126.81C132.122 126.889 132.16 126.966 132.201 127.043C132.242 127.12 132.284 127.196 132.328 127.271C132.373 127.345 132.419 127.419 132.466 127.491C132.514 127.564 132.564 127.635 132.615 127.705C132.667 127.775 132.72 127.844 132.775 127.912C132.829 127.979 132.885 128.045 132.944 128.11C133.002 128.174 133.061 128.238 133.122 128.299C133.183 128.361 133.246 128.421 133.31 128.48C134.33 129.41 135.61 129.87 136.89 129.87C138.33 129.87 139.76 129.29 140.81 128.14L152.15 115.74C154.75 112.9 154.69 108.53 152.04 105.77Z"></path><path id="路径 3" fill-rule="evenodd" style="fill:#FA8C16" opacity="1" d="M153.49 125.39L146.35 133.19C146.275 133.272 146.199 133.352 146.123 133.432C146.046 133.512 145.968 133.591 145.889 133.668C145.81 133.746 145.73 133.823 145.649 133.898C145.569 133.974 145.487 134.048 145.404 134.122C145.321 134.195 145.237 134.268 145.153 134.339C145.068 134.41 144.982 134.48 144.896 134.549C144.809 134.618 144.722 134.686 144.634 134.753C144.546 134.82 144.456 134.886 144.366 134.95C144.276 135.015 144.186 135.078 144.094 135.14C144.002 135.203 143.91 135.264 143.817 135.323C143.724 135.383 143.63 135.441 143.535 135.499C143.44 135.556 143.345 135.612 143.249 135.667C143.152 135.722 143.055 135.775 142.958 135.828C142.861 135.88 142.762 135.931 142.663 135.981C142.564 136.031 142.465 136.079 142.365 136.127C142.265 136.174 142.164 136.22 142.063 136.264C141.961 136.309 141.86 136.352 141.757 136.394C141.654 136.436 141.552 136.477 141.448 136.516C141.345 136.555 141.241 136.593 141.136 136.63C141.032 136.666 140.927 136.702 140.821 136.736C140.716 136.769 140.61 136.802 140.504 136.833C140.398 136.864 140.291 136.894 140.184 136.922C140.077 136.951 139.97 136.978 139.862 137.003C139.754 137.029 139.646 137.053 139.538 137.076C139.43 137.099 139.321 137.12 139.212 137.14C139.103 137.16 138.994 137.179 138.885 137.196C138.775 137.213 138.666 137.229 138.556 137.243C138.446 137.257 138.336 137.27 138.226 137.281C138.116 137.293 138.006 137.303 137.895 137.311C137.785 137.32 137.674 137.327 137.564 137.333C137.453 137.339 137.343 137.343 137.232 137.346C137.121 137.349 137.011 137.35 136.9 137.35C133.69 137.35 130.62 136.16 128.26 133.99C125.74 131.68 124.26 128.53 124.11 125.11C124.09 124.59 124.09 124.08 124.13 123.57L104.06 123.57C97 123.57 91.25 117.83 91.25 110.76C91.25 103.69 97 97.97 104.06 97.97L122.92 97.97C122.71 96.36 122.82 94.72 123.22 93.1401C122.26 92.71 121.29 92.31 120.3 91.9401C127.04 86.2401 131.33 77.7302 131.33 68.2302C131.33 51.11 117.4 37.17 100.27 37.17C83.14 37.17 69.2199 51.1001 69.2199 68.2302C69.2199 77.7302 73.51 86.2401 80.25 91.9401C79.4 92.2608 78.5582 92.6018 77.7246 92.9632C76.891 93.3247 76.0666 93.7059 75.2516 94.1069C74.4363 94.5079 73.6313 94.9284 72.8363 95.3682C72.0414 95.8081 71.2574 96.2669 70.4846 96.7444C69.7117 97.222 68.951 97.718 68.202 98.2323C67.4529 98.7466 66.7168 99.2786 65.9936 99.8284C65.2703 100.378 64.5606 100.945 63.8647 101.529C63.1686 102.113 62.487 102.713 61.8199 103.33C51.3801 112.97 44.9801 126.05 43.7901 140.16C43.76 140.5 43.75 140.84 43.76 141.18C43.7901 143.48 44.67 145.72 46.25 147.42C46.3604 147.539 46.4739 147.656 46.5903 147.769C46.7067 147.883 46.8259 147.994 46.9481 148.101C47.0702 148.208 47.195 148.313 47.3225 148.414C47.45 148.515 47.58 148.612 47.7125 148.706C47.8451 148.801 47.98 148.891 48.1172 148.979C48.2543 149.066 48.3936 149.15 48.5352 149.23C48.6767 149.31 48.8202 149.387 48.9657 149.459C49.1111 149.532 49.2583 149.601 49.4073 149.666C49.5563 149.732 49.7069 149.793 49.859 149.85C50.0112 149.908 50.1648 149.961 50.3198 150.011C50.4747 150.06 50.6307 150.106 50.7879 150.147C50.9452 150.189 51.1035 150.226 51.2627 150.259C51.4218 150.293 51.5817 150.322 51.7424 150.347C51.9031 150.372 52.0643 150.393 52.2262 150.41C52.3879 150.426 52.55 150.439 52.7125 150.447C52.8749 150.456 53.0374 150.46 53.2 150.46L53.21 150.46C66.0801 150.44 78.4801 150.35 90.46 150.25C93.79 150.22 97.05 150.2 100.25 150.18C103.46 150.2 106.73 150.23 110.09 150.25C122.08 150.34 134.47 150.44 147.35 150.46L147.36 150.46C149.99 150.46 152.53 149.35 154.31 147.41C154.407 147.305 154.501 147.197 154.593 147.087C154.685 146.977 154.774 146.866 154.861 146.752C154.947 146.638 155.031 146.522 155.113 146.405C155.194 146.287 155.273 146.168 155.349 146.047C155.425 145.925 155.499 145.802 155.569 145.678C155.64 145.553 155.708 145.427 155.772 145.3C155.837 145.172 155.899 145.043 155.958 144.913C156.017 144.783 156.073 144.651 156.126 144.518C156.179 144.385 156.229 144.251 156.276 144.116C156.323 143.981 156.367 143.845 156.408 143.707C156.449 143.57 156.486 143.432 156.521 143.293C156.555 143.154 156.587 143.015 156.615 142.875C156.643 142.734 156.668 142.593 156.69 142.452C156.712 142.311 156.731 142.169 156.746 142.026C156.762 141.884 156.774 141.742 156.783 141.599C156.792 141.456 156.797 141.313 156.8 141.17C156.81 140.83 156.8 140.48 156.77 140.14C156.663 138.881 156.513 137.627 156.322 136.378C156.131 135.13 155.898 133.889 155.624 132.655C155.35 131.422 155.035 130.199 154.679 128.987C154.322 127.775 153.926 126.576 153.49 125.39Z"></path><path id="路径 4" fill-rule="evenodd" style="fill:#FAAD14" opacity="1" d="M128.6 134.29C128.49 134.19 128.37 134.1 128.26 134C125.74 131.69 124.26 128.54 124.11 125.12C124.09 124.6 124.09 124.09 124.13 123.58L104.06 123.58C97 123.58 91.25 117.84 91.25 110.77C91.25 103.7 97 97.97 104.06 97.97L122.92 97.97C122.71 96.36 122.82 94.72 123.22 93.1401C122.26 92.71 121.29 92.31 120.3 91.9401C127.04 86.2401 131.33 77.7301 131.33 68.2301C131.33 51.11 117.4 37.17 100.27 37.17C83.14 37.17 69.2199 51.1001 69.2199 68.2301C69.2199 77.7301 73.51 86.2401 80.25 91.9401C79.4 92.2608 78.5582 92.6018 77.7246 92.9632C76.891 93.3247 76.0666 93.7059 75.2516 94.1069C74.4363 94.5079 73.6313 94.9284 72.8363 95.3682C72.0414 95.8081 71.2574 96.2669 70.4846 96.7444C69.7117 97.2219 68.951 97.718 68.202 98.2323C67.4529 98.7466 66.7168 99.2786 65.9936 99.8284C65.2703 100.378 64.5606 100.945 63.8647 101.529C63.1686 102.113 62.487 102.713 61.8199 103.33C51.3801 112.97 44.9801 126.05 43.7901 140.16C43.76 140.5 43.75 140.84 43.76 141.18C43.7901 143.48 44.67 145.72 46.25 147.42C46.3604 147.539 46.4739 147.656 46.5903 147.769C46.7067 147.883 46.8259 147.994 46.9481 148.101C47.0702 148.208 47.195 148.313 47.3225 148.414C47.45 148.515 47.58 148.612 47.7125 148.706C47.8451 148.801 47.98 148.891 48.1172 148.979C48.2543 149.066 48.3936 149.15 48.5352 149.23C48.6767 149.31 48.8202 149.387 48.9657 149.459C49.1111 149.532 49.2583 149.601 49.4073 149.666C49.5563 149.732 49.7069 149.793 49.859 149.85C50.0112 149.908 50.1648 149.961 50.3198 150.011C50.4747 150.06 50.6307 150.106 50.7879 150.147C50.9452 150.189 51.1035 150.226 51.2627 150.259C51.4218 150.293 51.5817 150.322 51.7424 150.347C51.9031 150.372 52.0643 150.393 52.2262 150.41C52.3879 150.426 52.55 150.439 52.7125 150.447C52.8749 150.456 53.0374 150.46 53.2 150.46L53.21 150.46C66.0801 150.44 78.4801 150.35 90.46 150.25C93.79 150.22 97.05 150.2 100.25 150.18C103.46 150.2 106.73 150.23 110.09 150.25L110.2 150.25C111.054 149.696 111.899 149.128 112.734 148.544C113.568 147.961 114.392 147.363 115.206 146.751C116.02 146.139 116.823 145.513 117.615 144.873C118.407 144.233 119.188 143.579 119.957 142.912C120.726 142.245 121.483 141.564 122.229 140.871C122.974 140.177 123.708 139.471 124.429 138.752C125.15 138.033 125.858 137.301 126.553 136.557C127.249 135.813 127.931 135.058 128.6 134.29Z"></path><path id="路径 5" fill-rule="evenodd" style="fill:#FAAD14" opacity="1" d="M139.44 92.6301C139.38 92.5673 139.319 92.5061 139.256 92.4463C139.192 92.3865 139.128 92.3283 139.062 92.2717C138.996 92.2152 138.929 92.1602 138.86 92.1068C138.792 92.0536 138.722 92.0021 138.651 91.9523C138.58 91.9025 138.507 91.8544 138.434 91.808C138.361 91.7618 138.286 91.7173 138.21 91.6746C138.135 91.632 138.058 91.5913 137.98 91.5525C137.903 91.5136 137.824 91.4767 137.745 91.4418C137.665 91.4068 137.585 91.3738 137.504 91.3428C137.423 91.3117 137.341 91.2826 137.258 91.2557C137.176 91.2286 137.093 91.2036 137.009 91.1807C136.925 91.1578 136.841 91.1369 136.756 91.1182C136.671 91.0994 136.586 91.0827 136.5 91.0682C136.415 91.0536 136.329 91.0411 136.243 91.0307C136.156 91.0203 136.07 91.012 135.983 91.0059C135.897 90.9997 135.81 90.9958 135.723 90.9939C135.636 90.9921 135.55 90.9925 135.463 90.9949C135.376 90.9973 135.289 91.0018 135.203 91.0084C135.116 91.0152 135.03 91.024 134.944 91.035C134.857 91.0459 134.772 91.0589 134.686 91.074C134.601 91.0891 134.515 91.1064 134.431 91.1258C134.346 91.1451 134.262 91.1664 134.178 91.1898C134.095 91.2134 134.012 91.2389 133.93 91.2664C133.847 91.294 133.765 91.3236 133.685 91.3551C133.604 91.3867 133.524 91.4202 133.444 91.4557C133.365 91.4912 133.287 91.5287 133.209 91.568C133.132 91.6073 133.056 91.6485 132.98 91.6916C132.905 91.7348 132.831 91.7798 132.757 91.8266C132.684 91.8733 132.612 91.9218 132.541 91.9721C132.471 92.0225 132.401 92.0745 132.333 92.1281C132.265 92.1819 132.198 92.2373 132.132 92.2943C132.067 92.3512 132.003 92.4098 131.94 92.4699C131.878 92.5301 131.817 92.5917 131.757 92.6549C131.698 92.718 131.64 92.7826 131.583 92.8486C131.527 92.9146 131.472 92.982 131.419 93.0506C131.366 93.1193 131.315 93.1893 131.265 93.2604C131.216 93.3316 131.168 93.4039 131.122 93.4773C131.076 93.5509 131.031 93.6255 130.989 93.7012C130.947 93.7769 130.906 93.8537 130.867 93.9313C130.829 94.009 130.792 94.0876 130.757 94.167C130.722 94.2464 130.689 94.3267 130.659 94.4078C130.628 94.4889 130.599 94.5707 130.572 94.6531C130.545 94.7357 130.52 94.8187 130.497 94.9023C130.474 94.9861 130.454 95.0703 130.435 95.1551C130.416 95.2398 130.4 95.325 130.385 95.4106C130.371 95.4961 130.358 95.5819 130.348 95.668C130.338 95.7542 130.33 95.8405 130.323 95.9269C130.317 96.0135 130.313 96.1002 130.312 96.1869C130.31 96.2736 130.31 96.3604 130.312 96.4473C130.315 96.534 130.319 96.6206 130.326 96.707C130.332 96.7935 130.341 96.8798 130.352 96.9658C130.363 97.0519 130.376 97.1377 130.391 97.2232C130.406 97.3087 130.423 97.3937 130.442 97.4783C130.462 97.5628 130.483 97.6469 130.506 97.7305C130.53 97.8141 130.555 97.897 130.582 97.9793C130.61 98.0616 130.639 98.1432 130.671 98.2242C130.702 98.3051 130.735 98.3851 130.771 98.4643C130.806 98.5435 130.843 98.6219 130.882 98.6994C130.922 98.7768 130.963 98.8531 131.006 98.9285C131.048 99.004 131.093 99.0784 131.139 99.1516C131.186 99.2247 131.234 99.2968 131.284 99.3678C131.335 99.4386 131.386 99.5081 131.44 99.5764C131.493 99.6447 131.548 99.7117 131.605 99.7773C131.662 99.843 131.72 99.9072 131.78 99.9699L137.06 105.47L104.07 105.47C101.14 105.47 98.76 107.85 98.76 110.78C98.76 113.71 101.14 116.09 104.07 116.09L137.47 116.09L133 120.98C132.942 121.044 132.885 121.109 132.83 121.175C132.775 121.241 132.721 121.309 132.669 121.378C132.618 121.447 132.567 121.518 132.519 121.589C132.471 121.66 132.424 121.733 132.379 121.807C132.334 121.88 132.291 121.955 132.25 122.031C132.209 122.107 132.17 122.184 132.132 122.262C132.095 122.339 132.059 122.418 132.026 122.498C131.992 122.577 131.96 122.657 131.931 122.738C131.901 122.82 131.873 122.901 131.848 122.984C131.822 123.066 131.798 123.149 131.777 123.233C131.755 123.316 131.736 123.4 131.718 123.485C131.701 123.569 131.685 123.654 131.672 123.74C131.658 123.825 131.647 123.91 131.638 123.996C131.629 124.082 131.622 124.168 131.617 124.254C131.612 124.34 131.609 124.427 131.608 124.513C131.607 124.599 131.609 124.686 131.612 124.772C131.616 124.858 131.621 124.944 131.629 125.03C131.637 125.116 131.647 125.202 131.658 125.287C131.67 125.373 131.684 125.458 131.7 125.543C131.716 125.628 131.734 125.712 131.755 125.796C131.775 125.88 131.797 125.963 131.821 126.046C131.845 126.129 131.872 126.211 131.9 126.293C131.928 126.374 131.958 126.455 131.99 126.535C132.023 126.615 132.057 126.695 132.093 126.773C132.129 126.851 132.167 126.929 132.207 127.005C132.247 127.082 132.289 127.158 132.332 127.232C132.376 127.307 132.421 127.38 132.468 127.452C132.515 127.525 132.564 127.596 132.615 127.666C132.665 127.736 132.718 127.804 132.772 127.872C132.826 127.939 132.881 128.005 132.939 128.07C132.996 128.134 133.054 128.197 133.115 128.259C133.175 128.321 133.237 128.381 133.3 128.44C134.072 127.389 134.82 126.321 135.545 125.237C136.269 124.152 136.969 123.052 137.644 121.937C138.319 120.821 138.969 119.691 139.594 118.546C140.219 117.402 140.818 116.244 141.391 115.072C141.964 113.901 142.511 112.717 143.031 111.521C143.552 110.325 144.045 109.119 144.511 107.901C144.978 106.683 145.417 105.455 145.829 104.218C146.24 102.981 146.624 101.735 146.98 100.48L139.44 92.6301Z"></path><path id="路径 6" fill-rule="evenodd" style="fill:#FFC53D" opacity="1" d="M91.93 114.87C91.4999 113.58 91.2499 112.21 91.2499 110.78C91.2499 103.72 96.99 97.97 104.06 97.97L108.61 97.97C108.929 97.546 109.244 97.1192 109.555 96.6895C109.866 96.2596 110.173 95.8272 110.476 95.3919C110.78 94.9565 111.079 94.5186 111.374 94.0778C111.669 93.637 111.961 93.1936 112.248 92.7475C112.535 92.3014 112.818 91.8528 113.097 91.4016C113.376 90.9505 113.651 90.4968 113.922 90.0405C114.193 89.5844 114.46 89.1259 114.722 88.6647C114.985 88.2036 115.243 87.7403 115.497 87.2745C115.751 86.8089 116.001 86.3409 116.246 85.8706C116.492 85.4003 116.733 84.9278 116.97 84.4532C117.207 83.9786 117.44 83.5018 117.668 83.0229C117.897 82.544 118.12 82.0632 118.34 81.5802C118.56 81.0971 118.775 80.6124 118.986 80.1255C119.196 79.6385 119.403 79.1499 119.605 78.6593C119.807 78.1686 120.004 77.6762 120.197 77.1821C120.39 76.6878 120.578 76.1919 120.762 75.6944C120.946 75.1968 121.126 74.6975 121.301 74.1966C121.475 73.6956 121.646 73.1932 121.811 72.6893C121.977 72.1852 122.138 71.6798 122.295 71.1729C122.451 70.6661 122.603 70.1577 122.751 69.6481C122.898 69.1385 123.041 68.6276 123.179 68.1153C123.317 67.603 123.45 67.0895 123.579 66.5749C123.708 66.0602 123.832 65.5444 123.951 65.0274C124.07 64.5104 124.185 63.9925 124.295 63.4735C124.405 62.9546 124.51 62.4346 124.61 61.9137C124.711 61.3928 124.807 60.871 124.898 60.3483C124.989 59.8257 125.075 59.3022 125.156 58.778C125.238 58.2538 125.314 57.7288 125.386 57.2032C125.459 56.6776 125.526 56.1513 125.588 55.6245C125.65 55.0977 125.708 54.5703 125.761 54.0425C125.814 53.5145 125.862 52.9862 125.905 52.4575C125.948 51.9287 125.986 51.3995 126.02 50.87C120.43 42.61 110.98 37.17 100.28 37.17C83.1499 37.17 69.2198 51.1001 69.2198 68.2302C69.2198 77.7302 73.5099 86.2401 80.2499 91.9401C79.3999 92.2608 78.5581 92.6018 77.7245 92.9634C76.8909 93.3247 76.0665 93.7059 75.2515 94.1069C74.4363 94.5079 73.6312 94.9284 72.8363 95.3682C72.0413 95.8081 71.2573 96.2669 70.4845 96.7444C69.7116 97.222 68.9509 97.718 68.2019 98.2323C67.4529 98.7466 66.7167 99.2786 65.9935 99.8284C65.2702 100.378 64.5605 100.945 63.8646 101.529C63.1686 102.113 62.487 102.713 61.8198 103.33C61.5545 103.575 61.2914 103.822 61.0306 104.072C60.7699 104.322 60.5116 104.574 60.2556 104.829C59.9997 105.083 59.7463 105.341 59.4952 105.6C59.2443 105.86 58.9959 106.122 58.7499 106.386C58.504 106.65 58.2605 106.917 58.0197 107.186C57.7788 107.455 57.5405 107.726 57.3048 108C57.0691 108.274 56.8361 108.549 56.6058 108.827C56.3755 109.105 56.1478 109.386 55.9228 109.668C55.6978 109.95 55.4755 110.235 55.256 110.522C55.0363 110.808 54.8195 111.097 54.6056 111.388C54.3915 111.679 54.1803 111.971 53.9718 112.266C53.7635 112.561 53.5579 112.858 53.3552 113.157C53.1525 113.455 52.9526 113.756 52.7556 114.059C52.5586 114.361 52.3646 114.666 52.1736 114.972C51.9824 115.279 51.7942 115.587 51.6089 115.897C51.4238 116.207 51.2415 116.518 51.0622 116.832C50.8829 117.145 50.7067 117.46 50.5335 117.777C50.3602 118.094 50.19 118.412 50.023 118.732C49.8559 119.053 49.6919 119.374 49.5308 119.697C49.3699 120.021 49.212 120.345 49.0574 120.672C48.9025 120.998 48.7509 121.325 48.6025 121.655C48.454 121.984 48.3088 122.314 48.1667 122.646C48.0245 122.978 47.8856 123.311 47.7499 123.646C47.6141 123.981 47.4816 124.316 47.3523 124.654C47.223 124.991 47.0969 125.329 46.9741 125.669C46.8512 126.008 46.7316 126.349 46.6154 126.691C46.4991 127.033 46.3861 127.375 46.2763 127.719C46.1667 128.063 46.0603 128.408 45.9572 128.754C45.854 129.1 45.7542 129.448 45.6577 129.795C45.5613 130.143 45.4681 130.492 45.3783 130.842C45.2885 131.192 45.2021 131.542 45.1191 131.894C45.036 132.245 44.9563 132.597 44.88 132.95C62.53 131.61 78.7198 125.07 91.93 114.87Z"></path><path id="路径 7" fill-rule="evenodd" style="fill:#FFD666" opacity="1" d="M100.28 37.17C83.1501 37.17 69.22 51.1001 69.22 68.2302C69.22 73.0501 70.3302 77.62 72.3001 81.6901C85.9802 70.3001 96.1501 54.8501 100.96 37.1901C100.73 37.1802 100.51 37.17 100.28 37.17Z"></path></g></g><defs><rect id="path_0" x="0" y="0" width="200" height="200" rx="0" ry="0"/></defs></svg>