<svg xmlns="http://www.w3.org/2000/svg" xmlns:xlink="http://www.w3.org/1999/xlink" width="280" height="74" viewBox="0 0 280 74" fill="none">
<g  clip-path="url(#clip-path-2_2)">
<path d="M23.1926 45.8452C23.0025 45.7363 22.8057 45.6408 22.6023 45.559C22.3989 45.4774 22.1907 45.4104 21.9779 45.3578C21.7651 45.3051 21.5496 45.2676 21.3315 45.2449C21.1134 45.2223 20.8948 45.2149 20.6757 45.2227L10.3963 27.5046C10.3626 27.4457 10.3329 27.3849 10.3071 27.3223C10.2813 27.2596 10.2597 27.1957 10.2423 27.1305C10.2249 27.065 10.2118 26.9987 10.203 26.9316C10.1942 26.8645 10.1898 26.7971 10.1898 26.7293C10.1898 26.6615 10.1942 26.594 10.203 26.527C10.2118 26.4599 10.2249 26.3936 10.2423 26.328C10.2597 26.2628 10.2813 26.1989 10.3071 26.1363C10.3329 26.0736 10.3626 26.0129 10.3963 25.954L11.0867 24.7646L24.2562 1.97778L22.5857 1.97778C22.4551 1.97778 22.3246 1.98204 22.1942 1.99057C22.0639 1.99909 21.934 2.01187 21.8045 2.02892C21.675 2.04597 21.5462 2.06708 21.4181 2.09227C21.2899 2.11785 21.1628 2.14748 21.0366 2.1812C20.9104 2.21491 20.7855 2.25253 20.6618 2.29402C20.5381 2.3359 20.4158 2.38166 20.2951 2.4313C20.1744 2.48132 20.0554 2.53505 19.9382 2.59248C19.821 2.64991 19.7057 2.71104 19.5925 2.77588C19.4793 2.84109 19.3684 2.90982 19.2596 2.98208C19.1508 3.05433 19.0445 3.12991 18.9407 3.20883C18.837 3.28812 18.7358 3.37056 18.6374 3.45615C18.539 3.54174 18.4435 3.63066 18.3509 3.72293C18.2583 3.81481 18.1688 3.90948 18.0824 4.00692C17.996 4.10474 17.9129 4.20533 17.833 4.30871C17.7532 4.41171 17.6768 4.51731 17.6038 4.62551C17.5309 4.7337 17.4616 4.84411 17.3958 4.95675L6.54843 23.7364C6.48332 23.8494 6.42196 23.9644 6.36434 24.0816C6.30676 24.1983 6.25304 24.317 6.20319 24.4378C6.15337 24.5582 6.10752 24.6801 6.06565 24.8035C6.02381 24.9269 5.98604 25.0515 5.95233 25.1775C5.91862 25.3035 5.88907 25.4304 5.86368 25.5582C5.83825 25.6861 5.81703 25.8146 5.80003 25.944C5.78306 26.0733 5.77031 26.2029 5.76178 26.333C5.75327 26.4631 5.74902 26.5933 5.74902 26.7237C5.74902 26.8542 5.75327 26.9844 5.76178 27.1144C5.77031 27.2445 5.78306 27.3741 5.80003 27.5035C5.81703 27.6328 5.83825 27.7613 5.86368 27.8892C5.88907 28.017 5.91862 28.1439 5.95233 28.2699C5.98604 28.3959 6.02381 28.5205 6.06565 28.6439C6.10752 28.7673 6.15337 28.8892 6.20319 29.0096C6.25304 29.1304 6.30676 29.2492 6.36434 29.3659C6.42196 29.483 6.48332 29.598 6.54843 29.711L16.8446 47.4569L16.7833 47.5459C16.7446 47.6122 16.7076 47.6794 16.6722 47.7476C16.6368 47.8158 16.6032 47.8847 16.5712 47.9544C16.5392 48.024 16.509 48.0946 16.4805 48.1661C16.452 48.2372 16.4252 48.3091 16.4003 48.3817C16.3754 48.4544 16.3522 48.5275 16.3308 48.6013C16.3095 48.675 16.2899 48.7491 16.2722 48.8236C16.2545 48.8985 16.2386 48.9736 16.2246 49.0492C16.2106 49.1245 16.1985 49.2 16.1882 49.276C16.1779 49.3523 16.1695 49.4287 16.163 49.505C16.1565 49.5813 16.1518 49.6578 16.149 49.7345C16.1463 49.8112 16.1454 49.8879 16.1464 49.9646C16.1474 50.0417 16.1503 50.1184 16.1551 50.1947C16.1599 50.2714 16.1666 50.3479 16.1752 50.4242C16.1837 50.5005 16.1941 50.5765 16.2064 50.6521C16.2187 50.7277 16.2329 50.8031 16.2489 50.8783C16.2649 50.9535 16.2827 51.0282 16.3024 51.1023C16.3221 51.1764 16.3436 51.2499 16.3669 51.3229C16.3902 51.3963 16.4153 51.4689 16.4422 51.5408C16.4691 51.6126 16.4977 51.6838 16.528 51.7542C16.5584 51.8246 16.5905 51.8943 16.6243 51.9632C16.6581 52.0321 16.6936 52.1003 16.7308 52.1677C16.7679 52.2348 16.8067 52.3009 16.8472 52.3661C16.8876 52.4313 16.9296 52.4956 16.9732 52.559C17.0168 52.622 17.0619 52.684 17.1085 52.7451C17.1552 52.8063 17.2033 52.8661 17.2528 52.9247C17.3024 52.9832 17.3535 53.0406 17.4059 53.097C17.4583 53.1529 17.512 53.2077 17.5671 53.2615C17.6222 53.3148 17.6787 53.3669 17.7363 53.4176C17.794 53.4684 17.8529 53.5177 17.913 53.5655C17.9731 53.6133 18.0343 53.6596 18.0967 53.7044C18.1591 53.7493 18.2225 53.7926 18.2871 53.8345C18.3516 53.8763 18.4171 53.9166 18.4836 53.9551C18.5501 53.9936 18.6175 54.0305 18.6858 54.0657C18.7541 54.1008 18.8233 54.1344 18.8932 54.1663C18.9632 54.1982 19.0339 54.2281 19.1053 54.2563C19.1767 54.2848 19.2489 54.3115 19.3216 54.3363C19.3944 54.3612 19.4676 54.3841 19.5415 54.4052C19.6154 54.4264 19.6898 54.4458 19.7646 54.4636C19.8394 54.4811 19.9147 54.4968 19.9903 54.5108C20.0659 54.5246 20.1418 54.5366 20.218 54.547C20.2942 54.557 20.3706 54.5651 20.4472 54.5714C20.5239 54.5781 20.6006 54.5827 20.6774 54.5853C20.7543 54.5879 20.8311 54.5887 20.908 54.5875C20.9849 54.5864 21.0617 54.5835 21.1384 54.5787C21.2151 54.5738 21.2917 54.567 21.3681 54.5581C21.4445 54.5496 21.5206 54.5392 21.5965 54.527C21.6724 54.5144 21.7479 54.5001 21.8231 54.4842C21.8983 54.4682 21.973 54.4503 22.0473 54.4303C22.1216 54.4106 22.1954 54.3891 22.2686 54.3658C22.3419 54.3424 22.4145 54.3174 22.4865 54.2908C22.5585 54.2637 22.6298 54.235 22.7004 54.2046C22.771 54.1743 22.8407 54.1422 22.9097 54.1085C22.9787 54.0744 23.0469 54.0388 23.1142 54.0018C23.1814 53.9647 23.2477 53.9258 23.3131 53.885C23.3784 53.8446 23.4428 53.8028 23.506 53.7594C23.5693 53.7157 23.6315 53.6705 23.6926 53.6238C23.7536 53.5771 23.8135 53.5292 23.8722 53.4799C23.9309 53.4302 23.9884 53.3793 24.0445 53.327C24.1007 53.2744 24.1556 53.2207 24.2091 53.1659C24.2627 53.1107 24.3148 53.0542 24.3656 52.9964C24.4163 52.9389 24.4657 52.8802 24.5135 52.8202C24.5614 52.7602 24.6078 52.6988 24.6526 52.6362C24.6975 52.574 24.7408 52.5106 24.7825 52.4461C24.8242 52.3817 24.8644 52.3163 24.9029 52.2499C24.9414 52.1836 24.9783 52.1164 25.0135 52.0482C25.0487 51.9801 25.0822 51.9109 25.114 51.8409C25.1458 51.7713 25.1758 51.7007 25.2042 51.6291C25.2325 51.558 25.2591 51.4861 25.2839 51.4135C25.3086 51.3405 25.3316 51.2672 25.3528 51.1934C25.374 51.1197 25.3933 51.0456 25.4109 50.9711C25.4284 50.8962 25.4441 50.821 25.4579 50.7455C25.4717 50.6703 25.4837 50.5945 25.4938 50.5182C25.5039 50.4422 25.5121 50.3659 25.5185 50.2892C25.5248 50.2129 25.5293 50.1363 25.5318 50.0596C25.5344 49.9829 25.5351 49.9062 25.5339 49.8295C25.5327 49.7528 25.5296 49.6761 25.5246 49.5995C25.5197 49.5231 25.5128 49.4468 25.5041 49.3705C25.4953 49.2942 25.4847 49.2182 25.4722 49.1426C25.4598 49.0666 25.4455 48.9913 25.4293 48.9164C25.413 48.8416 25.3951 48.7669 25.3752 48.6924C25.3553 48.6183 25.3336 48.5448 25.3101 48.4718C25.2867 48.3988 25.2614 48.3263 25.2344 48.2545C25.2073 48.1826 25.1785 48.1115 25.1479 48.0411C25.1174 47.9706 25.0851 47.901 25.0512 47.8321C25.0172 47.7636 24.9815 47.6958 24.9442 47.6287C24.9069 47.5613 24.8679 47.4949 24.8274 47.4297C24.7868 47.3648 24.7446 47.3008 24.7009 47.2374C24.6571 47.1744 24.6119 47.1125 24.5651 47.0518C24.5182 46.9906 24.47 46.9308 24.4203 46.8723C24.3706 46.8137 24.3194 46.7565 24.2669 46.7005C24.2143 46.6446 24.1604 46.5899 24.1052 46.5366C24.0499 46.4832 23.9934 46.4311 23.9356 46.3804C23.8778 46.33 23.8188 46.2809 23.7586 46.2331C23.6984 46.1853 23.637 46.1392 23.5745 46.0947C23.512 46.0499 23.4485 46.0067 23.3838 45.9652C23.3192 45.9238 23.2536 45.8837 23.187 45.8452L23.1926 45.8452Z"   fill="#2E73BA" >
</path>
<path d="M59.8053 41.8713C59.7014 41.8717 59.5975 41.8754 59.4935 41.8824C59.3895 41.8895 59.2862 41.9 59.1833 41.9141C59.0802 41.9282 58.9775 41.9456 58.8754 41.9663C58.7737 41.9871 58.6727 42.0114 58.5725 42.0391C58.4719 42.0666 58.3726 42.0973 58.2746 42.1314C58.1762 42.1655 58.0791 42.2029 57.9833 42.2437C57.8876 42.284 57.7933 42.3278 57.7005 42.3748C57.6076 42.4215 57.5165 42.4713 57.427 42.5243C57.3376 42.5773 57.2498 42.6331 57.1637 42.6916C57.0779 42.7505 56.9942 42.8122 56.9125 42.8767C56.8308 42.9408 56.7514 43.0077 56.6742 43.0773C56.597 43.147 56.5222 43.2191 56.4498 43.2935C56.3774 43.368 56.3076 43.4449 56.2404 43.5242C56.1729 43.6035 56.1083 43.6848 56.0466 43.7681C55.9846 43.8515 55.9256 43.9369 55.8695 44.0244C55.8131 44.1118 55.7598 44.2011 55.7097 44.2923C55.6596 44.383 55.6124 44.4755 55.5683 44.5696C55.5241 44.6637 55.4833 44.7591 55.4458 44.8558C55.4079 44.9525 55.3736 45.0505 55.3428 45.1498C55.3116 45.2487 55.2837 45.3488 55.2592 45.4499C55.2347 45.5507 55.2136 45.6522 55.1958 45.7545C55.1779 45.8568 55.1636 45.9596 55.1529 46.0629C55.1421 46.1663 55.1347 46.2699 55.1306 46.3736C55.1269 46.4774 55.1265 46.5811 55.1295 46.6849C55.1324 46.7886 55.1388 46.8922 55.1484 46.9955C55.1584 47.0989 55.1718 47.2019 55.1885 47.3046C55.2052 47.4072 55.2254 47.5091 55.2492 47.6102C55.2726 47.7114 55.2995 47.8116 55.33 47.9109C55.36 48.0102 55.3934 48.1084 55.4302 48.2055C55.4669 48.3026 55.507 48.3983 55.5505 48.4928C55.5935 48.5873 55.6397 48.6803 55.6891 48.7718C55.7385 48.8633 55.7909 48.953 55.8462 49.0408L45.6113 66.7923C45.5775 66.8508 45.54 66.907 45.4988 66.9607C45.4576 67.014 45.4131 67.0646 45.3652 67.1124C45.3173 67.1602 45.2664 67.2047 45.2126 67.2458C45.1587 67.2869 45.1025 67.3243 45.0439 67.3581C44.9852 67.3918 44.9247 67.4216 44.8623 67.4475C44.7996 67.4735 44.7355 67.4952 44.6702 67.5126C44.6049 67.53 44.5386 67.5431 44.4714 67.552C44.4042 67.5605 44.3368 67.5648 44.2693 67.5648L16.5605 67.5648L17.3902 68.9987C17.4553 69.1117 17.524 69.2225 17.5964 69.3311C17.6687 69.4396 17.7446 69.5458 17.8239 69.6495C17.9033 69.7529 17.9859 69.8539 18.0718 69.9524C18.1578 70.0506 18.2468 70.1458 18.3391 70.2381C18.4312 70.3304 18.5264 70.4197 18.6244 70.506C18.7225 70.592 18.8233 70.6748 18.9268 70.7544C19.0303 70.8341 19.1363 70.9102 19.2448 70.9828C19.3533 71.0555 19.4641 71.1244 19.5771 71.1896C19.6901 71.2552 19.8052 71.3169 19.9222 71.3747C20.0393 71.4325 20.1582 71.4864 20.2788 71.5364C20.3994 71.5864 20.5215 71.6325 20.6452 71.6748C20.7688 71.717 20.8938 71.755 21.0199 71.7887C21.146 71.8228 21.2732 71.8526 21.4013 71.8782C21.5294 71.9038 21.6582 71.925 21.7877 71.9421C21.9172 71.9595 22.0471 71.9725 22.1775 71.981C22.3078 71.9899 22.4383 71.9944 22.5689 71.9944L44.286 71.9944C44.4167 71.994 44.5472 71.9895 44.6775 71.981C44.8078 71.9721 44.9377 71.9592 45.0673 71.9421C45.1968 71.9247 45.3256 71.9032 45.4537 71.8776C45.5818 71.8521 45.7087 71.8222 45.8346 71.7882C45.9608 71.7541 46.0857 71.7161 46.2093 71.6742C46.333 71.632 46.4551 71.5859 46.5758 71.5358C46.6964 71.4858 46.8152 71.4317 46.9321 71.3736C47.0495 71.3158 47.1645 71.2542 47.2774 71.189C47.3906 71.1235 47.5014 71.0544 47.6098 70.9817C47.7182 70.9091 47.8242 70.8332 47.9278 70.7539C48.0314 70.6742 48.1321 70.5914 48.2301 70.5054C48.3282 70.4191 48.4232 70.3298 48.5153 70.2375C48.6077 70.1453 48.6968 70.05 48.7825 69.9519C48.8687 69.8537 48.9514 69.7527 49.0309 69.649C49.1104 69.5456 49.1863 69.4396 49.2586 69.3311C49.331 69.2225 49.3997 69.1117 49.4647 68.9987L59.7107 51.2139L59.822 51.2139C59.8989 51.2139 59.9757 51.2121 60.0526 51.2083C60.129 51.2046 60.2055 51.1989 60.282 51.1911C60.3585 51.1837 60.4347 51.1744 60.5109 51.1633C60.587 51.1518 60.6627 51.1387 60.7381 51.1239C60.8134 51.109 60.8882 51.0922 60.9625 51.0733C61.0371 51.0548 61.1111 51.0344 61.1847 51.0121C61.2582 50.9899 61.3311 50.9658 61.4035 50.9399C61.4759 50.9139 61.5476 50.8864 61.6184 50.8571C61.6893 50.8278 61.7595 50.7968 61.8289 50.7643C61.8984 50.7313 61.967 50.6968 62.035 50.6609C62.1025 50.6246 62.1693 50.5868 62.2354 50.5475C62.3011 50.5079 62.3659 50.4668 62.4298 50.4241C62.494 50.3815 62.5569 50.3374 62.6185 50.2919C62.6802 50.2463 62.7407 50.199 62.8001 50.1501C62.8595 50.1016 62.9176 50.0516 62.9744 50.0001C63.0316 49.9486 63.0872 49.8958 63.1414 49.8417C63.1956 49.7876 63.2485 49.732 63.3001 49.6749C63.3517 49.6183 63.4019 49.5603 63.4505 49.501C63.4995 49.4417 63.5468 49.3813 63.5925 49.3198C63.6381 49.2579 63.6823 49.1951 63.725 49.1314C63.7677 49.0676 63.8089 49.003 63.8486 48.9374C63.888 48.8715 63.9258 48.8048 63.9622 48.7374C63.9982 48.6695 64.0328 48.601 64.0658 48.5317C64.0985 48.4624 64.1294 48.3924 64.1588 48.3216C64.1881 48.2509 64.2157 48.1794 64.2417 48.1071C64.2678 48.0349 64.2919 47.962 64.3141 47.8887C64.3364 47.8153 64.3568 47.7414 64.3754 47.6669C64.3943 47.5928 64.4112 47.5181 64.4261 47.4429C64.4409 47.3677 64.4541 47.2921 64.4656 47.2162C64.4767 47.1402 64.486 47.0641 64.4934 46.9878C64.5012 46.9114 64.507 46.8351 64.5107 46.7588C64.5144 46.6821 64.5163 46.6054 64.5163 46.5287C64.5163 46.452 64.5144 46.3753 64.5107 46.2986C64.507 46.2223 64.5012 46.146 64.4934 46.0696C64.486 45.9933 64.4767 45.9171 64.4656 45.8412C64.4541 45.7653 64.4409 45.6897 64.4261 45.6144C64.4112 45.5392 64.3943 45.4646 64.3754 45.3905C64.3568 45.316 64.3364 45.2421 64.3141 45.1687C64.2919 45.0953 64.2678 45.0225 64.2417 44.9503C64.2157 44.878 64.1881 44.8065 64.1588 44.7358C64.1294 44.665 64.0985 44.595 64.0658 44.5257C64.0328 44.4564 63.9982 44.3878 63.9622 44.32C63.9258 44.2526 63.888 44.1859 63.8486 44.12C63.8089 44.0544 63.7677 43.9895 63.725 43.9254C63.6823 43.8617 63.6381 43.7991 63.5925 43.7376C63.5468 43.6761 63.4995 43.6157 63.4505 43.5564C63.4019 43.4971 63.3517 43.4391 63.3001 43.3824C63.2485 43.3254 63.1956 43.2698 63.1414 43.2157C63.0872 43.1616 63.0316 43.1088 62.9744 43.0573C62.9176 43.0058 62.8595 42.9558 62.8001 42.9073C62.7407 42.8583 62.6802 42.8111 62.6185 42.7655C62.5569 42.72 62.494 42.6759 62.4298 42.6333C62.3659 42.5907 62.3011 42.5495 62.2354 42.5099C62.1693 42.4706 62.1025 42.4328 62.035 42.3965C61.967 42.3606 61.8984 42.3261 61.8289 42.2931C61.7595 42.2605 61.6893 42.2296 61.6184 42.2003C61.5476 42.171 61.4759 42.1434 61.4035 42.1175C61.3311 42.0916 61.2582 42.0675 61.1847 42.0453C61.1111 42.023 61.0371 42.0026 60.9625 41.9841C60.8882 41.9652 60.8134 41.9484 60.7381 41.9335C60.6627 41.9187 60.587 41.9056 60.5109 41.8941C60.4347 41.883 60.3585 41.8737 60.282 41.8663C60.2055 41.8585 60.129 41.8528 60.0526 41.8491C59.9757 41.8454 59.8989 41.8435 59.822 41.8435L59.8053 41.8713Z"   fill="#2E73BA" >
</path>
<path d="M72.2565 44.2887L61.9604 26.5428L62.0217 26.4538C62.0651 26.3798 62.1065 26.3043 62.1459 26.2276C62.1848 26.1513 62.222 26.0739 62.2572 25.9953C62.2921 25.9168 62.3248 25.8373 62.3552 25.7569C62.386 25.6765 62.4144 25.5956 62.4404 25.514C62.4668 25.4322 62.4907 25.3495 62.5123 25.2662C62.5338 25.1828 62.5531 25.099 62.5702 25.0149C62.5873 24.9308 62.6019 24.8462 62.6142 24.761C62.6264 24.6761 62.6364 24.5909 62.6442 24.5053C62.6516 24.4197 62.6569 24.3339 62.6598 24.248C62.6628 24.162 62.6633 24.076 62.6615 23.9901C62.6597 23.9041 62.6555 23.8184 62.6492 23.7328C62.6426 23.6472 62.6337 23.5618 62.6225 23.4766C62.611 23.3913 62.5975 23.3065 62.5819 23.222C62.5659 23.1375 62.5475 23.0536 62.5267 22.9702C62.5063 22.8865 62.4835 22.8035 62.4582 22.7213C62.4334 22.6394 62.4061 22.558 62.3764 22.4773C62.3467 22.3965 62.315 22.3167 62.2812 22.2377C62.247 22.1588 62.2108 22.0808 62.1726 22.0038C62.1343 21.9267 62.0941 21.8507 62.0517 21.7759C62.009 21.7014 61.9645 21.6278 61.9181 21.5552C61.8717 21.483 61.8233 21.412 61.7728 21.3424C61.7223 21.2727 61.6699 21.2045 61.6157 21.1378C61.5616 21.0712 61.5056 21.0059 61.4481 20.9422C61.3902 20.8785 61.3306 20.8162 61.2694 20.7555C61.2085 20.6951 61.1458 20.6364 61.0812 20.5793C61.0166 20.5222 60.9507 20.467 60.8835 20.4137C60.8159 20.3603 60.7471 20.3088 60.6769 20.2592C60.6063 20.2095 60.5347 20.1619 60.4619 20.1163C60.3888 20.0708 60.3148 20.027 60.2398 19.9852C60.1644 19.9437 60.0879 19.9042 60.0103 19.8668C59.9328 19.8294 59.8543 19.7942 59.7748 19.7612C59.6953 19.7279 59.615 19.6967 59.5337 19.6678C59.4528 19.6393 59.3709 19.613 59.2881 19.5889C59.2057 19.5645 59.1226 19.5424 59.0386 19.5228C58.9547 19.5031 58.8705 19.4857 58.7858 19.4705C58.7012 19.4557 58.616 19.4431 58.5302 19.4327C58.4449 19.4224 58.3593 19.4142 58.2735 19.4083C58.1874 19.4027 58.1013 19.3996 58.0151 19.3988C57.929 19.3977 57.8431 19.399 57.7573 19.4027C57.6712 19.4064 57.5853 19.4125 57.4995 19.4211C57.4138 19.4296 57.3284 19.4403 57.2434 19.4533C57.1584 19.4666 57.0737 19.4822 56.9894 19.5C56.9052 19.5178 56.8215 19.5378 56.7383 19.56C56.6551 19.5826 56.5727 19.6074 56.4911 19.6345C56.4094 19.6611 56.3285 19.6902 56.2483 19.7217C56.1681 19.7529 56.0888 19.7864 56.0105 19.8223C55.9322 19.8579 55.8548 19.8957 55.7783 19.9357C55.7022 19.9757 55.6272 20.0178 55.5533 20.0619C55.4795 20.106 55.4067 20.1519 55.335 20.1997C55.2638 20.2479 55.1938 20.2979 55.1251 20.3498C55.0564 20.4016 54.9892 20.4554 54.9235 20.5109C54.8582 20.5665 54.7942 20.6238 54.7314 20.6827C54.6691 20.7419 54.6082 20.8027 54.5488 20.865C54.4897 20.9276 54.4324 20.9917 54.3767 21.0573C54.321 21.1228 54.2672 21.1899 54.2152 21.2585C54.1632 21.327 54.1133 21.3968 54.0654 21.468C54.0172 21.5391 53.971 21.6117 53.9268 21.6858C53.8826 21.7596 53.8407 21.8344 53.8009 21.9104C53.7608 21.9867 53.723 22.064 53.6873 22.1421C53.6513 22.2203 53.6177 22.2994 53.5865 22.3795C53.555 22.4595 53.5258 22.5403 53.4991 22.6218C53.472 22.7033 53.4473 22.7855 53.4251 22.8685C53.4024 22.9515 53.3822 23.0351 53.3644 23.1192C53.3465 23.2033 53.3311 23.2878 53.3181 23.3726C53.3051 23.4575 53.2944 23.5427 53.2858 23.6283C53.2773 23.7139 53.2712 23.7997 53.2675 23.8856C53.2638 23.9712 53.2625 24.057 53.2636 24.1429C53.2643 24.2289 53.2677 24.3149 53.2736 24.4008C53.2792 24.4864 53.2871 24.5718 53.2975 24.657C53.3079 24.7426 53.3207 24.8277 53.336 24.9121C53.3512 24.9966 53.3686 25.0807 53.3883 25.1644C53.408 25.2482 53.4301 25.3312 53.4546 25.4134C53.4787 25.4961 53.5052 25.5778 53.5342 25.6585C53.5628 25.7397 53.5938 25.8199 53.6272 25.8992C53.6602 25.9785 53.6955 26.0569 53.733 26.1343C53.7709 26.2114 53.8106 26.2875 53.8522 26.3627C53.8937 26.4379 53.9375 26.512 53.9836 26.585C54.0292 26.6577 54.0769 26.729 54.1267 26.799C54.1764 26.869 54.228 26.9378 54.2815 27.0052C54.3353 27.0726 54.3908 27.1384 54.448 27.2025C54.5052 27.2669 54.564 27.3298 54.6245 27.3909C54.685 27.4516 54.7472 27.5109 54.811 27.5687C54.8749 27.6261 54.9404 27.6819 55.0076 27.736C55.0744 27.7901 55.1427 27.8423 55.2125 27.8928C55.2823 27.9432 55.3534 27.9915 55.4258 28.0378C55.4982 28.0841 55.5719 28.1284 55.6469 28.1706C55.7219 28.2129 55.798 28.2533 55.8752 28.2918C55.9524 28.33 56.0305 28.3659 56.1096 28.3996C56.1887 28.4334 56.2687 28.465 56.3496 28.4947C56.4305 28.5243 56.5122 28.5515 56.5946 28.5764C56.6767 28.6015 56.7596 28.6243 56.8435 28.6447C56.9271 28.6651 57.0112 28.6832 57.0958 28.6992C57.1804 28.7151 57.2654 28.7286 57.3508 28.7398C57.4362 28.7509 57.5218 28.7598 57.6075 28.7664C57.6933 28.7727 57.7792 28.7768 57.8654 28.7787C57.9515 28.7805 58.0376 28.7799 58.1237 28.777L68.4087 46.4951C68.4421 46.554 68.4716 46.6148 68.4973 46.6774C68.5229 46.7401 68.5442 46.8041 68.5613 46.8697C68.5787 46.9349 68.5918 47.0011 68.6003 47.0681C68.6092 47.1352 68.6136 47.2026 68.6136 47.2704C68.6136 47.3382 68.6092 47.4057 68.6003 47.4727C68.5918 47.5398 68.5787 47.606 68.5613 47.6712C68.5442 47.7367 68.5229 47.8008 68.4973 47.8635C68.4716 47.9261 68.4421 47.9868 68.4087 48.0457L67.7182 49.2351L54.571 71.9941L56.2416 71.9941C56.3723 71.9941 56.5026 71.9899 56.6325 71.9814C56.7628 71.9729 56.8927 71.9601 57.0223 71.943C57.1515 71.9259 57.2801 71.9048 57.4082 71.8797C57.5363 71.8541 57.6634 71.8245 57.7896 71.7907C57.9155 71.7574 58.0402 71.7198 58.1638 71.6779C58.2874 71.6361 58.4096 71.5903 58.5302 71.5406C58.6509 71.4906 58.7699 71.4369 58.8872 71.3795C59.0041 71.322 59.1192 71.2609 59.2324 71.196C59.3456 71.1309 59.4564 71.0621 59.5649 70.9899C59.6736 70.9176 59.7798 70.842 59.8834 70.7631C59.987 70.6838 60.0879 70.6014 60.1863 70.5158C60.2847 70.4298 60.3801 70.3409 60.4725 70.249C60.565 70.1571 60.6544 70.0623 60.7409 69.9644C60.8271 69.867 60.91 69.7666 60.9898 69.6632C61.0693 69.5602 61.1454 69.4546 61.2181 69.3464C61.2909 69.2382 61.3601 69.1278 61.4258 69.0152L72.2788 50.2577C72.3434 50.1447 72.4043 50.0295 72.4615 49.912C72.5183 49.7949 72.5713 49.6762 72.6207 49.5558C72.6701 49.4354 72.7154 49.3133 72.7566 49.1895C72.7978 49.0662 72.8351 48.9415 72.8685 48.8155C72.9015 48.6895 72.9305 48.5626 72.9554 48.4348C72.9803 48.307 73.0009 48.1784 73.0172 48.0491C73.0339 47.9201 73.0461 47.7906 73.0539 47.6606C73.0621 47.5305 73.066 47.4005 73.0656 47.2704C73.0649 47.14 73.0601 47.0099 73.0512 46.8803C73.0423 46.7502 73.0291 46.6207 73.0116 46.4918C72.9942 46.3625 72.9726 46.2341 72.947 46.1066C72.921 45.9788 72.891 45.8521 72.8568 45.7265C72.8227 45.6009 72.7844 45.4764 72.7421 45.353C72.7002 45.23 72.654 45.1083 72.6035 44.9879C72.5533 44.8678 72.4993 44.7494 72.4414 44.6327C72.3835 44.516 72.3219 44.4014 72.2565 44.2887Z"   fill="#6DA230" >
</path>
<path d="M78.2038 33.9793L67.3787 15.2219C67.3133 15.1089 67.2442 14.9983 67.1715 14.8901C67.0987 14.7815 67.0226 14.6756 66.9432 14.5722C66.8634 14.4688 66.7804 14.368 66.6943 14.2698C66.6078 14.172 66.5183 14.077 66.4259 13.9847C66.3335 13.8928 66.238 13.8039 66.1397 13.7179C66.0413 13.632 65.9403 13.5494 65.8367 13.4701C65.7328 13.3908 65.6264 13.315 65.5177 13.2428C65.4089 13.1705 65.2979 13.1018 65.1847 13.0366C65.0714 12.9717 64.9561 12.9106 64.8389 12.8532C64.7215 12.7957 64.6024 12.7422 64.4814 12.6925C64.3607 12.6429 64.2384 12.5971 64.1144 12.5553C63.9904 12.5138 63.8653 12.4762 63.7391 12.4424C63.6129 12.4091 63.4855 12.3798 63.3571 12.3546C63.229 12.3294 63.1002 12.3085 62.9707 12.2918C62.8411 12.2752 62.7109 12.2627 62.5803 12.2546C62.45 12.2464 62.3195 12.2425 62.1888 12.2429L41.6467 12.2707L41.5966 12.1707C41.5539 12.0958 41.5092 12.0223 41.4624 11.95C41.4156 11.8778 41.3668 11.8066 41.316 11.7366C41.2654 11.667 41.2129 11.5988 41.1584 11.5321C41.1041 11.4654 41.0479 11.4002 40.9896 11.3365C40.9317 11.2727 40.8719 11.2107 40.8103 11.1503C40.7491 11.0899 40.6862 11.0311 40.6216 10.9741C40.5566 10.917 40.4903 10.8618 40.4228 10.8085C40.3548 10.7551 40.2856 10.7038 40.2151 10.6545C40.1445 10.6049 40.0727 10.5573 39.9996 10.5117C39.9264 10.4661 39.852 10.4226 39.7763 10.3811C39.7009 10.3396 39.6243 10.3001 39.5463 10.2627C39.4686 10.2256 39.3898 10.1906 39.3101 10.1577C39.2304 10.1247 39.1499 10.0939 39.0685 10.0654C38.9871 10.0365 38.905 10.0102 38.8221 9.98647C38.7393 9.96239 38.6558 9.94052 38.5718 9.92088C38.4877 9.90161 38.4033 9.88459 38.3183 9.86976C38.2333 9.85494 38.1479 9.84234 38.0622 9.83197C37.9766 9.82197 37.8907 9.81418 37.8046 9.80862C37.7185 9.80343 37.6323 9.80048 37.546 9.79973C37.4598 9.79898 37.3735 9.80066 37.2873 9.80473C37.2012 9.8088 37.1152 9.81511 37.0293 9.82363C36.9435 9.83252 36.858 9.84364 36.7728 9.85697C36.6876 9.87068 36.6028 9.88662 36.5184 9.90477C36.4341 9.92256 36.3503 9.94293 36.2671 9.96591C36.1839 9.98851 36.1013 10.0135 36.0195 10.0409C35.9377 10.068 35.8566 10.0974 35.7764 10.1293C35.6962 10.1608 35.6169 10.1947 35.5385 10.231C35.4602 10.267 35.3829 10.3051 35.3067 10.3455C35.2304 10.3855 35.1553 10.4278 35.0814 10.4722C35.0075 10.5167 34.9349 10.5632 34.8635 10.6117C34.7921 10.6599 34.7222 10.7101 34.6536 10.7623C34.585 10.8146 34.5179 10.8687 34.4523 10.9246C34.3867 10.9806 34.3227 11.0384 34.2603 11.098C34.1978 11.1573 34.1371 11.2184 34.078 11.2814C34.019 11.344 33.9617 11.4083 33.9062 11.4743C33.8507 11.5402 33.797 11.6077 33.7453 11.6766C33.6935 11.7455 33.6436 11.8157 33.5957 11.8872C33.5478 11.9587 33.5018 12.0315 33.4579 12.1056C33.414 12.1798 33.3722 12.255 33.3324 12.3313C33.2927 12.408 33.255 12.4854 33.2195 12.5636C33.1841 12.6422 33.1508 12.7216 33.1196 12.802C33.0885 12.8824 33.0597 12.9636 33.033 13.0455C33.0063 13.1273 32.982 13.21 32.9599 13.2933C32.9378 13.3763 32.918 13.4601 32.9005 13.5446C32.8831 13.6287 32.868 13.7133 32.8551 13.7985C32.8423 13.8838 32.8319 13.9692 32.8238 14.0548C32.8157 14.1407 32.8099 14.2267 32.8066 14.3126C32.8032 14.3986 32.8022 14.4847 32.8036 14.5711C32.805 14.657 32.8087 14.743 32.8148 14.829C32.8209 14.9149 32.8294 15.0005 32.8403 15.0857C32.8511 15.1713 32.8643 15.2563 32.8798 15.3408C32.8954 15.4257 32.9132 15.5099 32.9334 15.5937C32.9535 15.6774 32.976 15.7606 33.0008 15.8432C33.0255 15.9255 33.0525 16.0072 33.0818 16.0883C33.111 16.1691 33.1425 16.2491 33.1762 16.3284C33.2098 16.4077 33.2457 16.4861 33.2836 16.5635C33.3216 16.6409 33.3617 16.7171 33.4039 16.7919C33.4461 16.8671 33.4903 16.9411 33.5366 17.0137C33.5828 17.0863 33.6311 17.1576 33.6813 17.2277C33.7315 17.2981 33.7836 17.3668 33.8375 17.4339C33.8915 17.5009 33.9473 17.5665 34.0049 17.6306C34.0624 17.6947 34.1217 17.7572 34.1828 17.8179C34.2438 17.879 34.3065 17.9383 34.3708 17.9958C34.4351 18.0532 34.5009 18.1088 34.5683 18.1625C34.6356 18.2162 34.7044 18.2681 34.7746 18.3181C34.8449 18.3681 34.9164 18.4163 34.9893 18.4626C35.0621 18.5086 35.1362 18.5525 35.2116 18.5943C35.2868 18.6366 35.3632 18.6766 35.4408 18.7144C35.5182 18.7522 35.5967 18.7879 35.6762 18.8216C35.7557 18.855 35.836 18.8863 35.9172 18.9156C35.9984 18.9445 36.0803 18.9713 36.163 18.9962C36.2457 19.0206 36.3289 19.0428 36.4128 19.0628C36.4967 19.0829 36.5811 19.1006 36.666 19.1162C36.7509 19.1318 36.8361 19.1449 36.9217 19.1557C37.0074 19.1664 37.0932 19.1748 37.1792 19.1807C37.2653 19.1866 37.3515 19.1903 37.4377 19.1918C37.524 19.1929 37.6102 19.1918 37.6964 19.1884C37.7826 19.1847 37.8687 19.1788 37.9546 19.1707C38.0405 19.1625 38.126 19.1522 38.2113 19.1395C38.2967 19.1266 38.3815 19.1114 38.4661 19.094C38.5505 19.0762 38.6344 19.0563 38.7178 19.0345C38.8012 19.0123 38.8839 18.9878 38.9659 18.9611C39.048 18.9345 39.1292 18.9056 39.2096 18.8744C39.29 18.8433 39.3696 18.81 39.4482 18.7744C39.527 18.7388 39.6045 18.7012 39.6811 18.6616C39.7575 18.6219 39.8328 18.58 39.9071 18.536C39.9814 18.4922 40.0543 18.4463 40.126 18.3981C40.1976 18.3503 40.268 18.3005 40.337 18.2486C40.4057 18.1971 40.4731 18.1436 40.5392 18.088C40.6052 18.0324 40.6696 17.9752 40.7324 17.9163C40.7955 17.8574 40.8567 17.7968 40.9161 17.7345C40.9755 17.6719 41.0332 17.6078 41.0893 17.5422C41.1453 17.4767 41.1994 17.4098 41.2514 17.3416C41.3037 17.2731 41.3542 17.2031 41.4028 17.1315C41.451 17.0604 41.4975 16.988 41.542 16.9142C41.5862 16.8405 41.6285 16.7654 41.669 16.6891L62.1833 16.6613C62.2512 16.6617 62.3188 16.6663 62.386 16.6752C62.4531 16.6841 62.5194 16.6975 62.5848 16.7152C62.6505 16.7326 62.7147 16.7543 62.7774 16.7803C62.8401 16.8062 62.9008 16.836 62.9595 16.8698C63.0182 16.9035 63.0746 16.9407 63.1288 16.9815C63.1826 17.0226 63.2337 17.0671 63.2819 17.1148C63.3302 17.1623 63.3751 17.2127 63.4167 17.266C63.4582 17.3198 63.4963 17.3757 63.5308 17.4339L64.2158 18.6232L77.3796 41.41L78.2149 39.9706C78.2806 39.8572 78.3424 39.742 78.4003 39.6249C78.4583 39.5075 78.5124 39.3883 78.5629 39.2675C78.6131 39.1468 78.6591 39.0245 78.701 38.9007C78.7434 38.7766 78.7814 38.6513 78.8152 38.525C78.8489 38.3987 78.8787 38.2714 78.9043 38.1432C78.9295 38.0146 78.9507 37.8855 78.9678 37.7558C78.9848 37.6261 78.9975 37.4961 79.0056 37.3657C79.0142 37.2349 79.0182 37.1041 79.0179 36.9733C79.0175 36.8425 79.013 36.7119 79.0045 36.5815C78.9956 36.451 78.9824 36.321 78.965 36.1913C78.9475 36.0616 78.9258 35.9327 78.8998 35.8045C78.8738 35.6763 78.8436 35.549 78.8091 35.4227C78.7749 35.2963 78.7365 35.1713 78.6938 35.0475C78.6515 34.9237 78.6049 34.8017 78.554 34.6813C78.5035 34.5605 78.449 34.4416 78.3903 34.3245C78.332 34.2073 78.2698 34.0923 78.2038 33.9793Z"   fill="#2E73BA" >
</path>
<path d="M61.4426 5.00131C61.3773 4.88867 61.3084 4.77807 61.236 4.66952C61.1637 4.56133 61.0879 4.45554 61.0089 4.35217C60.9295 4.24879 60.8468 4.14819 60.7611 4.05038C60.675 3.95219 60.5859 3.85716 60.4938 3.76527C60.4017 3.67301 60.3067 3.5839 60.2087 3.49794C60.1107 3.41199 60.0099 3.32935 59.9063 3.25006C59.8031 3.17076 59.6973 3.09482 59.5889 3.02219C59.4805 2.94958 59.3699 2.88065 59.257 2.81545C59.1441 2.75023 59.0293 2.68872 58.9123 2.63093C58.7954 2.5735 58.6766 2.51977 58.5559 2.46975C58.4357 2.41973 58.3137 2.3736 58.1901 2.33137C58.0669 2.28949 57.9421 2.25152 57.8159 2.21742C57.69 2.18371 57.5633 2.15389 57.4356 2.12796C57.3075 2.10238 57.1789 2.08108 57.0497 2.06403C56.9205 2.04663 56.7907 2.03347 56.6604 2.02458C56.5301 2.01605 56.3998 2.0116 56.2695 2.01123L34.5525 2.01123C34.4219 2.0116 34.2916 2.01623 34.1613 2.02512C34.0311 2.03403 33.9013 2.04698 33.7719 2.06403C33.6426 2.08145 33.5139 2.10294 33.3859 2.1285C33.2579 2.15445 33.131 2.18427 33.005 2.21798C32.879 2.25208 32.7542 2.29005 32.6306 2.33191C32.5071 2.37416 32.3851 2.42029 32.2645 2.47031C32.144 2.52033 32.0253 2.57423 31.9083 2.63203C31.7913 2.68984 31.6763 2.75134 31.5633 2.81656C31.4503 2.88177 31.3396 2.95049 31.2311 3.02275C31.1226 3.09537 31.0166 3.17132 30.9131 3.25062C30.8095 3.32991 30.7087 3.41253 30.6106 3.49848C30.5125 3.58446 30.4173 3.67356 30.325 3.76582C30.2327 3.8577 30.1434 3.95256 30.0574 4.05038C29.9713 4.14856 29.8885 4.24916 29.8089 4.35217C29.7294 4.45554 29.6534 4.56133 29.5807 4.66952C29.5081 4.77807 29.4391 4.88867 29.3738 5.00131L19.1278 22.7861L19.0164 22.7861C18.9304 22.7861 18.8444 22.7885 18.7585 22.7934C18.6726 22.7985 18.5869 22.8058 18.5014 22.815C18.4159 22.8247 18.3308 22.8367 18.246 22.8512C18.1611 22.8652 18.0768 22.8817 17.9928 22.9006C17.9089 22.9195 17.8256 22.9406 17.7428 22.964C17.66 22.9873 17.578 23.0131 17.4967 23.0412C17.4153 23.069 17.3348 23.0992 17.2551 23.1318C17.1754 23.1641 17.0967 23.1985 17.0189 23.2352C16.9411 23.2719 16.8644 23.3106 16.7887 23.3514C16.7131 23.3925 16.6387 23.4355 16.5654 23.4803C16.4921 23.5252 16.4201 23.5722 16.3494 23.6215C16.2787 23.6704 16.2094 23.7211 16.1415 23.7738C16.0736 23.8264 16.0072 23.8809 15.9423 23.9372C15.8774 23.9935 15.8142 24.0516 15.7525 24.1117C15.6908 24.1713 15.6308 24.2328 15.5725 24.2962C15.5142 24.3592 15.4577 24.4238 15.403 24.4902C15.3482 24.5565 15.2953 24.6241 15.2443 24.693C15.1933 24.7623 15.1442 24.8329 15.0971 24.9048C15.05 24.9767 15.0049 25.0497 14.9618 25.1237C14.9187 25.1982 14.8777 25.2736 14.8387 25.3499C14.7998 25.4266 14.763 25.5043 14.7283 25.5828C14.6936 25.6613 14.6611 25.7409 14.6308 25.8212C14.6005 25.9017 14.5725 25.9828 14.5467 26.0647C14.5208 26.1465 14.4973 26.2292 14.476 26.3125C14.4547 26.3955 14.4357 26.4793 14.419 26.5638C14.4024 26.6478 14.388 26.7323 14.376 26.8172C14.364 26.9024 14.3544 26.9878 14.3471 27.0734C14.3398 27.159 14.3348 27.2446 14.3322 27.3302C14.3296 27.4161 14.3294 27.5021 14.3315 27.588C14.3337 27.6736 14.3381 27.7592 14.345 27.8448C14.3519 27.9304 14.3611 28.0158 14.3726 28.101C14.3842 28.1859 14.3981 28.2705 14.4143 28.355C14.4306 28.4395 14.4491 28.5233 14.47 28.6062C14.4908 28.6896 14.5139 28.7724 14.5393 28.8547C14.5647 28.9366 14.5923 29.0177 14.6222 29.0981C14.6521 29.1789 14.6842 29.2585 14.7184 29.3371C14.7527 29.416 14.7891 29.4938 14.8276 29.5705C14.8662 29.6472 14.9068 29.7228 14.9495 29.7973C14.9922 29.8717 15.0369 29.9451 15.0837 30.0173C15.1305 30.0896 15.1792 30.1603 15.2298 30.2297C15.2804 30.299 15.3329 30.3669 15.3873 30.4336C15.4417 30.4999 15.4979 30.565 15.5559 30.6287C15.6139 30.6921 15.6735 30.7537 15.7349 30.8138C15.7963 30.8742 15.8593 30.9327 15.9238 30.9894C15.9884 31.0461 16.0545 31.1009 16.1221 31.1539C16.1898 31.2069 16.2588 31.2581 16.3292 31.3073C16.3997 31.3566 16.4714 31.404 16.5445 31.4496C16.6175 31.4948 16.6918 31.538 16.7672 31.5791C16.8426 31.6206 16.9191 31.6598 16.9967 31.6969C17.0743 31.734 17.1528 31.769 17.2323 31.8019C17.3118 31.8346 17.3922 31.8651 17.4734 31.8936C17.5546 31.9218 17.6365 31.9479 17.7192 31.972C17.8018 31.9957 17.885 32.0172 17.9689 32.0365C18.0527 32.0558 18.137 32.0728 18.2217 32.0876C18.3065 32.1021 18.3916 32.1143 18.4771 32.1243C18.5625 32.1347 18.6481 32.1425 18.734 32.1476C18.8198 32.1528 18.9058 32.1558 18.9918 32.1565C19.0779 32.1569 19.1638 32.155 19.2497 32.151C19.3357 32.1469 19.4214 32.1404 19.507 32.1315C19.5926 32.1226 19.6778 32.1115 19.7628 32.0982C19.8477 32.0848 19.9322 32.0691 20.0163 32.0509C20.1004 32.0328 20.1839 32.0122 20.2669 31.9892C20.3499 31.9666 20.4321 31.9416 20.5137 31.9142C20.5953 31.8871 20.6761 31.8577 20.756 31.8258C20.836 31.7943 20.915 31.7606 20.9931 31.7247C21.0712 31.6887 21.1483 31.6506 21.2242 31.6102C21.3003 31.5699 21.3751 31.5276 21.4487 31.4835C21.5224 31.439 21.5948 31.3927 21.6659 31.3445C21.737 31.296 21.8068 31.2456 21.8751 31.1934C21.9435 31.1415 22.0103 31.0876 22.0757 31.0316C22.141 30.9757 22.2049 30.9181 22.267 30.8588C22.3293 30.7995 22.3898 30.7386 22.4486 30.6759C22.5074 30.6133 22.5645 30.5492 22.6198 30.4836C22.6752 30.4177 22.7286 30.3505 22.7802 30.2819C22.8318 30.213 22.8815 30.143 22.9292 30.0718C22.977 30.0003 23.0227 29.9275 23.0665 29.8534C23.1102 29.7796 23.1519 29.7046 23.1915 29.6283C23.2311 29.552 23.2685 29.4747 23.3039 29.3965C23.3393 29.3183 23.3725 29.2393 23.4034 29.1592C23.4344 29.0788 23.4632 28.9979 23.4897 28.9164C23.5162 28.8348 23.5405 28.7526 23.5625 28.6696C23.5845 28.5862 23.6042 28.5027 23.6216 28.4189C23.639 28.3348 23.6541 28.2501 23.6667 28.1649C23.6796 28.0801 23.6899 27.995 23.6979 27.9098C23.706 27.8243 23.7117 27.7385 23.715 27.6525C23.7184 27.5669 23.7193 27.4812 23.7179 27.3952C23.7165 27.3092 23.7127 27.2235 23.7066 27.1379C23.7005 27.0523 23.692 26.9669 23.6812 26.8817C23.6704 26.7965 23.6572 26.7116 23.6417 26.6271C23.6263 26.5426 23.6084 26.4587 23.5883 26.3753C23.5682 26.292 23.5458 26.2092 23.5211 26.1269C23.4964 26.0447 23.4695 25.9631 23.4403 25.8824C23.4111 25.8016 23.3797 25.7216 23.3461 25.6423C23.3126 25.5634 23.2768 25.4854 23.2389 25.4083C23.2011 25.3313 23.1611 25.2553 23.119 25.1804C23.077 25.1056 23.0329 25.0319 22.9867 24.9592L33.2216 7.21331C33.2555 7.15476 33.2931 7.09863 33.3343 7.0449C33.3755 6.99117 33.4201 6.94042 33.4679 6.89262C33.5158 6.84483 33.5666 6.80017 33.6202 6.75868C33.674 6.71755 33.7301 6.67993 33.7887 6.64586C33.8473 6.61177 33.9079 6.58174 33.9704 6.55581C34.033 6.52951 34.097 6.50746 34.1623 6.48968C34.2278 6.47189 34.294 6.45856 34.3612 6.44967C34.4283 6.44039 34.4958 6.43558 34.5636 6.43522L62.2723 6.43522L61.4426 5.00131Z"   fill="#6DA230" >
</path>
<path d="M0.801852 34.0128C0.73674 34.1258 0.675375 34.2408 0.617758 34.3579C0.56018 34.475 0.506462 34.5937 0.456606 34.7142C0.406787 34.8346 0.360939 34.9565 0.319065 35.0798C0.277227 35.2032 0.239454 35.3279 0.205746 35.4539C0.172039 35.5799 0.142488 35.7068 0.117096 35.8346C0.0916668 35.9624 0.0704693 36.091 0.0535041 36.2203C0.036502 36.3496 0.0237313 36.4793 0.015193 36.6094C0.00669194 36.7394 0.00244141 36.8696 0.00244141 37.0001C0.00244141 37.1305 0.00669194 37.2607 0.015193 37.3908C0.0237313 37.5208 0.036502 37.6505 0.0535041 37.7798C0.0704693 37.9091 0.0916668 38.0377 0.117096 38.1655C0.142488 38.2933 0.172039 38.4202 0.205746 38.5462C0.239454 38.6722 0.277227 38.7969 0.319065 38.9203C0.360939 39.0436 0.406787 39.1655 0.456606 39.286C0.506462 39.4067 0.56018 39.5255 0.617758 39.6422C0.675375 39.7593 0.73674 39.8744 0.801852 39.9874L11.6548 58.7448C11.7204 58.8574 11.7896 58.9679 11.8624 59.076C11.9351 59.1842 12.0114 59.2898 12.0911 59.3928C12.1707 59.4962 12.2538 59.5966 12.34 59.6941C12.4263 59.7919 12.5156 59.8867 12.6081 59.9786C12.7006 60.0705 12.796 60.1594 12.8942 60.2454C12.9925 60.331 13.0935 60.4134 13.1972 60.4927C13.3009 60.5716 13.407 60.6472 13.5156 60.7195C13.6243 60.7917 13.7351 60.8605 13.8482 60.9257C13.9613 60.9905 14.0765 61.0516 14.1936 61.1091C14.3107 61.1665 14.4296 61.2202 14.5502 61.2702C14.6708 61.3199 14.7929 61.3657 14.9166 61.4075C15.0402 61.4494 15.1651 61.487 15.2911 61.5203C15.4173 61.5541 15.5443 61.5837 15.6723 61.6093C15.8003 61.6344 15.9291 61.6556 16.0585 61.6726C16.1878 61.6897 16.3177 61.7025 16.4479 61.711C16.5782 61.7195 16.7085 61.7237 16.8391 61.7237L37.3812 61.7237C37.3812 61.7571 37.4146 61.7904 37.4369 61.8238C37.4796 61.8987 37.5244 61.9722 37.5712 62.0444C37.618 62.1167 37.6667 62.1877 37.7175 62.2573C37.7682 62.3269 37.8208 62.3951 37.8753 62.4618C37.9297 62.5285 37.986 62.5937 38.0441 62.6575C38.1021 62.7212 38.1619 62.7832 38.2234 62.8436C38.2848 62.904 38.3479 62.9626 38.4126 63.0193C38.4774 63.0763 38.5436 63.1315 38.6114 63.1849C38.6791 63.2382 38.7483 63.2896 38.8189 63.3388C38.8894 63.3885 38.9613 63.4361 39.0345 63.4817C39.1077 63.5272 39.1821 63.5706 39.2577 63.6117C39.3333 63.6532 39.41 63.6927 39.4877 63.7301C39.5653 63.7672 39.644 63.8022 39.7238 63.8351C39.8036 63.8681 39.8842 63.8989 39.9655 63.9274C40.0468 63.9559 40.1288 63.9823 40.2116 64.0063C40.2948 64.0304 40.3783 64.0521 40.4622 64.0713C40.5461 64.0906 40.6306 64.1076 40.7156 64.1225C40.8006 64.1373 40.886 64.1497 40.9717 64.1597C41.0575 64.1701 41.1432 64.1779 41.229 64.1831C41.3151 64.1886 41.4015 64.1916 41.4879 64.1919C41.5741 64.1927 41.6602 64.191 41.7463 64.187C41.8325 64.1829 41.9184 64.1766 42.0041 64.1681C42.0899 64.1592 42.1755 64.1479 42.2608 64.1341C42.3459 64.1208 42.4305 64.1051 42.5148 64.0869C42.5994 64.0687 42.6833 64.0484 42.7665 64.0258C42.8496 64.0028 42.932 63.9778 43.0137 63.9507C43.0957 63.9233 43.1769 63.8939 43.257 63.8624C43.3372 63.8305 43.4165 63.7966 43.4948 63.7607C43.5732 63.7244 43.6503 63.6862 43.7265 63.6462C43.8026 63.6058 43.8775 63.5634 43.9514 63.5189C44.0253 63.4744 44.0979 63.4279 44.1692 63.3794C44.2404 63.3312 44.3104 63.281 44.3791 63.2288C44.4478 63.1765 44.5148 63.1225 44.5801 63.0665C44.6458 63.0105 44.7099 62.9527 44.7722 62.8931C44.8346 62.8338 44.8953 62.7729 44.9543 62.7103C45.0133 62.6473 45.0707 62.5828 45.1264 62.5168C45.1817 62.4509 45.2354 62.3836 45.2873 62.3151C45.3389 62.2462 45.3887 62.176 45.4365 62.1045C45.4844 62.0326 45.5303 61.9596 45.5741 61.8855C45.6182 61.8114 45.6602 61.7361 45.6999 61.6598C45.7396 61.5835 45.7772 61.5061 45.8124 61.4275C45.8481 61.349 45.8815 61.2697 45.9127 61.1896C45.9434 61.1093 45.9722 61.0281 45.999 60.9462C46.0257 60.8643 46.05 60.7817 46.0719 60.6983C46.0942 60.6154 46.1141 60.5316 46.1315 60.4471C46.1489 60.363 46.164 60.2784 46.1766 60.1931C46.1896 60.1079 46.2001 60.0225 46.2083 59.9369C46.2165 59.851 46.2223 59.765 46.2256 59.679C46.2289 59.5931 46.2299 59.5071 46.2284 59.4212C46.2269 59.3352 46.2232 59.2493 46.2172 59.1633C46.211 59.0773 46.2024 58.9918 46.1916 58.9065C46.1809 58.8209 46.1677 58.7357 46.1521 58.6509C46.1365 58.5664 46.1187 58.4823 46.0986 58.3985C46.0786 58.3148 46.0561 58.2318 46.0313 58.1496C46.0064 58.067 45.9795 57.985 45.9505 57.9039C45.9212 57.8231 45.8897 57.7431 45.8559 57.6638C45.8224 57.5845 45.7866 57.5061 45.7484 57.4287C45.7105 57.3516 45.6706 57.2755 45.6287 57.2003C45.5863 57.1251 45.542 57.0512 45.4956 56.9785C45.4495 56.9059 45.4015 56.8346 45.3513 56.7646C45.3012 56.6945 45.2491 56.626 45.1949 56.5589C45.141 56.4915 45.0853 56.4257 45.0278 56.3616C44.9703 56.2975 44.9109 56.2351 44.8496 56.1743C44.7888 56.1136 44.7262 56.0544 44.662 55.997C44.5978 55.9396 44.5321 55.884 44.4648 55.8303C44.3973 55.7762 44.3284 55.7241 44.2583 55.6741C44.1881 55.6241 44.1166 55.5761 44.0439 55.5302C43.9711 55.4839 43.897 55.4398 43.8217 55.3979C43.7463 55.3561 43.6698 55.316 43.5923 55.2779C43.515 55.2401 43.4367 55.2045 43.3573 55.1712C43.2778 55.1375 43.1975 55.106 43.1162 55.0767C43.0353 55.0478 42.9534 55.0209 42.8706 54.9961C42.7878 54.9716 42.7045 54.9494 42.6206 54.9294C42.5366 54.909 42.4524 54.8912 42.3678 54.876C42.2827 54.8605 42.1975 54.8474 42.1122 54.8366C42.0264 54.8258 41.9405 54.8175 41.8543 54.8116C41.7686 54.8053 41.6824 54.8016 41.596 54.8004C41.5098 54.7989 41.4237 54.7999 41.3376 54.8032C41.2514 54.8069 41.1654 54.8127 41.0792 54.8205C40.9935 54.8286 40.9079 54.8392 40.8225 54.8521C40.7375 54.8651 40.6527 54.8803 40.568 54.8977C40.4838 54.9151 40.3999 54.9349 40.3163 54.9572C40.2328 54.9791 40.1502 55.0033 40.0685 55.03C39.9865 55.0567 39.9052 55.0856 39.8246 55.1167C39.7441 55.1478 39.6646 55.181 39.5863 55.2162C39.5075 55.2517 39.4299 55.2894 39.3533 55.329C39.2768 55.3686 39.2014 55.4105 39.1272 55.4546C39.053 55.4983 38.98 55.5441 38.9083 55.5919C38.8366 55.6397 38.7663 55.6895 38.6973 55.7414C38.6283 55.7929 38.5608 55.8464 38.4948 55.902C38.4288 55.9576 38.3644 56.0148 38.3015 56.0737C38.2387 56.1326 38.1775 56.1932 38.118 56.2555C38.0584 56.3177 38.0007 56.3816 37.9447 56.4472C37.8887 56.5128 37.8345 56.5797 37.7822 56.6478C37.7299 56.7164 37.6795 56.7862 37.6311 56.8574C37.5826 56.9285 37.5362 57.0012 37.4917 57.0752C37.4472 57.149 37.4049 57.2239 37.3645 57.2998L16.8446 57.3276C16.7768 57.3276 16.7092 57.3231 16.6419 57.3142C16.5747 57.3053 16.5082 57.292 16.4427 57.2742C16.3772 57.2568 16.3131 57.2351 16.2503 57.2092C16.1876 57.1836 16.1268 57.154 16.0679 57.1203C16.0091 57.0865 15.9527 57.0491 15.8988 57.008C15.8448 56.9669 15.7937 56.9224 15.7455 56.8746C15.6974 56.8272 15.6525 56.7766 15.6109 56.7229C15.5693 56.6695 15.5314 56.6136 15.4971 56.555L14.8121 55.3657L1.64269 32.5789L0.801852 34.0128Z"   fill="#6DA230" >
</path>
</g>
<g >
<path     fill="#000000" fill-opacity="0.88" d="M122.752 36.368L122.752 42.08L103.648 42.08L103.648 55.28L96.88 55.28L96.88 38.576Q96.928 31.376 98.224 29.12Q99.856 25.952 102.952 24.608Q106.048 23.264 111.664 23.264L122.752 23.264L122.752 28.976L112.528 28.976Q107.776 29.072 106.432 29.744Q103.744 30.848 103.648 34.64L103.648 36.368L122.752 36.368ZM142.912 50.288L142.912 31.904L149.344 31.904L149.344 55.28L136.672 55.28Q133.936 55.28 132.448 54.872Q130.96 54.464 129.808 53.408Q127.36 51.2 127.36 46.256L127.36 31.904L133.744 31.904L133.744 46.928Q133.744 48.512 134.584 49.4Q135.424 50.288 136.864 50.288L142.912 50.288ZM175.936 31.904L175.936 36.896L164.56 36.896Q162.592 36.896 162.064 37.088Q160.96 37.472 160.96 38.96Q160.96 40.208 162.016 40.88Q162.592 41.264 165.136 41.264L168.928 41.264Q172.576 41.264 174.688 42.8Q177.04 44.528 177.04 47.888Q177.04 50.432 175.6 52.544Q174.544 54.224 173.032 54.752Q171.52 55.28 167.968 55.28L154.672 55.28L154.672 50.288L166.144 50.288Q168.256 50.288 169.024 50.24Q170.752 50.048 170.752 48.272Q170.752 46.832 169.6 46.304Q169.024 46.016 166.816 46.016L162.928 46.016Q160.624 46.016 159.4 45.728Q158.176 45.44 157.12 44.672Q155.824 43.76 155.08 42.152Q154.336 40.544 154.336 38.72Q154.336 35.216 156.88 33.152Q158.416 31.904 162.208 31.904L175.936 31.904ZM181.936 31.904L188.368 31.904L188.368 55.28L181.936 55.28L181.936 31.904ZM181.936 29.504L181.936 23.264L188.368 23.264L188.368 29.504L181.936 29.504ZM205.504 31.568Q211.984 31.568 215.056 35.312Q217.888 38.72 217.888 43.904Q217.888 49.376 214.336 52.64Q211.072 55.616 205.408 55.616Q199.552 55.616 196.24 52.256Q193.168 49.232 193.168 43.424Q193.168 38.528 196.096 35.264Q199.36 31.616 205.504 31.568ZM205.552 36.464Q199.744 36.464 199.744 43.664Q199.744 46.592 200.704 48.128Q202.288 50.72 205.6 50.72Q211.312 50.72 211.312 43.568Q211.312 36.56 205.552 36.464ZM222.64 31.904L235.024 31.904Q237.808 31.904 239.272 32.312Q240.736 32.72 241.936 33.776Q244.384 36.032 244.384 40.88L244.384 55.28L237.952 55.28L237.952 40.16Q237.952 38.432 237.184 37.664Q236.416 36.896 234.64 36.896L229.072 36.896L229.072 55.28L222.64 55.28L222.64 31.904ZM258.352 39.104L247.84 23.264L256.192 23.264L262.48 33.824L269.296 23.264L277.552 23.264L266.704 39.104L277.552 55.28L269.536 55.28L262.48 44.288L255.568 55.28L247.456 55.28L258.352 39.104Z">
</path>
</g>
<defs>
<clipPath id="clip-path-2_2">
<path d="M0 72L79 72L79 2L0 2L0 72Z" fill="white"/>
</clipPath>
</defs>
</svg>
