<svg xmlns="http://www.w3.org/2000/svg" xmlns:xlink="http://www.w3.org/1999/xlink" width="600" height="74" viewBox="0 0 600 74" fill="none">
<g  clip-path="url(#clip-path-1_25)">
<path d="M25.1926 45.8452C25.0025 45.7363 24.8057 45.6408 24.6023 45.559C24.3989 45.4774 24.1907 45.4104 23.9779 45.3578C23.7651 45.3051 23.5496 45.2676 23.3315 45.2449C23.1134 45.2223 22.8948 45.2149 22.6757 45.2227L12.3963 27.5046C12.3626 27.4457 12.3329 27.3849 12.3071 27.3223C12.2813 27.2596 12.2597 27.1957 12.2423 27.1305C12.2249 27.065 12.2118 26.9987 12.203 26.9316C12.1942 26.8645 12.1898 26.7971 12.1898 26.7293C12.1898 26.6615 12.1942 26.594 12.203 26.527C12.2118 26.4599 12.2249 26.3936 12.2423 26.328C12.2597 26.2628 12.2813 26.1989 12.3071 26.1363C12.3329 26.0736 12.3626 26.0129 12.3963 25.954L13.0867 24.7646L26.2562 1.97778L24.5857 1.97778C24.4551 1.97778 24.3246 1.98204 24.1942 1.99057C24.0639 1.99909 23.934 2.01187 23.8045 2.02892C23.675 2.04597 23.5462 2.06708 23.4181 2.09227C23.2899 2.11785 23.1628 2.14748 23.0366 2.1812C22.9104 2.21491 22.7855 2.25253 22.6618 2.29402C22.5381 2.3359 22.4158 2.38166 22.2951 2.4313C22.1744 2.48132 22.0554 2.53505 21.9382 2.59248C21.821 2.64991 21.7057 2.71104 21.5925 2.77588C21.4793 2.84109 21.3684 2.90982 21.2596 2.98208C21.1508 3.05433 21.0445 3.12991 20.9407 3.20883C20.837 3.28812 20.7358 3.37056 20.6374 3.45615C20.539 3.54174 20.4435 3.63066 20.3509 3.72293C20.2583 3.81481 20.1688 3.90948 20.0824 4.00692C19.996 4.10474 19.9129 4.20533 19.833 4.30871C19.7532 4.41171 19.6768 4.51731 19.6038 4.62551C19.5309 4.7337 19.4616 4.84411 19.3958 4.95675L8.54843 23.7364C8.48332 23.8494 8.42196 23.9644 8.36434 24.0816C8.30676 24.1983 8.25304 24.317 8.20319 24.4378C8.15337 24.5582 8.10752 24.6801 8.06565 24.8035C8.02381 24.9269 7.98604 25.0515 7.95233 25.1775C7.91862 25.3035 7.88907 25.4304 7.86368 25.5582C7.83825 25.6861 7.81703 25.8146 7.80003 25.944C7.78306 26.0733 7.77031 26.2029 7.76178 26.333C7.75327 26.4631 7.74902 26.5933 7.74902 26.7237C7.74902 26.8542 7.75327 26.9844 7.76178 27.1144C7.77031 27.2445 7.78306 27.3741 7.80003 27.5035C7.81703 27.6328 7.83825 27.7613 7.86368 27.8892C7.88907 28.017 7.91862 28.1439 7.95233 28.2699C7.98604 28.3959 8.02381 28.5205 8.06565 28.6439C8.10752 28.7673 8.15337 28.8892 8.20319 29.0096C8.25304 29.1304 8.30676 29.2492 8.36434 29.3659C8.42196 29.483 8.48332 29.598 8.54843 29.711L18.8446 47.4569L18.7833 47.5459C18.7446 47.6122 18.7076 47.6794 18.6722 47.7476C18.6368 47.8158 18.6032 47.8847 18.5712 47.9544C18.5392 48.024 18.509 48.0946 18.4805 48.1661C18.452 48.2372 18.4252 48.3091 18.4003 48.3817C18.3754 48.4544 18.3522 48.5275 18.3308 48.6013C18.3095 48.675 18.2899 48.7491 18.2722 48.8236C18.2545 48.8985 18.2386 48.9736 18.2246 49.0492C18.2106 49.1245 18.1985 49.2 18.1882 49.276C18.1779 49.3523 18.1695 49.4287 18.163 49.505C18.1565 49.5813 18.1518 49.6578 18.149 49.7345C18.1463 49.8112 18.1454 49.8879 18.1464 49.9646C18.1474 50.0417 18.1503 50.1184 18.1551 50.1947C18.1599 50.2714 18.1666 50.3479 18.1752 50.4242C18.1837 50.5005 18.1941 50.5765 18.2064 50.6521C18.2187 50.7277 18.2329 50.8031 18.2489 50.8783C18.2649 50.9535 18.2827 51.0282 18.3024 51.1023C18.3221 51.1764 18.3436 51.2499 18.3669 51.3229C18.3902 51.3963 18.4153 51.4689 18.4422 51.5408C18.4691 51.6126 18.4977 51.6838 18.528 51.7542C18.5584 51.8246 18.5905 51.8943 18.6243 51.9632C18.6581 52.0321 18.6936 52.1003 18.7308 52.1677C18.7679 52.2348 18.8067 52.3009 18.8472 52.3661C18.8876 52.4313 18.9296 52.4956 18.9732 52.559C19.0168 52.622 19.0619 52.684 19.1085 52.7451C19.1552 52.8063 19.2033 52.8661 19.2528 52.9247C19.3024 52.9832 19.3535 53.0406 19.4059 53.097C19.4583 53.1529 19.512 53.2077 19.5671 53.2615C19.6222 53.3148 19.6787 53.3669 19.7363 53.4176C19.794 53.4684 19.8529 53.5177 19.913 53.5655C19.9731 53.6133 20.0343 53.6596 20.0967 53.7044C20.1591 53.7493 20.2225 53.7926 20.2871 53.8345C20.3516 53.8763 20.4171 53.9166 20.4836 53.9551C20.5501 53.9936 20.6175 54.0305 20.6858 54.0657C20.7541 54.1008 20.8233 54.1344 20.8932 54.1663C20.9632 54.1982 21.0339 54.2281 21.1053 54.2563C21.1767 54.2848 21.2489 54.3115 21.3216 54.3363C21.3944 54.3612 21.4676 54.3841 21.5415 54.4052C21.6154 54.4264 21.6898 54.4458 21.7646 54.4636C21.8394 54.4811 21.9147 54.4968 21.9903 54.5108C22.0659 54.5246 22.1418 54.5366 22.218 54.547C22.2942 54.557 22.3706 54.5651 22.4472 54.5714C22.5239 54.5781 22.6006 54.5827 22.6774 54.5853C22.7543 54.5879 22.8311 54.5887 22.908 54.5875C22.9849 54.5864 23.0617 54.5835 23.1384 54.5787C23.2151 54.5738 23.2917 54.567 23.3681 54.5581C23.4445 54.5496 23.5206 54.5392 23.5965 54.527C23.6724 54.5144 23.7479 54.5001 23.8231 54.4842C23.8983 54.4682 23.973 54.4503 24.0473 54.4303C24.1216 54.4106 24.1954 54.3891 24.2686 54.3658C24.3419 54.3424 24.4145 54.3174 24.4865 54.2908C24.5585 54.2637 24.6298 54.235 24.7004 54.2046C24.771 54.1743 24.8407 54.1422 24.9097 54.1085C24.9787 54.0744 25.0469 54.0388 25.1142 54.0018C25.1814 53.9647 25.2477 53.9258 25.3131 53.885C25.3784 53.8446 25.4428 53.8028 25.506 53.7594C25.5693 53.7157 25.6315 53.6705 25.6926 53.6238C25.7536 53.5771 25.8135 53.5292 25.8722 53.4799C25.9309 53.4302 25.9884 53.3793 26.0445 53.327C26.1007 53.2744 26.1556 53.2207 26.2091 53.1659C26.2627 53.1107 26.3148 53.0542 26.3656 52.9964C26.4163 52.9389 26.4657 52.8802 26.5135 52.8202C26.5614 52.7602 26.6078 52.6988 26.6526 52.6362C26.6975 52.574 26.7408 52.5106 26.7825 52.4461C26.8242 52.3817 26.8644 52.3163 26.9029 52.2499C26.9414 52.1836 26.9783 52.1164 27.0135 52.0482C27.0487 51.9801 27.0822 51.9109 27.114 51.8409C27.1458 51.7713 27.1758 51.7007 27.2042 51.6291C27.2325 51.558 27.2591 51.4861 27.2839 51.4135C27.3086 51.3405 27.3316 51.2672 27.3528 51.1934C27.374 51.1197 27.3933 51.0456 27.4109 50.9711C27.4284 50.8962 27.4441 50.821 27.4579 50.7455C27.4717 50.6703 27.4837 50.5945 27.4938 50.5182C27.5039 50.4422 27.5121 50.3659 27.5185 50.2892C27.5248 50.2129 27.5293 50.1363 27.5318 50.0596C27.5344 49.9829 27.5351 49.9062 27.5339 49.8295C27.5327 49.7528 27.5296 49.6761 27.5246 49.5995C27.5197 49.5231 27.5128 49.4468 27.5041 49.3705C27.4953 49.2942 27.4847 49.2182 27.4722 49.1426C27.4598 49.0666 27.4455 48.9913 27.4293 48.9164C27.413 48.8416 27.3951 48.7669 27.3752 48.6924C27.3553 48.6183 27.3336 48.5448 27.3101 48.4718C27.2867 48.3988 27.2614 48.3263 27.2344 48.2545C27.2073 48.1826 27.1785 48.1115 27.1479 48.0411C27.1174 47.9706 27.0851 47.901 27.0512 47.8321C27.0172 47.7636 26.9815 47.6958 26.9442 47.6287C26.9069 47.5613 26.8679 47.4949 26.8274 47.4297C26.7868 47.3648 26.7446 47.3008 26.7009 47.2374C26.6571 47.1744 26.6119 47.1125 26.5651 47.0518C26.5182 46.9906 26.47 46.9308 26.4203 46.8723C26.3706 46.8137 26.3194 46.7565 26.2669 46.7005C26.2143 46.6446 26.1604 46.5899 26.1052 46.5366C26.0499 46.4832 25.9934 46.4311 25.9356 46.3804C25.8778 46.33 25.8188 46.2809 25.7586 46.2331C25.6984 46.1853 25.637 46.1392 25.5745 46.0947C25.512 46.0499 25.4485 46.0067 25.3838 45.9652C25.3192 45.9238 25.2536 45.8837 25.187 45.8452L25.1926 45.8452Z"   fill="#2E73BA" >
</path>
<path d="M61.8053 41.8713C61.7014 41.8717 61.5975 41.8754 61.4935 41.8824C61.3895 41.8895 61.2862 41.9 61.1833 41.9141C61.0802 41.9282 60.9775 41.9456 60.8754 41.9663C60.7737 41.9871 60.6727 42.0114 60.5725 42.0391C60.4719 42.0666 60.3726 42.0973 60.2746 42.1314C60.1762 42.1655 60.0791 42.2029 59.9833 42.2437C59.8876 42.284 59.7933 42.3278 59.7005 42.3748C59.6076 42.4215 59.5165 42.4713 59.427 42.5243C59.3376 42.5773 59.2498 42.6331 59.1637 42.6916C59.0779 42.7505 58.9942 42.8122 58.9125 42.8767C58.8308 42.9408 58.7514 43.0077 58.6742 43.0773C58.597 43.147 58.5222 43.2191 58.4498 43.2935C58.3774 43.368 58.3076 43.4449 58.2404 43.5242C58.1729 43.6035 58.1083 43.6848 58.0466 43.7681C57.9846 43.8515 57.9256 43.9369 57.8695 44.0244C57.8131 44.1118 57.7598 44.2011 57.7097 44.2923C57.6596 44.383 57.6124 44.4755 57.5683 44.5696C57.5241 44.6637 57.4833 44.7591 57.4458 44.8558C57.4079 44.9525 57.3736 45.0505 57.3428 45.1498C57.3116 45.2487 57.2837 45.3488 57.2592 45.4499C57.2347 45.5507 57.2136 45.6522 57.1958 45.7545C57.1779 45.8568 57.1636 45.9596 57.1529 46.0629C57.1421 46.1663 57.1347 46.2699 57.1306 46.3736C57.1269 46.4774 57.1265 46.5811 57.1295 46.6849C57.1324 46.7886 57.1388 46.8922 57.1484 46.9955C57.1584 47.0989 57.1718 47.2019 57.1885 47.3046C57.2052 47.4072 57.2254 47.5091 57.2492 47.6102C57.2726 47.7114 57.2995 47.8116 57.33 47.9109C57.36 48.0102 57.3934 48.1084 57.4302 48.2055C57.4669 48.3026 57.507 48.3983 57.5505 48.4928C57.5935 48.5873 57.6397 48.6803 57.6891 48.7718C57.7385 48.8633 57.7909 48.953 57.8462 49.0408L47.6113 66.7923C47.5775 66.8508 47.54 66.907 47.4988 66.9607C47.4576 67.014 47.4131 67.0646 47.3652 67.1124C47.3173 67.1602 47.2664 67.2047 47.2126 67.2458C47.1587 67.2869 47.1025 67.3243 47.0439 67.3581C46.9852 67.3918 46.9247 67.4216 46.8623 67.4475C46.7996 67.4735 46.7355 67.4952 46.6702 67.5126C46.6049 67.53 46.5386 67.5431 46.4714 67.552C46.4042 67.5605 46.3368 67.5648 46.2693 67.5648L18.5605 67.5648L19.3902 68.9987C19.4553 69.1117 19.524 69.2225 19.5964 69.3311C19.6687 69.4396 19.7446 69.5458 19.8239 69.6495C19.9033 69.7529 19.9859 69.8539 20.0718 69.9524C20.1578 70.0506 20.2468 70.1458 20.3391 70.2381C20.4312 70.3304 20.5264 70.4197 20.6244 70.506C20.7225 70.592 20.8233 70.6748 20.9268 70.7544C21.0303 70.8341 21.1363 70.9102 21.2448 70.9828C21.3533 71.0555 21.4641 71.1244 21.5771 71.1896C21.6901 71.2552 21.8052 71.3169 21.9222 71.3747C22.0393 71.4325 22.1582 71.4864 22.2788 71.5364C22.3994 71.5864 22.5215 71.6325 22.6452 71.6748C22.7688 71.717 22.8938 71.755 23.0199 71.7887C23.146 71.8228 23.2732 71.8526 23.4013 71.8782C23.5294 71.9038 23.6582 71.925 23.7877 71.9421C23.9172 71.9595 24.0471 71.9725 24.1775 71.981C24.3078 71.9899 24.4383 71.9944 24.5689 71.9944L46.286 71.9944C46.4167 71.994 46.5472 71.9895 46.6775 71.981C46.8078 71.9721 46.9377 71.9592 47.0673 71.9421C47.1968 71.9247 47.3256 71.9032 47.4537 71.8776C47.5818 71.8521 47.7087 71.8222 47.8346 71.7882C47.9608 71.7541 48.0857 71.7161 48.2093 71.6742C48.333 71.632 48.4551 71.5859 48.5758 71.5358C48.6964 71.4858 48.8152 71.4317 48.9321 71.3736C49.0495 71.3158 49.1645 71.2542 49.2774 71.189C49.3906 71.1235 49.5014 71.0544 49.6098 70.9817C49.7182 70.9091 49.8242 70.8332 49.9278 70.7539C50.0314 70.6742 50.1321 70.5914 50.2301 70.5054C50.3282 70.4191 50.4232 70.3298 50.5153 70.2375C50.6077 70.1453 50.6968 70.05 50.7825 69.9519C50.8687 69.8537 50.9514 69.7527 51.0309 69.649C51.1104 69.5456 51.1863 69.4396 51.2586 69.3311C51.331 69.2225 51.3997 69.1117 51.4647 68.9987L61.7107 51.2139L61.822 51.2139C61.8989 51.2139 61.9757 51.2121 62.0526 51.2083C62.129 51.2046 62.2055 51.1989 62.282 51.1911C62.3585 51.1837 62.4347 51.1744 62.5109 51.1633C62.587 51.1518 62.6627 51.1387 62.7381 51.1239C62.8134 51.109 62.8882 51.0922 62.9625 51.0733C63.0371 51.0548 63.1111 51.0344 63.1847 51.0121C63.2582 50.9899 63.3311 50.9658 63.4035 50.9399C63.4759 50.9139 63.5476 50.8864 63.6184 50.8571C63.6893 50.8278 63.7595 50.7968 63.8289 50.7643C63.8984 50.7313 63.967 50.6968 64.035 50.6609C64.1025 50.6246 64.1693 50.5868 64.2354 50.5475C64.3011 50.5079 64.3659 50.4668 64.4298 50.4241C64.494 50.3815 64.5569 50.3374 64.6185 50.2919C64.6802 50.2463 64.7407 50.199 64.8001 50.1501C64.8595 50.1016 64.9176 50.0516 64.9744 50.0001C65.0316 49.9486 65.0872 49.8958 65.1414 49.8417C65.1956 49.7876 65.2485 49.732 65.3001 49.6749C65.3517 49.6183 65.4019 49.5603 65.4505 49.501C65.4995 49.4417 65.5468 49.3813 65.5925 49.3198C65.6381 49.2579 65.6823 49.1951 65.725 49.1314C65.7677 49.0676 65.8089 49.003 65.8486 48.9374C65.888 48.8715 65.9258 48.8048 65.9622 48.7374C65.9982 48.6695 66.0328 48.601 66.0658 48.5317C66.0985 48.4624 66.1294 48.3924 66.1588 48.3216C66.1881 48.2509 66.2157 48.1794 66.2417 48.1071C66.2678 48.0349 66.2919 47.962 66.3141 47.8887C66.3364 47.8153 66.3568 47.7414 66.3754 47.6669C66.3943 47.5928 66.4112 47.5181 66.4261 47.4429C66.4409 47.3677 66.4541 47.2921 66.4656 47.2162C66.4767 47.1402 66.486 47.0641 66.4934 46.9878C66.5012 46.9114 66.507 46.8351 66.5107 46.7588C66.5144 46.6821 66.5163 46.6054 66.5163 46.5287C66.5163 46.452 66.5144 46.3753 66.5107 46.2986C66.507 46.2223 66.5012 46.146 66.4934 46.0696C66.486 45.9933 66.4767 45.9171 66.4656 45.8412C66.4541 45.7653 66.4409 45.6897 66.4261 45.6144C66.4112 45.5392 66.3943 45.4646 66.3754 45.3905C66.3568 45.316 66.3364 45.2421 66.3141 45.1687C66.2919 45.0953 66.2678 45.0225 66.2417 44.9503C66.2157 44.878 66.1881 44.8065 66.1588 44.7358C66.1294 44.665 66.0985 44.595 66.0658 44.5257C66.0328 44.4564 65.9982 44.3878 65.9622 44.32C65.9258 44.2526 65.888 44.1859 65.8486 44.12C65.8089 44.0544 65.7677 43.9895 65.725 43.9254C65.6823 43.8617 65.6381 43.7991 65.5925 43.7376C65.5468 43.6761 65.4995 43.6157 65.4505 43.5564C65.4019 43.4971 65.3517 43.4391 65.3001 43.3824C65.2485 43.3254 65.1956 43.2698 65.1414 43.2157C65.0872 43.1616 65.0316 43.1088 64.9744 43.0573C64.9176 43.0058 64.8595 42.9558 64.8001 42.9073C64.7407 42.8583 64.6802 42.8111 64.6185 42.7655C64.5569 42.72 64.494 42.6759 64.4298 42.6333C64.3659 42.5907 64.3011 42.5495 64.2354 42.5099C64.1693 42.4706 64.1025 42.4328 64.035 42.3965C63.967 42.3606 63.8984 42.3261 63.8289 42.2931C63.7595 42.2605 63.6893 42.2296 63.6184 42.2003C63.5476 42.171 63.4759 42.1434 63.4035 42.1175C63.3311 42.0916 63.2582 42.0675 63.1847 42.0453C63.1111 42.023 63.0371 42.0026 62.9625 41.9841C62.8882 41.9652 62.8134 41.9484 62.7381 41.9335C62.6627 41.9187 62.587 41.9056 62.5109 41.8941C62.4347 41.883 62.3585 41.8737 62.282 41.8663C62.2055 41.8585 62.129 41.8528 62.0526 41.8491C61.9757 41.8454 61.8989 41.8435 61.822 41.8435L61.8053 41.8713Z"   fill="#2E73BA" >
</path>
<path d="M74.2565 44.2887L63.9604 26.5428L64.0217 26.4538C64.0651 26.3798 64.1065 26.3043 64.1459 26.2276C64.1848 26.1513 64.222 26.0739 64.2572 25.9953C64.2921 25.9168 64.3248 25.8373 64.3552 25.7569C64.386 25.6765 64.4144 25.5956 64.4404 25.514C64.4668 25.4322 64.4907 25.3495 64.5123 25.2662C64.5338 25.1828 64.5531 25.099 64.5702 25.0149C64.5873 24.9308 64.6019 24.8462 64.6142 24.761C64.6264 24.6761 64.6364 24.5909 64.6442 24.5053C64.6516 24.4197 64.6569 24.3339 64.6598 24.248C64.6628 24.162 64.6633 24.076 64.6615 23.9901C64.6597 23.9041 64.6555 23.8184 64.6492 23.7328C64.6426 23.6472 64.6337 23.5618 64.6225 23.4766C64.611 23.3913 64.5975 23.3065 64.5819 23.222C64.5659 23.1375 64.5475 23.0536 64.5267 22.9702C64.5063 22.8865 64.4835 22.8035 64.4582 22.7213C64.4333 22.6394 64.4061 22.558 64.3764 22.4773C64.3467 22.3965 64.315 22.3167 64.2812 22.2377C64.247 22.1588 64.2108 22.0808 64.1726 22.0038C64.1343 21.9267 64.0941 21.8507 64.0517 21.7759C64.009 21.7014 63.9645 21.6278 63.9181 21.5552C63.8717 21.483 63.8233 21.412 63.7728 21.3424C63.7223 21.2727 63.6699 21.2045 63.6157 21.1378C63.5616 21.0712 63.5056 21.0059 63.4481 20.9422C63.3902 20.8785 63.3306 20.8162 63.2694 20.7555C63.2085 20.6951 63.1458 20.6364 63.0812 20.5793C63.0166 20.5222 62.9507 20.467 62.8835 20.4137C62.8159 20.3603 62.7471 20.3088 62.6769 20.2592C62.6063 20.2095 62.5347 20.1619 62.4619 20.1163C62.3888 20.0708 62.3148 20.027 62.2398 19.9852C62.1644 19.9437 62.0879 19.9042 62.0103 19.8668C61.9328 19.8294 61.8543 19.7942 61.7748 19.7612C61.6953 19.7279 61.615 19.6967 61.5337 19.6678C61.4528 19.6393 61.3709 19.613 61.2881 19.5889C61.2057 19.5645 61.1226 19.5424 61.0386 19.5228C60.9547 19.5031 60.8705 19.4857 60.7858 19.4705C60.7012 19.4557 60.616 19.4431 60.5302 19.4327C60.4449 19.4224 60.3593 19.4142 60.2735 19.4083C60.1874 19.4027 60.1013 19.3996 60.0151 19.3988C59.929 19.3977 59.8431 19.399 59.7573 19.4027C59.6712 19.4064 59.5853 19.4125 59.4995 19.4211C59.4138 19.4296 59.3284 19.4403 59.2434 19.4533C59.1584 19.4666 59.0737 19.4822 58.9894 19.5C58.9052 19.5178 58.8215 19.5378 58.7383 19.56C58.6551 19.5826 58.5727 19.6074 58.4911 19.6345C58.4094 19.6611 58.3285 19.6902 58.2483 19.7217C58.1681 19.7529 58.0888 19.7864 58.0105 19.8223C57.9322 19.8579 57.8548 19.8957 57.7783 19.9357C57.7022 19.9757 57.6272 20.0178 57.5533 20.0619C57.4795 20.106 57.4067 20.1519 57.335 20.1997C57.2638 20.2479 57.1938 20.2979 57.1251 20.3498C57.0564 20.4016 56.9892 20.4554 56.9235 20.5109C56.8582 20.5665 56.7942 20.6238 56.7314 20.6827C56.6691 20.7419 56.6082 20.8027 56.5488 20.865C56.4897 20.9276 56.4324 20.9917 56.3767 21.0573C56.321 21.1228 56.2672 21.1899 56.2152 21.2585C56.1632 21.327 56.1133 21.3968 56.0654 21.468C56.0172 21.5391 55.971 21.6117 55.9268 21.6858C55.8826 21.7596 55.8407 21.8344 55.8009 21.9104C55.7608 21.9867 55.723 22.064 55.6873 22.1421C55.6513 22.2203 55.6177 22.2994 55.5865 22.3795C55.555 22.4595 55.5258 22.5403 55.4991 22.6218C55.472 22.7033 55.4473 22.7855 55.4251 22.8685C55.4024 22.9515 55.3822 23.0351 55.3644 23.1192C55.3465 23.2033 55.3311 23.2878 55.3181 23.3726C55.3051 23.4575 55.2944 23.5427 55.2858 23.6283C55.2773 23.7139 55.2712 23.7997 55.2675 23.8856C55.2638 23.9712 55.2625 24.057 55.2636 24.1429C55.2643 24.2289 55.2677 24.3149 55.2736 24.4008C55.2792 24.4864 55.2871 24.5718 55.2975 24.657C55.3079 24.7426 55.3207 24.8277 55.336 24.9121C55.3512 24.9966 55.3686 25.0807 55.3883 25.1644C55.408 25.2482 55.4301 25.3312 55.4546 25.4134C55.4787 25.4961 55.5052 25.5778 55.5342 25.6585C55.5628 25.7397 55.5938 25.8199 55.6272 25.8992C55.6602 25.9785 55.6955 26.0569 55.733 26.1343C55.7709 26.2114 55.8106 26.2875 55.8522 26.3627C55.8937 26.4379 55.9375 26.512 55.9836 26.585C56.0292 26.6577 56.0769 26.729 56.1267 26.799C56.1764 26.869 56.228 26.9378 56.2815 27.0052C56.3353 27.0726 56.3908 27.1384 56.448 27.2025C56.5052 27.2669 56.564 27.3298 56.6245 27.3909C56.685 27.4516 56.7472 27.5109 56.811 27.5687C56.8749 27.6261 56.9404 27.6819 57.0076 27.736C57.0744 27.7901 57.1427 27.8423 57.2125 27.8928C57.2823 27.9432 57.3534 27.9915 57.4258 28.0378C57.4982 28.0841 57.5719 28.1284 57.6469 28.1706C57.7219 28.2129 57.798 28.2533 57.8752 28.2918C57.9524 28.33 58.0305 28.3659 58.1096 28.3996C58.1887 28.4334 58.2687 28.465 58.3496 28.4947C58.4305 28.5243 58.5122 28.5515 58.5946 28.5764C58.6767 28.6015 58.7596 28.6243 58.8435 28.6447C58.9271 28.6651 59.0112 28.6832 59.0958 28.6992C59.1804 28.7151 59.2654 28.7286 59.3508 28.7398C59.4362 28.7509 59.5218 28.7598 59.6075 28.7664C59.6933 28.7727 59.7792 28.7768 59.8654 28.7787C59.9515 28.7805 60.0376 28.7799 60.1237 28.777L70.4087 46.4951C70.4421 46.554 70.4716 46.6148 70.4973 46.6774C70.5229 46.7401 70.5442 46.8041 70.5613 46.8697C70.5787 46.9349 70.5918 47.0011 70.6003 47.0681C70.6092 47.1352 70.6136 47.2026 70.6136 47.2704C70.6136 47.3382 70.6092 47.4057 70.6003 47.4727C70.5918 47.5398 70.5787 47.606 70.5613 47.6712C70.5442 47.7367 70.5229 47.8008 70.4973 47.8635C70.4716 47.9261 70.4421 47.9868 70.4087 48.0457L69.7182 49.2351L56.571 71.9941L58.2416 71.9941C58.3723 71.9941 58.5026 71.9899 58.6325 71.9814C58.7628 71.9729 58.8927 71.9601 59.0223 71.943C59.1515 71.9259 59.2801 71.9048 59.4082 71.8797C59.5363 71.8541 59.6634 71.8245 59.7896 71.7907C59.9155 71.7574 60.0402 71.7198 60.1638 71.6779C60.2874 71.6361 60.4096 71.5903 60.5302 71.5406C60.6509 71.4906 60.7699 71.4369 60.8872 71.3795C61.0041 71.322 61.1192 71.2609 61.2324 71.196C61.3456 71.1309 61.4564 71.0621 61.5649 70.9899C61.6736 70.9176 61.7798 70.842 61.8834 70.7631C61.987 70.6838 62.0879 70.6014 62.1863 70.5158C62.2847 70.4298 62.3801 70.3409 62.4725 70.249C62.565 70.1571 62.6544 70.0623 62.7409 69.9644C62.8271 69.867 62.91 69.7666 62.9898 69.6632C63.0693 69.5602 63.1454 69.4546 63.2181 69.3464C63.2909 69.2382 63.3601 69.1278 63.4258 69.0152L74.2788 50.2577C74.3434 50.1447 74.4043 50.0295 74.4615 49.912C74.5183 49.7949 74.5713 49.6762 74.6207 49.5558C74.6701 49.4354 74.7154 49.3133 74.7566 49.1895C74.7978 49.0662 74.8351 48.9415 74.8685 48.8155C74.9015 48.6895 74.9305 48.5626 74.9554 48.4348C74.9803 48.307 75.0009 48.1784 75.0172 48.0491C75.0339 47.9201 75.0461 47.7906 75.0539 47.6606C75.0621 47.5305 75.066 47.4005 75.0656 47.2704C75.0649 47.14 75.0601 47.0099 75.0512 46.8803C75.0423 46.7502 75.0291 46.6207 75.0116 46.4918C74.9942 46.3625 74.9726 46.2341 74.947 46.1066C74.921 45.9788 74.891 45.8521 74.8568 45.7265C74.8227 45.6009 74.7844 45.4764 74.7421 45.353C74.7002 45.23 74.654 45.1083 74.6035 44.9879C74.5533 44.8678 74.4993 44.7494 74.4414 44.6327C74.3835 44.516 74.3219 44.4014 74.2565 44.2887Z"   fill="#6DA230" >
</path>
<path d="M80.2038 33.9793L69.3787 15.2219C69.3133 15.1089 69.2442 14.9983 69.1715 14.8901C69.0987 14.7815 69.0226 14.6756 68.9432 14.5722C68.8634 14.4688 68.7804 14.368 68.6943 14.2698C68.6078 14.172 68.5183 14.077 68.4259 13.9847C68.3335 13.8928 68.238 13.8039 68.1397 13.7179C68.0413 13.632 67.9403 13.5494 67.8367 13.4701C67.7328 13.3908 67.6264 13.315 67.5177 13.2428C67.4089 13.1705 67.2979 13.1018 67.1847 13.0366C67.0714 12.9717 66.9561 12.9106 66.8389 12.8532C66.7215 12.7957 66.6024 12.7422 66.4814 12.6925C66.3607 12.6429 66.2384 12.5971 66.1144 12.5553C65.9904 12.5138 65.8653 12.4762 65.7391 12.4424C65.6129 12.4091 65.4855 12.3798 65.3571 12.3546C65.229 12.3294 65.1002 12.3085 64.9707 12.2918C64.8411 12.2752 64.7109 12.2627 64.5803 12.2546C64.45 12.2464 64.3195 12.2425 64.1888 12.2429L43.6467 12.2707L43.5966 12.1707C43.5539 12.0958 43.5092 12.0223 43.4624 11.95C43.4156 11.8778 43.3668 11.8066 43.316 11.7366C43.2654 11.667 43.2129 11.5988 43.1584 11.5321C43.1041 11.4654 43.0479 11.4002 42.9896 11.3365C42.9317 11.2727 42.8719 11.2107 42.8103 11.1503C42.7491 11.0899 42.6862 11.0311 42.6216 10.9741C42.5566 10.917 42.4903 10.8618 42.4228 10.8085C42.3548 10.7551 42.2856 10.7038 42.2151 10.6545C42.1445 10.6049 42.0727 10.5573 41.9996 10.5117C41.9264 10.4661 41.852 10.4226 41.7763 10.3811C41.7009 10.3396 41.6243 10.3001 41.5463 10.2627C41.4686 10.2256 41.3898 10.1906 41.3101 10.1577C41.2304 10.1247 41.1499 10.0939 41.0685 10.0654C40.9871 10.0365 40.905 10.0102 40.8221 9.98647C40.7393 9.96239 40.6558 9.94052 40.5718 9.92088C40.4877 9.90161 40.4033 9.88459 40.3183 9.86976C40.2333 9.85494 40.1479 9.84234 40.0622 9.83197C39.9766 9.82197 39.8907 9.81418 39.8046 9.80862C39.7185 9.80343 39.6323 9.80048 39.546 9.79973C39.4598 9.79898 39.3735 9.80066 39.2873 9.80473C39.2012 9.8088 39.1152 9.81511 39.0293 9.82363C38.9435 9.83252 38.858 9.84364 38.7728 9.85697C38.6876 9.87068 38.6028 9.88662 38.5184 9.90477C38.4341 9.92256 38.3503 9.94293 38.2671 9.96591C38.1839 9.98851 38.1013 10.0135 38.0195 10.0409C37.9377 10.068 37.8566 10.0974 37.7764 10.1293C37.6962 10.1608 37.6169 10.1947 37.5385 10.231C37.4602 10.267 37.3829 10.3051 37.3067 10.3455C37.2304 10.3855 37.1553 10.4278 37.0814 10.4722C37.0075 10.5167 36.9349 10.5632 36.8635 10.6117C36.7921 10.6599 36.7222 10.7101 36.6536 10.7623C36.585 10.8146 36.5179 10.8687 36.4523 10.9246C36.3867 10.9806 36.3227 11.0384 36.2603 11.098C36.1978 11.1573 36.1371 11.2184 36.078 11.2814C36.019 11.344 35.9617 11.4083 35.9062 11.4743C35.8507 11.5402 35.797 11.6077 35.7453 11.6766C35.6935 11.7455 35.6436 11.8157 35.5957 11.8872C35.5478 11.9587 35.5018 12.0315 35.4579 12.1056C35.414 12.1798 35.3722 12.255 35.3324 12.3313C35.2927 12.408 35.255 12.4854 35.2195 12.5636C35.1841 12.6422 35.1508 12.7216 35.1196 12.802C35.0885 12.8824 35.0597 12.9636 35.033 13.0455C35.0063 13.1273 34.982 13.21 34.9599 13.2933C34.9378 13.3763 34.918 13.4601 34.9005 13.5446C34.8831 13.6287 34.868 13.7133 34.8551 13.7985C34.8423 13.8838 34.8319 13.9692 34.8238 14.0548C34.8157 14.1407 34.8099 14.2267 34.8066 14.3126C34.8032 14.3986 34.8022 14.4847 34.8036 14.5711C34.805 14.657 34.8087 14.743 34.8148 14.829C34.8209 14.9149 34.8294 15.0005 34.8403 15.0857C34.8511 15.1713 34.8643 15.2563 34.8798 15.3408C34.8954 15.4257 34.9132 15.5099 34.9334 15.5937C34.9535 15.6774 34.976 15.7606 35.0008 15.8432C35.0255 15.9255 35.0525 16.0072 35.0818 16.0883C35.111 16.1691 35.1425 16.2491 35.1762 16.3284C35.2098 16.4077 35.2457 16.4861 35.2836 16.5635C35.3216 16.6409 35.3617 16.7171 35.4039 16.7919C35.4461 16.8671 35.4903 16.9411 35.5366 17.0137C35.5828 17.0863 35.6311 17.1576 35.6813 17.2277C35.7315 17.2981 35.7836 17.3668 35.8375 17.4339C35.8915 17.5009 35.9473 17.5665 36.0049 17.6306C36.0624 17.6947 36.1217 17.7572 36.1828 17.8179C36.2438 17.879 36.3065 17.9383 36.3708 17.9958C36.4351 18.0532 36.5009 18.1088 36.5683 18.1625C36.6356 18.2162 36.7044 18.2681 36.7746 18.3181C36.8449 18.3681 36.9164 18.4163 36.9893 18.4626C37.0621 18.5086 37.1362 18.5525 37.2116 18.5943C37.2868 18.6366 37.3632 18.6766 37.4408 18.7144C37.5182 18.7522 37.5967 18.7879 37.6762 18.8216C37.7557 18.855 37.836 18.8863 37.9172 18.9156C37.9984 18.9445 38.0803 18.9713 38.163 18.9962C38.2457 19.0206 38.3289 19.0428 38.4128 19.0628C38.4967 19.0829 38.5811 19.1006 38.666 19.1162C38.7509 19.1318 38.8361 19.1449 38.9217 19.1557C39.0074 19.1664 39.0932 19.1748 39.1792 19.1807C39.2653 19.1866 39.3515 19.1903 39.4377 19.1918C39.524 19.1929 39.6102 19.1918 39.6964 19.1884C39.7826 19.1847 39.8687 19.1788 39.9546 19.1707C40.0405 19.1625 40.126 19.1522 40.2113 19.1395C40.2967 19.1266 40.3815 19.1114 40.4661 19.094C40.5505 19.0762 40.6344 19.0563 40.7178 19.0345C40.8012 19.0123 40.8839 18.9878 40.9659 18.9611C41.048 18.9345 41.1292 18.9056 41.2096 18.8744C41.29 18.8433 41.3696 18.81 41.4482 18.7744C41.527 18.7388 41.6045 18.7012 41.6811 18.6616C41.7575 18.6219 41.8328 18.58 41.9071 18.536C41.9814 18.4922 42.0543 18.4463 42.126 18.3981C42.1976 18.3503 42.268 18.3005 42.337 18.2486C42.4057 18.1971 42.4731 18.1436 42.5392 18.088C42.6052 18.0324 42.6696 17.9752 42.7324 17.9163C42.7955 17.8574 42.8567 17.7968 42.9161 17.7345C42.9755 17.6719 43.0332 17.6078 43.0893 17.5422C43.1453 17.4767 43.1994 17.4098 43.2514 17.3416C43.3037 17.2731 43.3542 17.2031 43.4028 17.1315C43.451 17.0604 43.4975 16.988 43.542 16.9142C43.5862 16.8405 43.6285 16.7654 43.669 16.6891L64.1833 16.6613C64.2512 16.6617 64.3188 16.6663 64.386 16.6752C64.4531 16.6841 64.5194 16.6975 64.5848 16.7152C64.6505 16.7326 64.7147 16.7543 64.7774 16.7803C64.8401 16.8062 64.9008 16.836 64.9595 16.8698C65.0182 16.9035 65.0746 16.9407 65.1288 16.9815C65.1826 17.0226 65.2337 17.0671 65.2819 17.1148C65.3302 17.1623 65.3751 17.2127 65.4167 17.266C65.4582 17.3198 65.4963 17.3757 65.5308 17.4339L66.2158 18.6232L79.3796 41.41L80.2149 39.9706C80.2806 39.8572 80.3424 39.742 80.4003 39.6249C80.4583 39.5075 80.5124 39.3883 80.5629 39.2675C80.6131 39.1468 80.6591 39.0245 80.701 38.9007C80.7434 38.7766 80.7814 38.6513 80.8152 38.525C80.8489 38.3987 80.8787 38.2714 80.9043 38.1432C80.9295 38.0146 80.9507 37.8855 80.9678 37.7558C80.9848 37.6261 80.9975 37.4961 81.0056 37.3657C81.0142 37.2349 81.0182 37.1041 81.0179 36.9733C81.0175 36.8425 81.013 36.7119 81.0045 36.5815C80.9956 36.451 80.9824 36.321 80.965 36.1913C80.9475 36.0616 80.9258 35.9327 80.8998 35.8045C80.8738 35.6763 80.8436 35.549 80.8091 35.4227C80.7749 35.2963 80.7365 35.1713 80.6938 35.0475C80.6515 34.9237 80.6049 34.8017 80.554 34.6813C80.5035 34.5605 80.449 34.4416 80.3903 34.3245C80.332 34.2073 80.2698 34.0923 80.2038 33.9793Z"   fill="#2E73BA" >
</path>
<path d="M63.4426 5.00131C63.3773 4.88867 63.3084 4.77807 63.236 4.66952C63.1637 4.56133 63.0879 4.45554 63.0089 4.35217C62.9295 4.24879 62.8468 4.14819 62.7611 4.05038C62.675 3.95219 62.5859 3.85716 62.4938 3.76527C62.4017 3.67301 62.3067 3.5839 62.2087 3.49794C62.1107 3.41199 62.0099 3.32935 61.9063 3.25006C61.8031 3.17076 61.6973 3.09482 61.5889 3.02219C61.4805 2.94958 61.3699 2.88065 61.257 2.81545C61.1441 2.75023 61.0293 2.68872 60.9123 2.63093C60.7954 2.5735 60.6766 2.51977 60.5559 2.46975C60.4357 2.41973 60.3137 2.3736 60.1901 2.33137C60.0669 2.28949 59.9421 2.25152 59.8159 2.21742C59.69 2.18371 59.5633 2.15389 59.4356 2.12796C59.3075 2.10238 59.1789 2.08108 59.0497 2.06403C58.9205 2.04663 58.7907 2.03347 58.6604 2.02458C58.5301 2.01605 58.3998 2.0116 58.2695 2.01123L36.5525 2.01123C36.4219 2.0116 36.2916 2.01623 36.1613 2.02512C36.0311 2.03403 35.9013 2.04698 35.7719 2.06403C35.6426 2.08145 35.5139 2.10294 35.3859 2.1285C35.2579 2.15445 35.131 2.18427 35.005 2.21798C34.879 2.25208 34.7542 2.29005 34.6306 2.33191C34.5071 2.37416 34.3851 2.42029 34.2645 2.47031C34.144 2.52033 34.0253 2.57423 33.9083 2.63203C33.7913 2.68984 33.6763 2.75134 33.5633 2.81656C33.4503 2.88177 33.3396 2.95049 33.2311 3.02275C33.1226 3.09537 33.0166 3.17132 32.9131 3.25062C32.8095 3.32991 32.7087 3.41253 32.6106 3.49848C32.5125 3.58446 32.4173 3.67356 32.325 3.76582C32.2327 3.8577 32.1434 3.95256 32.0574 4.05038C31.9713 4.14856 31.8885 4.24916 31.8089 4.35217C31.7294 4.45554 31.6534 4.56133 31.5807 4.66952C31.5081 4.77807 31.4391 4.88867 31.3738 5.00131L21.1278 22.7861L21.0164 22.7861C20.9304 22.7861 20.8444 22.7885 20.7585 22.7934C20.6726 22.7985 20.5869 22.8058 20.5014 22.815C20.4159 22.8247 20.3308 22.8367 20.246 22.8512C20.1611 22.8652 20.0768 22.8817 19.9928 22.9006C19.9089 22.9195 19.8256 22.9406 19.7428 22.964C19.66 22.9873 19.578 23.0131 19.4967 23.0412C19.4153 23.069 19.3348 23.0992 19.2551 23.1318C19.1754 23.1641 19.0967 23.1985 19.0189 23.2352C18.9411 23.2719 18.8644 23.3106 18.7887 23.3514C18.7131 23.3925 18.6387 23.4355 18.5654 23.4803C18.4921 23.5252 18.4201 23.5722 18.3494 23.6215C18.2787 23.6704 18.2094 23.7211 18.1415 23.7738C18.0736 23.8264 18.0072 23.8809 17.9423 23.9372C17.8774 23.9935 17.8142 24.0516 17.7525 24.1117C17.6908 24.1713 17.6308 24.2328 17.5725 24.2962C17.5142 24.3592 17.4577 24.4238 17.403 24.4902C17.3482 24.5565 17.2953 24.6241 17.2443 24.693C17.1933 24.7623 17.1442 24.8329 17.0971 24.9048C17.05 24.9767 17.0049 25.0497 16.9618 25.1237C16.9187 25.1982 16.8777 25.2736 16.8387 25.3499C16.7998 25.4266 16.763 25.5043 16.7283 25.5828C16.6936 25.6613 16.6611 25.7409 16.6308 25.8212C16.6005 25.9017 16.5725 25.9828 16.5467 26.0647C16.5208 26.1465 16.4973 26.2292 16.476 26.3125C16.4547 26.3955 16.4357 26.4793 16.419 26.5638C16.4024 26.6478 16.388 26.7323 16.376 26.8172C16.364 26.9024 16.3544 26.9878 16.3471 27.0734C16.3398 27.159 16.3348 27.2446 16.3322 27.3302C16.3296 27.4161 16.3294 27.5021 16.3315 27.588C16.3337 27.6736 16.3381 27.7592 16.345 27.8448C16.3519 27.9304 16.3611 28.0158 16.3726 28.101C16.3842 28.1859 16.3981 28.2705 16.4143 28.355C16.4306 28.4395 16.4491 28.5233 16.47 28.6062C16.4908 28.6896 16.5139 28.7724 16.5393 28.8547C16.5647 28.9366 16.5923 29.0177 16.6222 29.0981C16.6521 29.1789 16.6842 29.2585 16.7184 29.3371C16.7527 29.416 16.7891 29.4938 16.8276 29.5705C16.8662 29.6472 16.9068 29.7228 16.9495 29.7973C16.9922 29.8717 17.0369 29.9451 17.0837 30.0173C17.1305 30.0896 17.1792 30.1603 17.2298 30.2297C17.2804 30.299 17.3329 30.3669 17.3873 30.4336C17.4417 30.4999 17.4979 30.565 17.5559 30.6287C17.6139 30.6921 17.6735 30.7537 17.7349 30.8138C17.7963 30.8742 17.8593 30.9327 17.9238 30.9894C17.9884 31.0461 18.0545 31.1009 18.1221 31.1539C18.1898 31.2069 18.2588 31.2581 18.3292 31.3073C18.3997 31.3566 18.4714 31.404 18.5445 31.4496C18.6175 31.4948 18.6918 31.538 18.7672 31.5791C18.8426 31.6206 18.9191 31.6598 18.9967 31.6969C19.0743 31.734 19.1528 31.769 19.2323 31.8019C19.3118 31.8346 19.3922 31.8651 19.4734 31.8936C19.5546 31.9218 19.6365 31.9479 19.7192 31.972C19.8018 31.9957 19.885 32.0172 19.9689 32.0365C20.0527 32.0558 20.137 32.0728 20.2217 32.0876C20.3065 32.1021 20.3916 32.1143 20.4771 32.1243C20.5625 32.1347 20.6481 32.1425 20.734 32.1476C20.8198 32.1528 20.9058 32.1558 20.9918 32.1565C21.0779 32.1569 21.1638 32.155 21.2497 32.151C21.3357 32.1469 21.4214 32.1404 21.507 32.1315C21.5926 32.1226 21.6778 32.1115 21.7628 32.0982C21.8477 32.0848 21.9322 32.0691 22.0163 32.0509C22.1004 32.0328 22.1839 32.0122 22.2669 31.9892C22.3499 31.9666 22.4321 31.9416 22.5137 31.9142C22.5953 31.8871 22.6761 31.8577 22.756 31.8258C22.836 31.7943 22.915 31.7606 22.9931 31.7247C23.0712 31.6887 23.1483 31.6506 23.2242 31.6102C23.3003 31.5699 23.3751 31.5276 23.4487 31.4835C23.5224 31.439 23.5948 31.3927 23.6659 31.3445C23.737 31.296 23.8068 31.2456 23.8751 31.1934C23.9435 31.1415 24.0103 31.0876 24.0757 31.0316C24.141 30.9757 24.2049 30.9181 24.267 30.8588C24.3293 30.7995 24.3898 30.7386 24.4486 30.6759C24.5074 30.6133 24.5645 30.5492 24.6198 30.4836C24.6752 30.4177 24.7286 30.3505 24.7802 30.2819C24.8318 30.213 24.8815 30.143 24.9292 30.0718C24.977 30.0003 25.0227 29.9275 25.0665 29.8534C25.1102 29.7796 25.1519 29.7046 25.1915 29.6283C25.2311 29.552 25.2685 29.4747 25.3039 29.3965C25.3393 29.3183 25.3725 29.2393 25.4034 29.1592C25.4344 29.0788 25.4632 28.9979 25.4897 28.9164C25.5162 28.8348 25.5405 28.7526 25.5625 28.6696C25.5845 28.5862 25.6042 28.5027 25.6216 28.4189C25.639 28.3348 25.6541 28.2501 25.6667 28.1649C25.6796 28.0801 25.6899 27.995 25.6979 27.9098C25.706 27.8243 25.7117 27.7385 25.715 27.6525C25.7184 27.5669 25.7193 27.4812 25.7179 27.3952C25.7165 27.3092 25.7127 27.2235 25.7066 27.1379C25.7005 27.0523 25.692 26.9669 25.6812 26.8817C25.6704 26.7965 25.6572 26.7116 25.6417 26.6271C25.6263 26.5426 25.6084 26.4587 25.5883 26.3753C25.5682 26.292 25.5458 26.2092 25.5211 26.1269C25.4964 26.0447 25.4695 25.9631 25.4403 25.8824C25.4111 25.8016 25.3797 25.7216 25.3461 25.6423C25.3126 25.5634 25.2768 25.4854 25.2389 25.4083C25.2011 25.3313 25.1611 25.2553 25.119 25.1804C25.077 25.1056 25.0329 25.0319 24.9867 24.9592L35.2216 7.21331C35.2555 7.15476 35.2931 7.09863 35.3343 7.0449C35.3755 6.99117 35.4201 6.94042 35.4679 6.89262C35.5158 6.84483 35.5666 6.80017 35.6202 6.75868C35.674 6.71755 35.7301 6.67993 35.7887 6.64586C35.8473 6.61177 35.9079 6.58174 35.9704 6.55581C36.033 6.52951 36.097 6.50746 36.1623 6.48968C36.2278 6.47189 36.294 6.45856 36.3612 6.44967C36.4283 6.44039 36.4958 6.43558 36.5636 6.43522L64.2723 6.43522L63.4426 5.00131Z"   fill="#6DA230" >
</path>
<path d="M2.80185 34.0128C2.73674 34.1258 2.67538 34.2408 2.61776 34.3579C2.56018 34.475 2.50646 34.5937 2.45661 34.7142C2.40679 34.8346 2.36094 34.9565 2.31907 35.0798C2.27723 35.2032 2.23945 35.3279 2.20575 35.4539C2.17204 35.5799 2.14249 35.7068 2.1171 35.8346C2.09167 35.9624 2.07047 36.091 2.0535 36.2203C2.0365 36.3496 2.02373 36.4793 2.01519 36.6094C2.00669 36.7394 2.00244 36.8696 2.00244 37.0001C2.00244 37.1305 2.00669 37.2607 2.01519 37.3908C2.02373 37.5208 2.0365 37.6505 2.0535 37.7798C2.07047 37.9091 2.09167 38.0377 2.1171 38.1655C2.14249 38.2933 2.17204 38.4202 2.20575 38.5462C2.23945 38.6722 2.27723 38.7969 2.31907 38.9203C2.36094 39.0436 2.40679 39.1655 2.45661 39.286C2.50646 39.4067 2.56018 39.5255 2.61776 39.6422C2.67538 39.7593 2.73674 39.8744 2.80185 39.9874L13.6548 58.7448C13.7204 58.8574 13.7896 58.9679 13.8624 59.076C13.9351 59.1842 14.0114 59.2898 14.0911 59.3928C14.1707 59.4962 14.2538 59.5966 14.34 59.6941C14.4263 59.7919 14.5156 59.8867 14.6081 59.9786C14.7006 60.0705 14.796 60.1594 14.8942 60.2454C14.9925 60.331 15.0935 60.4134 15.1972 60.4927C15.3009 60.5716 15.407 60.6472 15.5156 60.7195C15.6243 60.7917 15.7351 60.8605 15.8482 60.9257C15.9613 60.9905 16.0765 61.0516 16.1936 61.1091C16.3107 61.1665 16.4296 61.2202 16.5502 61.2702C16.6708 61.3199 16.7929 61.3657 16.9166 61.4075C17.0402 61.4494 17.1651 61.487 17.2911 61.5203C17.4173 61.5541 17.5443 61.5837 17.6723 61.6093C17.8003 61.6344 17.9291 61.6556 18.0585 61.6726C18.1878 61.6897 18.3177 61.7025 18.4479 61.711C18.5782 61.7195 18.7085 61.7237 18.8391 61.7237L39.3812 61.7237C39.3812 61.7571 39.4146 61.7904 39.4369 61.8238C39.4796 61.8987 39.5244 61.9722 39.5712 62.0444C39.618 62.1167 39.6667 62.1877 39.7175 62.2573C39.7682 62.3269 39.8208 62.3951 39.8753 62.4618C39.9297 62.5285 39.986 62.5937 40.0441 62.6575C40.1021 62.7212 40.1619 62.7832 40.2234 62.8436C40.2848 62.904 40.3479 62.9626 40.4126 63.0193C40.4774 63.0763 40.5436 63.1315 40.6114 63.1849C40.6791 63.2382 40.7483 63.2896 40.8189 63.3388C40.8894 63.3885 40.9613 63.4361 41.0345 63.4817C41.1077 63.5272 41.1821 63.5706 41.2577 63.6117C41.3333 63.6532 41.41 63.6927 41.4877 63.7301C41.5653 63.7672 41.644 63.8022 41.7238 63.8351C41.8036 63.8681 41.8842 63.8989 41.9655 63.9274C42.0468 63.9559 42.1288 63.9823 42.2116 64.0063C42.2948 64.0304 42.3783 64.0521 42.4622 64.0713C42.5461 64.0906 42.6306 64.1076 42.7156 64.1225C42.8006 64.1373 42.886 64.1497 42.9717 64.1597C43.0575 64.1701 43.1432 64.1779 43.229 64.1831C43.3151 64.1886 43.4015 64.1916 43.4879 64.1919C43.5741 64.1927 43.6602 64.191 43.7463 64.187C43.8325 64.1829 43.9184 64.1766 44.0041 64.1681C44.0899 64.1592 44.1755 64.1479 44.2608 64.1341C44.3459 64.1208 44.4305 64.1051 44.5148 64.0869C44.5994 64.0687 44.6833 64.0484 44.7665 64.0258C44.8496 64.0028 44.932 63.9778 45.0137 63.9507C45.0957 63.9233 45.1769 63.8939 45.257 63.8624C45.3372 63.8305 45.4165 63.7966 45.4948 63.7607C45.5732 63.7244 45.6503 63.6862 45.7265 63.6462C45.8026 63.6058 45.8775 63.5634 45.9514 63.5189C46.0253 63.4744 46.0979 63.4279 46.1692 63.3794C46.2404 63.3312 46.3104 63.281 46.3791 63.2288C46.4478 63.1765 46.5148 63.1225 46.5801 63.0665C46.6458 63.0105 46.7099 62.9527 46.7722 62.8931C46.8346 62.8338 46.8953 62.7729 46.9543 62.7103C47.0133 62.6473 47.0707 62.5828 47.1264 62.5168C47.1817 62.4509 47.2354 62.3836 47.2873 62.3151C47.3389 62.2462 47.3887 62.176 47.4365 62.1045C47.4844 62.0326 47.5303 61.9596 47.5741 61.8855C47.6182 61.8114 47.6602 61.7361 47.6999 61.6598C47.7396 61.5835 47.7772 61.5061 47.8124 61.4275C47.8481 61.349 47.8815 61.2697 47.9127 61.1896C47.9434 61.1093 47.9722 61.0281 47.999 60.9462C48.0257 60.8643 48.05 60.7817 48.0719 60.6983C48.0942 60.6154 48.1141 60.5316 48.1315 60.4471C48.1489 60.363 48.164 60.2784 48.1766 60.1931C48.1896 60.1079 48.2001 60.0225 48.2083 59.9369C48.2165 59.851 48.2223 59.765 48.2256 59.679C48.2289 59.5931 48.2299 59.5071 48.2284 59.4212C48.2269 59.3352 48.2232 59.2493 48.2172 59.1633C48.211 59.0773 48.2024 58.9918 48.1916 58.9065C48.1809 58.8209 48.1677 58.7357 48.1521 58.6509C48.1365 58.5664 48.1187 58.4823 48.0986 58.3985C48.0786 58.3148 48.0561 58.2318 48.0313 58.1496C48.0064 58.067 47.9795 57.985 47.9505 57.9039C47.9212 57.8231 47.8897 57.7431 47.8559 57.6638C47.8224 57.5845 47.7866 57.5061 47.7484 57.4287C47.7105 57.3516 47.6706 57.2755 47.6287 57.2003C47.5863 57.1251 47.542 57.0512 47.4956 56.9785C47.4495 56.9059 47.4015 56.8346 47.3513 56.7646C47.3012 56.6945 47.2491 56.626 47.1949 56.5589C47.141 56.4915 47.0853 56.4257 47.0278 56.3616C46.9703 56.2975 46.9109 56.2351 46.8496 56.1743C46.7888 56.1136 46.7262 56.0544 46.662 55.997C46.5978 55.9396 46.5321 55.884 46.4648 55.8303C46.3973 55.7762 46.3284 55.7241 46.2583 55.6741C46.1881 55.6241 46.1166 55.5761 46.0439 55.5302C45.9711 55.4839 45.897 55.4398 45.8217 55.3979C45.7463 55.3561 45.6698 55.316 45.5923 55.2779C45.515 55.2401 45.4367 55.2045 45.3573 55.1712C45.2778 55.1375 45.1975 55.106 45.1162 55.0767C45.0353 55.0478 44.9534 55.0209 44.8706 54.9961C44.7878 54.9716 44.7045 54.9494 44.6206 54.9294C44.5366 54.909 44.4524 54.8912 44.3678 54.876C44.2827 54.8605 44.1975 54.8474 44.1122 54.8366C44.0264 54.8258 43.9405 54.8175 43.8543 54.8116C43.7686 54.8053 43.6824 54.8016 43.596 54.8004C43.5098 54.7989 43.4237 54.7999 43.3376 54.8032C43.2514 54.8069 43.1654 54.8127 43.0792 54.8205C42.9935 54.8286 42.9079 54.8392 42.8225 54.8521C42.7375 54.8651 42.6527 54.8803 42.568 54.8977C42.4838 54.9151 42.3999 54.9349 42.3163 54.9572C42.2328 54.9791 42.1502 55.0033 42.0685 55.03C41.9865 55.0567 41.9052 55.0856 41.8246 55.1167C41.7441 55.1478 41.6646 55.181 41.5863 55.2162C41.5075 55.2517 41.4299 55.2894 41.3533 55.329C41.2768 55.3686 41.2014 55.4105 41.1272 55.4546C41.053 55.4983 40.98 55.5441 40.9083 55.5919C40.8366 55.6397 40.7663 55.6895 40.6973 55.7414C40.6283 55.7929 40.5608 55.8464 40.4948 55.902C40.4288 55.9576 40.3644 56.0148 40.3015 56.0737C40.2387 56.1326 40.1775 56.1932 40.118 56.2555C40.0584 56.3177 40.0007 56.3816 39.9447 56.4472C39.8887 56.5128 39.8345 56.5797 39.7822 56.6478C39.7299 56.7164 39.6795 56.7862 39.6311 56.8574C39.5826 56.9285 39.5362 57.0012 39.4917 57.0752C39.4472 57.149 39.4049 57.2239 39.3645 57.2998L18.8446 57.3276C18.7768 57.3276 18.7092 57.3231 18.6419 57.3142C18.5747 57.3053 18.5082 57.292 18.4427 57.2742C18.3772 57.2568 18.3131 57.2351 18.2503 57.2092C18.1876 57.1836 18.1268 57.154 18.0679 57.1203C18.0091 57.0865 17.9527 57.0491 17.8988 57.008C17.8448 56.9669 17.7937 56.9224 17.7455 56.8746C17.6974 56.8272 17.6525 56.7766 17.6109 56.7229C17.5693 56.6695 17.5314 56.6136 17.4971 56.555L16.8121 55.3657L3.64269 32.5789L2.80185 34.0128Z"   fill="#6DA230" >
</path>
</g>
<g >
<path     fill="#000000" fill-opacity="0.88" d="M124.752 36.368L124.752 42.08L105.648 42.08L105.648 55.28L98.88 55.28L98.88 38.576Q98.928 31.376 100.224 29.12Q101.856 25.952 104.952 24.608Q108.048 23.264 113.664 23.264L124.752 23.264L124.752 28.976L114.528 28.976Q109.776 29.072 108.432 29.744Q105.744 30.848 105.648 34.64L105.648 36.368L124.752 36.368ZM144.912 50.288L144.912 31.904L151.344 31.904L151.344 55.28L138.672 55.28Q135.936 55.28 134.448 54.872Q132.96 54.464 131.808 53.408Q129.36 51.2 129.36 46.256L129.36 31.904L135.744 31.904L135.744 46.928Q135.744 48.512 136.584 49.4Q137.424 50.288 138.864 50.288L144.912 50.288ZM177.936 31.904L177.936 36.896L166.56 36.896Q164.592 36.896 164.064 37.088Q162.96 37.472 162.96 38.96Q162.96 40.208 164.016 40.88Q164.592 41.264 167.136 41.264L170.928 41.264Q174.576 41.264 176.688 42.8Q179.04 44.528 179.04 47.888Q179.04 50.432 177.6 52.544Q176.544 54.224 175.032 54.752Q173.52 55.28 169.968 55.28L156.672 55.28L156.672 50.288L168.144 50.288Q170.256 50.288 171.024 50.24Q172.752 50.048 172.752 48.272Q172.752 46.832 171.6 46.304Q171.024 46.016 168.816 46.016L164.928 46.016Q162.624 46.016 161.4 45.728Q160.176 45.44 159.12 44.672Q157.824 43.76 157.08 42.152Q156.336 40.544 156.336 38.72Q156.336 35.216 158.88 33.152Q160.416 31.904 164.208 31.904L177.936 31.904ZM183.936 31.904L190.368 31.904L190.368 55.28L183.936 55.28L183.936 31.904ZM183.936 29.504L183.936 23.264L190.368 23.264L190.368 29.504L183.936 29.504ZM207.504 31.568Q213.984 31.568 217.056 35.312Q219.888 38.72 219.888 43.904Q219.888 49.376 216.336 52.64Q213.072 55.616 207.408 55.616Q201.552 55.616 198.24 52.256Q195.168 49.232 195.168 43.424Q195.168 38.528 198.096 35.264Q201.36 31.616 207.504 31.568ZM207.552 36.464Q201.744 36.464 201.744 43.664Q201.744 46.592 202.704 48.128Q204.288 50.72 207.6 50.72Q213.312 50.72 213.312 43.568Q213.312 36.56 207.552 36.464ZM224.64 31.904L237.024 31.904Q239.808 31.904 241.272 32.312Q242.736 32.72 243.936 33.776Q246.384 36.032 246.384 40.88L246.384 55.28L239.952 55.28L239.952 40.16Q239.952 38.432 239.184 37.664Q238.416 36.896 236.64 36.896L231.072 36.896L231.072 55.28L224.64 55.28L224.64 31.904ZM260.352 39.104L249.84 23.264L258.192 23.264L264.48 33.824L271.296 23.264L279.552 23.264L268.704 39.104L279.552 55.28L271.536 55.28L264.48 44.288L257.568 55.28L249.456 55.28L260.352 39.104Z">
</path>
</g>
<g >
<path     fill="#000000" fill-opacity="0.88" d="M325.472 27L327.392 34.824L333.152 34.824L333.152 39.576L328.544 39.576L332.624 56.328L326.432 56.328L322.352 39.576L311.648 39.576L311.648 50.136L315.872 49.704L315.008 46.776L320.24 46.776L323.12 56.328L317.84 56.328L317.216 54.168L304.976 55.56L304.976 39.576L304.976 34.824L304.976 28.2L304.976 26.328L304.976 23.448L333.152 21.864L333.152 26.568L325.472 27ZM319.376 27.384L311.648 27.816L311.648 34.824L321.2 34.824L319.376 27.384ZM295.04 34.68L291.008 34.68L296.336 21.672L302.768 21.672L299.456 29.736L301.232 29.736L301.232 56.328L295.04 56.328L295.04 34.68ZM348.224 30.552L359.408 30.552L356.144 22.344L362.72 22.344L365.984 30.552L369.824 30.552L367.376 23.544L373.184 23.544L377.216 35.208L374.48 35.208L371.456 35.208L367.904 35.208L376.304 56.184L369.728 56.184L361.328 35.208L348.224 35.208L348.224 30.552ZM347.12 21.768L343.856 28.536L346.208 28.536L346.208 56.184L340.256 56.184L340.256 33.336L335.216 33.336L340.832 21.768L347.12 21.768ZM382.4 56.328L382.4 43.032L379.232 43.032L381.968 26.472L379.52 26.472L379.52 21.72L399.536 21.72L399.536 26.472L388.592 26.472L388.256 28.68L398.24 28.68L398.24 51.048Q398.24 52.152 397.808 53.112Q397.376 54.072 396.656 54.792Q395.936 55.512 394.976 55.92Q394.016 56.328 392.96 56.328L382.4 56.328ZM388.544 51.576L390.608 51.576Q391.232 51.576 391.664 51.144Q392.096 50.712 392.096 50.088L392.096 33.432L388.544 33.432L388.544 51.576ZM421.52 51.048Q421.52 52.152 421.112 53.112Q420.704 54.072 419.984 54.792Q419.264 55.512 418.304 55.92Q417.344 56.328 416.24 56.328L409.856 56.328L411.68 52.2L413.36 52.2Q413.984 52.2 414.416 51.768Q414.848 51.336 414.848 50.664L414.848 41.208L399.968 41.208L402.416 28.968L409.328 28.968L407.888 36.456L413.216 36.456L413.216 27.912Q413.216 27.288 412.784 26.856Q412.352 26.424 411.728 26.424L401.12 26.424L401.12 21.672L414.608 21.672Q415.712 21.672 416.672 22.08Q417.632 22.488 418.352 23.208Q419.072 23.928 419.48 24.888Q419.888 25.848 419.888 26.952L419.888 36.456L421.52 36.456L421.52 51.048ZM412.16 49.944L399.968 49.944L399.968 45.192L412.16 45.192L412.16 49.944ZM430.544 42.168L423.536 42.168L423.536 37.224L431.408 37.224L433.28 26.664L425.12 26.664L425.12 21.72L463.952 21.72L463.952 26.664L458.384 26.664L458.384 37.224L465.536 37.224L465.536 42.168L458.384 42.168L458.384 56.232L451.952 56.232L451.952 42.168L436.976 42.168L434.528 56.232L428.096 56.232L430.544 42.168ZM437.84 37.224L451.952 37.224L451.952 26.664L439.712 26.664L437.84 37.224ZM484.112 32.328L483.152 34.776L507.68 34.776L507.68 39.144L507.536 39.144L507.68 39.192Q504.848 46.008 499.472 49.992Q501.488 50.76 503.792 51.144Q506.096 51.528 508.784 51.672L508.784 56.28Q504.416 56.28 500.744 55.584Q497.072 54.888 493.904 53.208Q491.024 54.456 487.664 55.272Q484.304 56.088 480.512 56.472L480.512 51.432Q482.816 51.096 484.856 50.64Q486.896 50.184 488.72 49.56Q485.072 46.2 481.808 40.872L488.384 40.872Q490.928 44.664 494 47.016Q496.208 45.624 497.936 43.704Q499.664 41.784 501.008 39.192L501.056 39.144L481.424 39.192L474.8 56.136L468.32 56.424L477.776 32.328L474.656 32.328L468.704 32.328L472.208 21.768L478.16 21.768L476.24 27.624L479.6 27.624L481.904 21.768L488.384 21.528L485.984 27.624L501.152 27.624L499.472 22.92L505.808 22.92L509.12 32.328L506.144 32.328L502.784 32.328L484.112 32.328ZM541.376 40.776L544.16 28.776L549.92 28.776L547.136 40.776L541.376 40.776ZM524.864 40.776L519.104 40.776L516.512 28.776L522.272 28.776L524.864 40.776ZM553.952 47.352L536.24 47.352L536.24 56.184L529.568 56.184L529.568 47.352L511.808 47.352L511.808 46.104L511.808 42.888L511.808 42.648L529.568 42.648L529.568 26.52L513.392 26.52L513.392 25.8L513.392 22.584L513.392 21.816L552.368 21.816L552.368 22.584L552.368 25.8L552.368 26.52L536.24 26.52L536.24 42.648L553.952 42.648L553.952 42.888L553.952 46.104L553.952 47.352ZM596.336 51.48Q596.336 52.44 595.976 53.256Q595.616 54.072 595.016 54.672Q594.416 55.272 593.576 55.632Q592.736 55.992 591.824 55.992L564.224 55.992L557.216 55.992L557.216 51.336L557.216 43.416L557.216 42.84L557.216 38.712L596.336 38.712L596.336 38.808L596.336 43.416L596.336 51.48ZM589.328 43.416L564.224 43.416L564.224 51.336L587.84 51.336Q588.464 51.336 588.896 50.904Q589.328 50.472 589.328 49.8L589.328 43.416ZM556.448 36.408L565.712 21.96L572.48 21.96L566.24 31.704L587.744 31.704L583.04 23.88L589.472 23.88L597.632 37.512L591.248 37.512L590.576 36.408L563.216 36.408L558.368 36.408L556.448 36.408Z">
</path>
</g>
<defs>
<clipPath id="clip-path-1_25">
<path d="M2 72L81 72L81 2L2 2L2 72Z" fill="white"/>
</clipPath>
</defs>
</svg>
