<svg xmlns="http://www.w3.org/2000/svg" xmlns:xlink="http://www.w3.org/1999/xlink" width="443" height="50" viewBox="0 0 443 50" fill="none">
<g  clip-path="url(#clip-path-1_1)">
<path   fill-rule="evenodd"  fill="url(#linear_fill_1_2_0)"  d="M0.00390625 -2.27374e-13L549.004 4.54747e-13L549.004 50L0.00390625 50L0.00390625 -2.27374e-13Z">
</path>
<path   fill-rule="evenodd"  fill="url(#linear_fill_1_2_1)" fill-opacity="0.10000000149011612" d="M0.00390625 -2.27374e-13L549.004 4.54747e-13L549.004 50L0.00390625 50L0.00390625 -2.27374e-13Z">
</path>
<path fill-rule="evenodd"  fill="url(#linear_border_1_2_0)"  d="M0.00390625 0L0.00390625 50L549.004 50L549.004 0L0.00390625 0ZM1.00391 1L1.00391 49L548.004 49L548.004 1L1.00391 1Z">
</path>
<path   fill-rule="evenodd"  fill="url(#linear_fill_1_3_0)" fill-opacity="0.30000001192092896" d="M60 0L78.5 0L52.5 50L34 50L60 0ZM91.5 0L110 0L84 50L65.5 50L91.5 0ZM141.5 0L123 0L97 50L115.5 50L141.5 0ZM154.5 0L173 0L147 50L128.5 50L154.5 0ZM204.5 0L186 0L160 50L178.5 50L204.5 0ZM218 0L236.5 0L210.5 50L192 50L218 0ZM268.5 0L250 0L224 50L242.5 50L268.5 0ZM282 0L300.5 0L274.5 50L256 50L282 0ZM332.5 0L314 0L288 50L306.5 50L332.5 0Z">
</path>
<path   fill-rule="evenodd"  fill="url(#linear_fill_1_3_1)" fill-opacity="0.10000000149011612" d="M60 0L78.5 0L52.5 50L34 50L60 0ZM91.5 0L110 0L84 50L65.5 50L91.5 0ZM141.5 0L123 0L97 50L115.5 50L141.5 0ZM154.5 0L173 0L147 50L128.5 50L154.5 0ZM204.5 0L186 0L160 50L178.5 50L204.5 0ZM218 0L236.5 0L210.5 50L192 50L218 0ZM268.5 0L250 0L224 50L242.5 50L268.5 0ZM282 0L300.5 0L274.5 50L256 50L282 0ZM332.5 0L314 0L288 50L306.5 50L332.5 0Z">
</path>
<path     fill="url(#linear_fill_1_4_0)" fill-opacity="0.30000001192092896" d="M21.2605 0L34.219 25L21.2605 50L-8.00526 50L-22 25L-8.00526 0L21.2605 0Z">
</path>
<path fill-rule="evenodd"  fill="url(#linear_border_1_4_0)"  d="M20.652 1L33.0926 25L20.652 49L-7.41877 49L-20.854 25L-7.41877 1L20.652 1ZM21.26 0L21.2605 0L34.219 25L21.2605 50L-8.00526 50L-22 25L-8.00526 0L21.26 0Z">
</path>
<g filter="url(#filter_1_5)">
<path d="M2 25L9.5 37L17 25L9.5 13L2 25Z"   fill="url(#linear_fill_1_5)" >
</path>
</g>
<path d="M8.91797 10.6499L27.2741 25.0001L8.91797 39.3502L16.8346 25.0001L8.91797 10.6499Z"   fill="url(#linear_fill_1_6)" >
</path>
<path d="M3.38807e-05 6.87746e-07L34 0L34 50L0 50L3.38807e-05 6.87746e-07Z"   fill="url(#linear_fill_1_7)" >
</path>
<path d="M-156 13L421 13L421 -22L-156 -22L-156 13Z"   fill="url(#linear_fill_1_9)" >
</path>
</g>
<defs>
<clipPath id="clip-path-1_1">
<path d="M0 50L443 50L443 0L0 0L0 50Z" fill="white"/>
</clipPath>
<linearGradient id="linear_fill_1_2_0" x1="549.00390625" y1="0" x2="-15.2998046875" y2="0" gradientUnits="userSpaceOnUse">
<stop offset="0" stop-color="#00020F"  />
<stop offset="1" stop-color="#001726"  />
</linearGradient>
<linearGradient id="linear_fill_1_2_1" x1="-15.2998046875" y1="29" x2="549.00390625" y2="29" gradientUnits="userSpaceOnUse">
<stop offset="0" stop-color="#00AAFF"  />
<stop offset="1" stop-color="#008DFF" stop-opacity="0.1" />
</linearGradient>
<linearGradient id="linear_border_1_2_0" x1="0.00390625" y1="14.5" x2="549.00390625" y2="14.5" gradientUnits="userSpaceOnUse">
<stop offset="0" stop-color="#00A2FF"  />
<stop offset="1" stop-color="#0085FF" stop-opacity="0" />
</linearGradient>
<linearGradient id="linear_fill_1_3_0" x1="342.5" y1="31" x2="43" y2="31" gradientUnits="userSpaceOnUse">
<stop offset="0" stop-color="#0066FF" stop-opacity="0.01" />
<stop offset="0.7268123626708984" stop-color="#0075FF" stop-opacity="0.46" />
<stop offset="1" stop-color="#0085FF"  />
</linearGradient>
<linearGradient id="linear_fill_1_3_1" x1="183.25" y1="0" x2="183.25" y2="50" gradientUnits="userSpaceOnUse">
<stop offset="0.26492923498153687" stop-color="#0085FF" stop-opacity="0" />
<stop offset="1" stop-color="#0085FF"  />
</linearGradient>
<linearGradient id="linear_fill_1_4_0" x1="31.9697265625" y1="24.89501953125" x2="-21.2197265625" y2="25.140869140625" gradientUnits="userSpaceOnUse">
<stop offset="0" stop-color="#0057FF"  />
<stop offset="1" stop-color="#00C2FF"  />
</linearGradient>
<linearGradient id="linear_border_1_4_0" x1="34.5009765625" y1="26" x2="-26.5" y2="26" gradientUnits="userSpaceOnUse">
<stop offset="0" stop-color="#0094FF"  />
<stop offset="1" stop-color="#0094FF" stop-opacity="0" />
</linearGradient>
<linearGradient id="linear_fill_1_5" x1="9.5" y1="36.0308837890625" x2="9.5" y2="13.12060546875" gradientUnits="userSpaceOnUse">
<stop offset="0" stop-color="#0057FF"  />
<stop offset="1" stop-color="#00C2FF"  />
</linearGradient>
<filter id="filter_1_5" x="-1" y="10" width="21" height="30" filterUnits="userSpaceOnUse" color-interpolation-filters="sRGB">
<feFlood flood-opacity="0" result="feFloodId_1_5"/>
<feBlend mode="normal" in="SourceGraphic" in2="feFloodId_1_5" result="shape"/>
<feGaussianBlur result="gaussian_blur_1_5" stdDeviation="1.5"/>
</filter>
<linearGradient id="linear_fill_1_6" x1="22.271484375" y1="24.9998779296875" x2="1.6552734375" y2="24.9998779296875" gradientUnits="userSpaceOnUse">
<stop offset="0" stop-color="#D7ECFF"  />
<stop offset="1" stop-color="#5AB0FF"  />
</linearGradient>
<linearGradient id="linear_fill_1_7" x1="-0.01953125" y1="0" x2="22.4638671875" y2="0" gradientUnits="userSpaceOnUse">
<stop offset="0.040712907910346985" stop-color="#00C2FF"  />
<stop offset="0.05071290791034699" stop-color="#00A3FF" stop-opacity="0.3" />
<stop offset="1" stop-color="#0094FF" stop-opacity="0" />
</linearGradient>
<radialGradient id="linear_fill_1_9" cx="0" cy="0" r="1" gradientTransform="translate(131.5966796875 -2.15625) rotate(-180) scale(243.648346047699, 15.15625)" gradientUnits="userSpaceOnUse">
<stop offset="0.038100000470876694" stop-color="#FFFFFF"  />
<stop offset="0.13590000569820404" stop-color="#00D5FF" stop-opacity="0.6" />
<stop offset="0.26429998874664307" stop-color="#006AFF" stop-opacity="0.5" />
<stop offset="0.45680001378059387" stop-color="#0935CC" stop-opacity="0.32" />
<stop offset="0.6172000169754028" stop-color="#100EA7" stop-opacity="0.18" />
<stop offset="0.7013000249862671" stop-color="#120099" stop-opacity="0.1" />
<stop offset="0.7459999918937683" stop-color="#100089" stop-opacity="0.09" />
<stop offset="0.8334000110626221" stop-color="#0B005F" stop-opacity="0.06" />
<stop offset="0.9539999961853027" stop-color="#03001B" stop-opacity="0.02" />
<stop offset="1" stop-color="#000000" stop-opacity="0" />
</radialGradient>
</defs>
</svg>
