<svg xmlns="http://www.w3.org/2000/svg" xmlns:xlink="http://www.w3.org/1999/xlink" width="2660" height="50" viewBox="0 0 2660 50" fill="none">
<g  clip-path="url(#clip-path-1_1)">
<path   fill-rule="evenodd"  fill="url(#linear_fill_1_2_0)"  d="M0 -2.27374e-13L2660 4.54747e-13L2660 50L0 50L0 -2.27374e-13Z">
</path>
<path   fill-rule="evenodd"  fill="url(#linear_fill_1_2_1)" fill-opacity="0.10000000149011612" d="M0 -2.27374e-13L2660 4.54747e-13L2660 50L0 50L0 -2.27374e-13Z">
</path>
<path fill-rule="evenodd"  fill="url(#linear_border_1_2_0)"  d="M0 0L0 50L2660 50L2660 0L0 0ZM1 1L1 49L2659 49L2659 1L1 1Z">
</path>
<path   fill-rule="evenodd"  fill="url(#linear_fill_1_3_0)" fill-opacity="0.30000001192092896" d="M75.1122 0L104.365 0L63.2529 50L34 50L75.1122 0ZM124.921 0L154.174 0L113.062 50L83.809 50L124.921 0ZM203.983 0L174.73 0L133.618 50L162.871 50L203.983 0ZM224.539 0L253.792 0L212.68 50L183.427 50L224.539 0ZM303.601 0L274.348 0L233.236 50L262.489 50L303.601 0ZM324.948 0L354.201 0L313.089 50L283.836 50L324.948 0ZM404.801 0L375.548 0L334.436 50L363.688 50L404.801 0ZM426.147 0L455.4 0L414.288 50L385.035 50L426.147 0ZM506 0L476.747 0L435.635 50L464.888 50L506 0Z">
</path>
<path   fill-rule="evenodd"  fill="url(#linear_fill_1_3_1)" fill-opacity="0.10000000149011612" d="M75.1122 0L104.365 0L63.2529 50L34 50L75.1122 0ZM124.921 0L154.174 0L113.062 50L83.809 50L124.921 0ZM203.983 0L174.73 0L133.618 50L162.871 50L203.983 0ZM224.539 0L253.792 0L212.68 50L183.427 50L224.539 0ZM303.601 0L274.348 0L233.236 50L262.489 50L303.601 0ZM324.948 0L354.201 0L313.089 50L283.836 50L324.948 0ZM404.801 0L375.548 0L334.436 50L363.688 50L404.801 0ZM426.147 0L455.4 0L414.288 50L385.035 50L426.147 0ZM506 0L476.747 0L435.635 50L464.888 50L506 0Z">
</path>
<path     fill="url(#linear_fill_1_4_0)" fill-opacity="0.30000001192092896" d="M21.2605 0L34.219 25L21.2605 50L-8.00526 50L-22 25L-8.00526 0L21.2605 0Z">
</path>
<path fill-rule="evenodd"  fill="url(#linear_border_1_4_0)"  d="M20.652 1L33.0926 25L20.652 49L-7.41877 49L-20.854 25L-7.41877 1L20.652 1ZM21.26 0L21.2605 0L34.219 25L21.2605 50L-8.00526 50L-22 25L-8.00526 0L21.26 0Z">
</path>
<g filter="url(#filter_1_5)">
<path d="M2 25L9.5 37L17 25L9.5 13L2 25Z"   fill="url(#linear_fill_1_5)" >
</path>
</g>
<path d="M8.91797 10.6499L27.2741 25.0001L8.91797 39.3502L16.8346 25.0001L8.91797 10.6499Z"   fill="url(#linear_fill_1_6)" >
</path>
<path d="M0.000203437 6.87746e-07L204.153 0L204.153 50L0 50L0.000203437 6.87746e-07Z"   fill="url(#linear_fill_1_7)" >
</path>
<path d="M-294 17L665 17L665 -18L-294 -18L-294 17Z"   fill="url(#linear_fill_1_9)" >
</path>
<path   fill-rule="evenodd"  fill="url(#linear_fill_1_20_0)" fill-opacity="0.30000001192092896" d="M529.112 0L558.365 0L517.253 50L488 50L529.112 0ZM578.921 0L608.174 0L567.062 50L537.809 50L578.921 0ZM657.983 0L628.73 0L587.618 50L616.871 50L657.983 0ZM678.539 0L707.792 0L666.68 50L637.427 50L678.539 0ZM757.601 0L728.348 0L687.236 50L716.489 50L757.601 0ZM778.948 0L808.201 0L767.089 50L737.836 50L778.948 0ZM858.801 0L829.548 0L788.436 50L817.688 50L858.801 0ZM880.147 0L909.4 0L868.288 50L839.035 50L880.147 0ZM960 0L930.747 0L889.635 50L918.888 50L960 0Z">
</path>
<path   fill-rule="evenodd"  fill="url(#linear_fill_1_20_1)" fill-opacity="0.10000000149011612" d="M529.112 0L558.365 0L517.253 50L488 50L529.112 0ZM578.921 0L608.174 0L567.062 50L537.809 50L578.921 0ZM657.983 0L628.73 0L587.618 50L616.871 50L657.983 0ZM678.539 0L707.792 0L666.68 50L637.427 50L678.539 0ZM757.601 0L728.348 0L687.236 50L716.489 50L757.601 0ZM778.948 0L808.201 0L767.089 50L737.836 50L778.948 0ZM858.801 0L829.548 0L788.436 50L817.688 50L858.801 0ZM880.147 0L909.4 0L868.288 50L839.035 50L880.147 0ZM960 0L930.747 0L889.635 50L918.888 50L960 0Z">
</path>
</g>
<defs>
<clipPath id="clip-path-1_1">
<path d="M0 50L2660 50L2660 0L0 0L0 50Z" fill="white"/>
</clipPath>
<linearGradient id="linear_fill_1_2_0" x1="2660" y1="0" x2="-74.1494140625" y2="0" gradientUnits="userSpaceOnUse">
<stop offset="0" stop-color="#091FAD" stop-opacity="0" />
<stop offset="1" stop-color="#001726"  />
</linearGradient>
<linearGradient id="linear_fill_1_2_1" x1="-74.1494140625" y1="29" x2="2660" y2="29" gradientUnits="userSpaceOnUse">
<stop offset="0" stop-color="#00AAFF"  />
<stop offset="1" stop-color="#008DFF" stop-opacity="0.1" />
</linearGradient>
<linearGradient id="linear_border_1_2_0" x1="0" y1="14.5" x2="2660" y2="14.5" gradientUnits="userSpaceOnUse">
<stop offset="0" stop-color="#00A2FF"  />
<stop offset="1" stop-color="#0085FF" stop-opacity="0" />
</linearGradient>
<linearGradient id="linear_fill_1_3_0" x1="521.8125" y1="31" x2="48.2314453125" y2="31" gradientUnits="userSpaceOnUse">
<stop offset="0" stop-color="#0075FF" stop-opacity="0.46" />
<stop offset="1" stop-color="#0085FF"  />
</linearGradient>
<linearGradient id="linear_fill_1_3_1" x1="270" y1="0" x2="270" y2="50" gradientUnits="userSpaceOnUse">
<stop offset="0.26492923498153687" stop-color="#0085FF" stop-opacity="0" />
<stop offset="1" stop-color="#0085FF"  />
</linearGradient>
<linearGradient id="linear_fill_1_4_0" x1="31.9697265625" y1="24.89501953125" x2="-21.2197265625" y2="25.140869140625" gradientUnits="userSpaceOnUse">
<stop offset="0" stop-color="#0057FF"  />
<stop offset="1" stop-color="#00C2FF"  />
</linearGradient>
<linearGradient id="linear_border_1_4_0" x1="34.5009765625" y1="26" x2="-26.5" y2="26" gradientUnits="userSpaceOnUse">
<stop offset="0" stop-color="#0094FF"  />
<stop offset="1" stop-color="#0094FF" stop-opacity="0" />
</linearGradient>
<linearGradient id="linear_fill_1_5" x1="9.5" y1="36.0308837890625" x2="9.5" y2="13.12060546875" gradientUnits="userSpaceOnUse">
<stop offset="0" stop-color="#0057FF"  />
<stop offset="1" stop-color="#00C2FF"  />
</linearGradient>
<filter id="filter_1_5" x="-1" y="10" width="21" height="30" filterUnits="userSpaceOnUse" color-interpolation-filters="sRGB">
<feFlood flood-opacity="0" result="feFloodId_1_5"/>
<feBlend mode="normal" in="SourceGraphic" in2="feFloodId_1_5" result="shape"/>
<feGaussianBlur result="gaussian_blur_1_5" stdDeviation="1.5"/>
</filter>
<linearGradient id="linear_fill_1_6" x1="22.271484375" y1="24.9998779296875" x2="1.6552734375" y2="24.9998779296875" gradientUnits="userSpaceOnUse">
<stop offset="0" stop-color="#D7ECFF"  />
<stop offset="1" stop-color="#5AB0FF"  />
</linearGradient>
<linearGradient id="linear_fill_1_7" x1="-0.1162109375" y1="0" x2="134.88671875" y2="0" gradientUnits="userSpaceOnUse">
<stop offset="0.040712907910346985" stop-color="#00C2FF"  />
<stop offset="0.05071290791034699" stop-color="#00A3FF" stop-opacity="0.3" />
<stop offset="1" stop-color="#0094FF" stop-opacity="0" />
</linearGradient>
<radialGradient id="linear_fill_1_9" cx="0" cy="0" r="1" gradientTransform="translate(183.998046875 1.84375) rotate(-180) scale(243.648346047699, 15.15625)" gradientUnits="userSpaceOnUse">
<stop offset="0.038100000470876694" stop-color="#FFFFFF"  />
<stop offset="0.13590000569820404" stop-color="#00D5FF" stop-opacity="0.6" />
<stop offset="0.26429998874664307" stop-color="#006AFF" stop-opacity="0.5" />
<stop offset="0.45680001378059387" stop-color="#0935CC" stop-opacity="0.32" />
<stop offset="0.6172000169754028" stop-color="#100EA7" stop-opacity="0.18" />
<stop offset="0.7013000249862671" stop-color="#120099" stop-opacity="0.1" />
<stop offset="0.7459999918937683" stop-color="#100089" stop-opacity="0.09" />
<stop offset="0.8334000110626221" stop-color="#0B005F" stop-opacity="0.06" />
<stop offset="0.9539999961853027" stop-color="#03001B" stop-opacity="0.02" />
<stop offset="1" stop-color="#000000" stop-opacity="0" />
</radialGradient>
<linearGradient id="linear_fill_1_20_0" x1="790.43359375" y1="31" x2="502.2314453125" y2="31" gradientUnits="userSpaceOnUse">
<stop offset="0" stop-color="#0066FF" stop-opacity="0.01" />
<stop offset="0.2222" stop-color="#0075FF" stop-opacity="0.46" />
<stop offset="1" stop-color="#0085FF"  />
</linearGradient>
<linearGradient id="linear_fill_1_20_1" x1="724" y1="0" x2="724" y2="50" gradientUnits="userSpaceOnUse">
<stop offset="0.26492923498153687" stop-color="#0085FF" stop-opacity="0" />
<stop offset="1" stop-color="#0085FF"  />
</linearGradient>
</defs>
</svg>
